<?xml version="1.0" encoding="utf-8"?>
<!-- Generator: Adobe Illustrator 26.4.1, SVG Export Plug-In . SVG Version: 6.00 Build 0)  -->
<svg version="1.2" baseProfile="tiny" id="g-barchart-Artboard_1-barchart-img" xmlns="http://www.w3.org/2000/svg" xmlns:xlink="http://www.w3.org/1999/xlink"
	 x="0px" y="0px" viewBox="0 0 574.305 256.575" overflow="visible" xml:space="preserve">
<g>
	<rect x="68.429" y="66.291" fill="#181818" fill-opacity="0.05" width="469.052" height="27"/>
	<rect x="68.429" y="97.291" fill="#181818" fill-opacity="0.05" width="469.052" height="27"/>
	<rect x="68.429" y="128.291" fill="#181818" fill-opacity="0.05" width="469.052" height="27"/>
	<rect x="68.429" y="159.291" fill="#181818" fill-opacity="0.05" width="469.052" height="27"/>
	<rect x="68.429" y="159.291" fill="#EDD6A0" width="17.547" height="27"/>
	<rect x="68.429" y="190.291" fill="#181818" fill-opacity="0.05" width="469.052" height="27"/>
	<rect x="68.429" y="190.291" fill="#EDD6A0" width="6.062" height="27"/>
	<rect x="68.429" y="66.291" fill="#EDD6A0" width="27.453" height="27"/>
	<rect x="98.969" y="66.291" fill="#EDD6A0" width="27.208" height="27"/>
	<rect x="128.508" y="66.291" fill="#EDD6A0" width="26.669" height="27"/>
	<rect x="158.047" y="66.291" fill="#EDD6A0" width="27.635" height="27"/>
	<rect x="188.586" y="66.291" fill="#EDD6A0" width="27.037" height="27"/>
	<rect x="220.125" y="66.291" fill="#EDD6A0" width="27.169" height="27"/>
	<rect x="251.664" y="66.291" fill="#EDD6A0" width="27.124" height="27"/>
	<rect x="283.203" y="66.291" fill="#EDD6A0" width="27.267" height="27"/>
	<rect x="347.742" y="66.291" fill="#EDD6A0" width="25.414" height="27"/>
	<rect x="68.429" y="97.291" fill="#070006" width="26.7" height="27"/>
	<rect x="98.164" y="97.291" fill="#050003" width="28.012" height="27"/>
	<rect x="128.898" y="97.291" fill="#020002" width="27.278" height="27"/>
	<rect x="158.633" y="97.291" fill="#020002" width="28.049" height="27"/>
	<rect x="189.367" y="97.291" fill="#020002" width="13.737" height="27"/>
	<rect x="68.429" y="128.291" fill="#EDD6A0" width="26.7" height="27"/>
	<rect x="97.469" y="128.291" fill="#EDD6A0" width="27.778" height="27"/>
	<rect x="128.508" y="128.291" fill="#EDD6A0" width="27.669" height="27"/>
	<rect x="158.547" y="128.291" fill="#EDD6A0" width="6.111" height="27"/>
	<rect x="316.563" y="67.416" fill="#EDD6A0" width="25.414" height="27"/>
</g>
<style>
#g-barchart-Artboard_1-barchart-img rect, #g-barchart-Artboard_1-barchart-img circle, #g-barchart-Artboard_1-barchart-img path, #g-barchart-Artboard_1-barchart-img line, #g-barchart-Artboard_1-barchart-img polyline, #g-barchart-Artboard_1-barchart-img polygon { vector-effect: non-scaling-stroke; }
</style>
</svg>

