<?xml version="1.0" encoding="utf-8"?>
<!-- Generator: Adobe Illustrator 26.4.1, SVG Export Plug-In . SVG Version: 6.00 Build 0)  -->
<svg version="1.2" baseProfile="tiny" id="exportSvg"
	 xmlns="http://www.w3.org/2000/svg" xmlns:xlink="http://www.w3.org/1999/xlink" x="0px" y="0px" viewBox="0 0 394.477 556.799"
	 overflow="visible" xml:space="preserve">
<line fill="none" stroke="#C6C6C6" stroke-width="2" x1="113.675" y1="-150.585" x2="113.675" y2="-494.111"/>
<text transform="matrix(0.9428 0 0 1 59.7163 -482.176)" fill="#181818" font-family="'Arial-BoldMT'" font-size="11.9341px">Alaska</text>
<ellipse fill="#C4C4C4" stroke="#000000" cx="128.077" cy="-486.963" rx="4.688" ry="4.973"/>
<text transform="matrix(0.9428 0 0 1 49.0962 -463.8865)" fill="#181818" font-family="'Arial-BoldMT'" font-size="11.9341px">Alabama</text>
<ellipse fill="#C4C4C4" stroke="#000000" cx="177.48" cy="-468.673" rx="4.688" ry="4.973"/>
<text transform="matrix(0.9428 0 0 1 45.3325 -445.5964)" fill="#181818" font-family="'Arial-BoldMT'" font-size="11.9341px">Arkansas</text>
<ellipse fill="#C4C4C4" stroke="#000000" cx="146.61" cy="-450.383" rx="4.688" ry="4.973"/>
<text transform="matrix(0.9428 0 0 1 54.7383 -427.3069)" fill="#181818" font-family="'Arial-BoldMT'" font-size="11.9341px">Arizona</text>
<ellipse fill="#C4C4C4" stroke="#000000" cx="235.087" cy="-432.093" rx="4.688" ry="4.973"/>
<text transform="matrix(0.9428 0 0 1 44.1074 -409.0173)" fill="#181818" font-family="'Arial-BoldMT'" font-size="11.9341px">California</text>
<ellipse fill="#F7081F" stroke="#000000" cx="584.951" cy="-413.804" rx="4.688" ry="4.973"/>
<text transform="matrix(0.9428 0 0 1 79.7476 -390.7278)" fill="#181818" font-family="'Arial-BoldMT'" font-size="11.9341px">DC</text>
<ellipse fill="#C4C4C4" stroke="#000000" cx="119.843" cy="-395.514" rx="4.688" ry="4.973"/>
<text transform="matrix(0.9428 0 0 1 58.4907 -372.4377)" fill="#181818" font-family="'Arial-BoldMT'" font-size="11.9341px">Florida</text>
<g>
	<ellipse fill="#C4C4C4" stroke="#000000" cx="375.106" cy="-377.224" rx="4.688" ry="4.973"/>
</g>
<text transform="matrix(0.9428 0 0 1 53.4805 -354.1482)" fill="#181818" font-family="'Arial-BoldMT'" font-size="11.9341px">Georgia</text>
<ellipse fill="#C4C4C4" stroke="#000000" cx="224.831" cy="-358.935" rx="4.688" ry="4.973"/>
<text transform="matrix(0.9428 0 0 1 60.3535 -335.8586)" fill="#181818" font-family="'Arial-BoldMT'" font-size="11.9341px">Hawaii</text>
<ellipse fill="#C4C4C4" stroke="#000000" cx="126.011" cy="-340.645" rx="4.688" ry="4.973"/>
<text transform="matrix(0.9428 0 0 1 70.9897 -317.5686)" fill="#181818" font-family="'Arial-BoldMT'" font-size="11.9341px">Iowa</text>
<ellipse fill="#C4C4C4" stroke="#000000" cx="132.194" cy="-322.355" rx="4.688" ry="4.973"/>
<text transform="matrix(0.9428 0 0 1 65.9961 -299.2791)" fill="#181818" font-family="'Arial-BoldMT'" font-size="11.9341px">Idaho</text>
<ellipse fill="#C4C4C4" stroke="#000000" cx="132.194" cy="-304.066" rx="4.688" ry="4.973"/>
<text transform="matrix(0.9428 0 0 1 63.4907 -280.989)" fill="#181818" font-family="'Arial-BoldMT'" font-size="11.9341px">Ilionis</text>
<ellipse fill="#C4C4C4" stroke="#000000" cx="165.129" cy="-285.776" rx="4.688" ry="4.973"/>
<text transform="matrix(0.9428 0 0 1 56.6118 -262.7)" fill="#181818" font-family="'Arial-BoldMT'" font-size="11.9341px">Indiana</text>
<ellipse fill="#C4C4C4" stroke="#000000" cx="187.779" cy="-267.486" rx="4.688" ry="4.973"/>
<text transform="matrix(0.9428 0 0 1 55.9692 -244.4099)" fill="#181818" font-family="'Arial-BoldMT'" font-size="11.9341px">Kansas</text>
<ellipse fill="#C4C4C4" stroke="#000000" cx="144.544" cy="-249.197" rx="4.688" ry="4.973"/>
<text transform="matrix(0.9428 0 0 1 19.0986 -226.1209)" fill="#181818" font-family="'Arial-BoldMT'" font-size="11.9341px">Rhodes Island</text>
<ellipse fill="#C4C4C4" stroke="#000000" cx="115.726" cy="-230.907" rx="4.688" ry="4.973"/>
<text transform="matrix(0.9428 0 0 1 15.9834 -207.8308)" fill="#181818" font-family="'Arial-BoldMT'" font-size="11.9341px">South Carolina</text>
<ellipse fill="#C4C4C4" stroke="#000000" cx="163.078" cy="-212.617" rx="4.688" ry="4.973"/>
<text transform="matrix(0.9428 0 0 1 23.4829 -189.5408)" fill="#181818" font-family="'Arial-BoldMT'" font-size="11.9341px">South Dakota</text>
<ellipse fill="#C4C4C4" stroke="#000000" cx="128.077" cy="-194.327" rx="4.688" ry="4.973"/>
<text transform="matrix(0.9428 0 0 1 38.6685 -171.2517)" fill="#181818" font-family="'Arial-BoldMT'" font-size="11.9341px">T</text>
<text transform="matrix(0.9428 0 0 1 44.7065 -171.2517)" fill="#181818" font-family="'Arial-BoldMT'" font-size="11.9341px">e</text>
<text transform="matrix(0.9428 0 0 1 50.9644 -171.2517)" fill="#181818" font-family="'Arial-BoldMT'" font-size="11.9341px">n</text>
<text transform="matrix(0.9428 0 0 1 57.8374 -171.2517)" fill="#181818" font-family="'Arial-BoldMT'" font-size="11.9341px">n</text>
<text transform="matrix(0.9428 0 0 1 64.7104 -171.2517)" fill="#181818" font-family="'Arial-BoldMT'" font-size="11.9341px">e</text>
<text transform="matrix(0.9428 0 0 1 70.9683 -171.2517)" fill="#181818" font-family="'Arial-BoldMT'" font-size="11.9341px">s</text>
<text transform="matrix(0.9428 0 0 1 77.2261 -171.2517)" fill="#181818" font-family="'Arial-BoldMT'" font-size="11.9341px">s</text>
<text transform="matrix(0.9428 0 0 1 83.4834 -171.2517)" fill="#181818" font-family="'Arial-BoldMT'" font-size="11.9341px">e</text>
<text transform="matrix(0.9428 0 0 1 89.7412 -171.2517)" fill="#181818" font-family="'Arial-BoldMT'" font-size="11.9341px">e</text>
<ellipse fill="#C4C4C4" stroke="#000000" cx="208.364" cy="-176.038" rx="4.688" ry="4.973"/>
<text transform="matrix(0.9428 0 0 1 64.9302 -152.9617)" fill="#181818" font-family="'Arial-BoldMT'" font-size="11.9341px">T</text>
<text transform="matrix(0.9428 0 0 1 70.9683 -152.9617)" fill="#181818" font-family="'Arial-BoldMT'" font-size="11.9341px">e</text>
<text transform="matrix(0.9428 0 0 1 77.2261 -152.9617)" fill="#181818" font-family="'Arial-BoldMT'" font-size="11.9341px">x</text>
<text transform="matrix(0.9428 0 0 1 83.4839 -152.9617)" fill="#181818" font-family="'Arial-BoldMT'" font-size="11.9341px">a</text>
<text transform="matrix(0.9428 0 0 1 89.7412 -152.9617)" fill="#181818" font-family="'Arial-BoldMT'" font-size="11.9341px">s</text>
<ellipse fill="#C4C4C4" stroke="#000000" cx="377.157" cy="-157.748" rx="4.688" ry="4.973"/>
<text transform="matrix(0.9428 0 0 1 110.5459 -133.6775)" fill="#A2A2A2" font-family="'ArialMT'" font-size="11.9341px">0</text>
<text transform="matrix(0.9428 0 0 1 195.3423 -133.6775)" fill="#A2A2A2" font-family="'ArialMT'" font-size="11.9341px">50</text>
<text transform="matrix(0.9428 0 0 1 297.3457 -133.6775)" fill="#A2A2A2" font-family="'ArialMT'" font-size="11.9341px">100</text>
<text transform="matrix(0.9428 0 0 1 399.3486 -133.6775)" fill="#A2A2A2" font-family="'ArialMT'" font-size="11.9341px"> 150</text>
<text transform="matrix(0.9428 0 0 1 501.3525 -133.6775)" fill="#A2A2A2" font-family="'ArialMT'" font-size="11.9341px">200</text>
<text transform="matrix(0.9428 0 0 1 583.0195 -133.6775)" fill="#A2A2A2" font-family="'ArialMT'" font-size="11.9341px">       250</text>
<text transform="matrix(0.9428 0 0 1 80.7109 -112.2781)" fill="#888888" font-family="'ArialMT'" font-size="10.9396px">​</text>
<text transform="matrix(0.9428 0 0 1 80.7109 -112.2781)" fill="#888888" font-family="'ArialMT'" font-size="10.9396px"> </text>
<text transform="matrix(0.9428 0 0 1 83.5767 -112.2781)" fill="#888888" font-family="'ArialMT'" font-size="10.9396px">​</text>
<line fill="none" stroke="#000000" x1="95.999" y1="-152.962" x2="646.336" y2="-152.962"/>
<text transform="matrix(0.9428 0 0 1 513.821 -446.9987)" fill="#181818" font-family="'ArialMT'" font-size="11.9341px">California</text>
<path fill="none" d="M596.656-428.384c2.847,0.709,5.774,1.074,8.708,1.077"/>
<path fill="none" d="M568.971-463.7c0,2.423,0.238,4.847,0.715,7.223"/>
<path fill="none" d="M558.69-459.573c-4.17-1.227-8.528-1.793-12.872-1.79"/>
<path fill="none" d="M576.615-445.854c-0.68-1.553-1.576-3.003-2.644-4.318"/>
<path fill="none" stroke="#C6C6C6" d="M566.131-450.172c0.086,0.163,0.155,0.328,0.225,0.493c3.419,0.42,7.468,2.596,9.693,4.02
	c2.817,1.802,5.234,4.093,6.793,6.874c0.393,0.323,0.761,0.715,1.081,1.203c2.152,3.281,3.589,9.182,2.85,13.297
	c0.084,0.037,0.168,0.072,0.251,0.114c0.085-0.787,0.143-1.581,0.143-2.389C587.168-438.226,578.131-447.951,566.131-450.172z"/>
<line fill="none" stroke="#C6C6C6" stroke-width="2" x1="321.65" y1="461.439" x2="55.623" y2="461.439"/>
<text transform="matrix(-4.297502e-07 -1.0057 1 -4.862650e-07 64.8647 506.011)" fill="#181818" font-family="'Arial-BoldMT'" font-size="9.2418px">Alaska</text>
<ellipse fill="#C4C4C4" stroke="#000000" cx="61.158" cy="449.542" rx="3.851" ry="3.873"/>
<text transform="matrix(-4.297502e-07 -1.0057 1 -4.862650e-07 79.0283 514.7834)" fill="#181818" font-family="'Arial-BoldMT'" font-size="9.2418px">Alabama</text>
<ellipse fill="#C4C4C4" stroke="#000000" cx="75.322" cy="408.733" rx="3.851" ry="3.873"/>
<text transform="matrix(-4.297502e-07 -1.0057 1 -4.862650e-07 93.1923 517.8918)" fill="#181818" font-family="'Arial-BoldMT'" font-size="9.2418px">Arkansas</text>
<ellipse fill="#C4C4C4" stroke="#000000" cx="89.485" cy="434.233" rx="3.851" ry="3.873"/>
<text transform="matrix(-4.297502e-07 -1.0057 1 -4.862650e-07 107.3559 510.1223)" fill="#181818" font-family="'Arial-BoldMT'" font-size="9.2418px">Arizona</text>
<ellipse fill="#C4C4C4" stroke="#000000" cx="103.649" cy="361.147" rx="3.851" ry="3.873"/>
<text transform="matrix(-4.297502e-07 -1.0057 1 -4.862650e-07 121.5195 518.9045)" fill="#181818" font-family="'Arial-BoldMT'" font-size="9.2418px">California</text>
<ellipse fill="#F7081F" stroke="#000000" cx="117.812" cy="72.142" rx="3.851" ry="3.873"/>
<text transform="matrix(-4.297502e-07 -1.0057 1 -4.862650e-07 135.6821 489.4641)" fill="#181818" font-family="'Arial-BoldMT'" font-size="9.2418px">DC</text>
<ellipse fill="#C4C4C4" stroke="#000000" cx="131.976" cy="456.344" rx="3.851" ry="3.873"/>
<text transform="matrix(-4.297502e-07 -1.0057 1 -4.862650e-07 149.8461 507.0227)" fill="#181818" font-family="'Arial-BoldMT'" font-size="9.2418px">Florida</text>
<g>
	<ellipse fill="#C4C4C4" stroke="#000000" cx="146.139" cy="245.484" rx="3.851" ry="3.873"/>
</g>
<text transform="matrix(-4.297502e-07 -1.0057 1 -4.862650e-07 164.0097 511.1613)" fill="#181818" font-family="'Arial-BoldMT'" font-size="9.2418px">Georgia</text>
<ellipse fill="#C4C4C4" stroke="#000000" cx="160.303" cy="369.618" rx="3.851" ry="3.873"/>
<text transform="matrix(-4.297502e-07 -1.0057 1 -4.862650e-07 178.1733 505.4846)" fill="#181818" font-family="'Arial-BoldMT'" font-size="9.2418px">Hawaii</text>
<ellipse fill="#C4C4C4" stroke="#000000" cx="174.467" cy="451.249" rx="3.851" ry="3.873"/>
<text transform="matrix(-4.297502e-07 -1.0057 1 -4.862650e-07 192.3369 496.6975)" fill="#181818" font-family="'Arial-BoldMT'" font-size="9.2418px">Iowa</text>
<ellipse fill="#C4C4C4" stroke="#000000" cx="188.63" cy="446.141" rx="3.851" ry="3.873"/>
<text transform="matrix(-4.297502e-07 -1.0057 1 -4.862650e-07 206.5009 500.8235)" fill="#181818" font-family="'Arial-BoldMT'" font-size="9.2418px">Idaho</text>
<ellipse fill="#C4C4C4" stroke="#000000" cx="202.794" cy="446.141" rx="3.851" ry="3.873"/>
<text transform="matrix(-4.297502e-07 -1.0057 1 -4.862650e-07 220.6645 502.8928)" fill="#181818" font-family="'Arial-BoldMT'" font-size="9.2418px">Ilionis</text>
<ellipse fill="#C4C4C4" stroke="#000000" cx="216.957" cy="418.935" rx="3.851" ry="3.873"/>
<text transform="matrix(-4.297502e-07 -1.0057 1 -4.862650e-07 234.8271 508.5744)" fill="#181818" font-family="'Arial-BoldMT'" font-size="9.2418px">Indiana</text>
<ellipse fill="#C4C4C4" stroke="#000000" cx="231.121" cy="400.225" rx="3.851" ry="3.873"/>
<text transform="matrix(-4.297502e-07 -1.0057 1 -4.862650e-07 248.9912 509.1057)" fill="#181818" font-family="'Arial-BoldMT'" font-size="9.2418px">Kansas</text>
<ellipse fill="#C4C4C4" stroke="#000000" cx="245.284" cy="435.939" rx="3.851" ry="3.873"/>
<text transform="matrix(-4.297502e-07 -1.0057 1 -4.862650e-07 263.1548 539.5627)" fill="#181818" font-family="'Arial-BoldMT'" font-size="9.2418px">Rhodes Island</text>
<ellipse fill="#C4C4C4" stroke="#000000" cx="259.448" cy="459.744" rx="3.851" ry="3.873"/>
<text transform="matrix(-4.297502e-07 -1.0057 1 -4.862650e-07 277.3183 542.1359)" fill="#181818" font-family="'Arial-BoldMT'" font-size="9.2418px">South Carolina</text>
<ellipse fill="#C4C4C4" stroke="#000000" cx="273.612" cy="420.63" rx="3.851" ry="3.873"/>
<text transform="matrix(-4.297502e-07 -1.0057 1 -4.862650e-07 291.4819 535.9416)" fill="#181818" font-family="'Arial-BoldMT'" font-size="9.2418px">South Dakota</text>
<ellipse fill="#C4C4C4" stroke="#000000" cx="287.775" cy="449.542" rx="3.851" ry="3.873"/>
<text transform="matrix(-4.297502e-07 -1.0057 1 -4.862650e-07 305.6445 523.3976)" fill="#181818" font-family="'Arial-BoldMT'" font-size="9.2418px">T</text>
<text transform="matrix(-4.297502e-07 -1.0057 1 -4.862650e-07 305.6445 518.4103)" fill="#181818" font-family="'Arial-BoldMT'" font-size="9.2418px">e</text>
<text transform="matrix(-4.297502e-07 -1.0057 1 -4.862650e-07 305.6445 513.2404)" fill="#181818" font-family="'Arial-BoldMT'" font-size="9.2418px">n</text>
<text transform="matrix(-4.297502e-07 -1.0057 1 -4.862650e-07 305.6445 507.5636)" fill="#181818" font-family="'Arial-BoldMT'" font-size="9.2418px">n</text>
<text transform="matrix(-4.297502e-07 -1.0057 1 -4.862650e-07 305.6445 501.8859)" fill="#181818" font-family="'Arial-BoldMT'" font-size="9.2418px">e</text>
<text transform="matrix(-4.297502e-07 -1.0057 1 -4.862650e-07 305.6445 496.7169)" fill="#181818" font-family="'Arial-BoldMT'" font-size="9.2418px">s</text>
<text transform="matrix(-4.297502e-07 -1.0057 1 -4.862650e-07 305.6445 491.547)" fill="#181818" font-family="'Arial-BoldMT'" font-size="9.2418px">s</text>
<text transform="matrix(-4.297502e-07 -1.0057 1 -4.862650e-07 305.6445 486.3781)" fill="#181818" font-family="'Arial-BoldMT'" font-size="9.2418px">e</text>
<text transform="matrix(-4.297502e-07 -1.0057 1 -4.862650e-07 305.6445 481.2091)" fill="#181818" font-family="'Arial-BoldMT'" font-size="9.2418px">e</text>
<ellipse fill="#C4C4C4" stroke="#000000" cx="301.939" cy="383.221" rx="3.851" ry="3.873"/>
<text transform="matrix(-4.297502e-07 -1.0057 1 -4.862650e-07 319.8095 501.7033)" fill="#181818" font-family="'Arial-BoldMT'" font-size="9.2418px">T</text>
<text transform="matrix(-4.297502e-07 -1.0057 1 -4.862650e-07 319.8095 496.716)" fill="#181818" font-family="'Arial-BoldMT'" font-size="9.2418px">e</text>
<text transform="matrix(-4.297502e-07 -1.0057 1 -4.862650e-07 319.8095 491.5461)" fill="#181818" font-family="'Arial-BoldMT'" font-size="9.2418px">x</text>
<text transform="matrix(-4.297502e-07 -1.0057 1 -4.862650e-07 319.8095 486.3771)" fill="#181818" font-family="'Arial-BoldMT'" font-size="9.2418px">a</text>
<text transform="matrix(-4.297502e-07 -1.0057 1 -4.862650e-07 319.8095 481.2082)" fill="#181818" font-family="'Arial-BoldMT'" font-size="9.2418px">s</text>
<ellipse fill="#C4C4C4" stroke="#000000" cx="316.102" cy="243.79" rx="3.851" ry="3.873"/>
<text transform="matrix(1.0047 -0.046 0.0458 0.999 34.7572 464.0191)" fill="#A2A2A2" font-family="'Arial-BoldMT'" font-size="9.2418px">0</text>
<text transform="matrix(1.0051 0.0347 -0.0345 0.9994 29.4504 391.0919)" fill="#A2A2A2" font-family="'Arial-Black'" font-size="9.2418px">50</text>
<text transform="matrix(1.0051 0.0347 -0.0345 0.9994 24.2862 304.1594)" fill="#A2A2A2" font-family="'Arial-Black'" font-size="9.2418px">100</text>
<text transform="matrix(1.0051 0.0347 -0.0345 0.9994 18.0983 216.7797)" fill="#A2A2A2" font-family="'Arial-Black'" font-size="9.2418px"> 150</text>
<text transform="matrix(1.0051 0.0347 -0.0345 0.9994 24.2862 135.6385)" fill="#A2A2A2" font-family="'Arial-Black'" font-size="9.2418px">200</text>
<text transform="matrix(1.0057 0 0 1 6.4736 59.3974)" fill="#A2A2A2" font-family="'Arial-Black'" font-size="9.2418px">       250</text>
<text transform="matrix(-4.297502e-07 -1.0057 1 -4.862650e-07 351.3144 488.67)" fill="#888888" font-family="'ArialMT'" font-size="8.4717px">​</text>
<text transform="matrix(-4.297502e-07 -1.0057 1 -4.862650e-07 351.3144 488.67)" fill="#888888" font-family="'ArialMT'" font-size="8.4717px"> </text>
<text transform="matrix(-4.297502e-07 -1.0057 1 -4.862650e-07 351.3144 486.3029)" fill="#888888" font-family="'ArialMT'" font-size="8.4717px">​</text>
<line fill="none" stroke="#000000" x1="55.623" y1="461.439" x2="53.384" y2="34.065"/>
<text transform="matrix(1.0057 0 0 1 152.0811 46.6011)" fill="#181818" font-family="'ArialMT'" font-size="9.2418px">California</text>
<path fill="none" d="M106.521,62.473c0.549-2.352,0.832-4.77,0.834-7.193"/>
<path fill="none" d="M79.172,85.342c1.877,0,3.753-0.196,5.593-0.591"/>
<path fill="none" d="M82.368,93.835c-0.95,3.445-1.389,7.045-1.387,10.633"/>
<path fill="none" d="M92.993,79.028c-1.202,0.562-2.325,1.302-3.344,2.184"/>
<path fill="none" stroke="#C6C6C6" d="M143.229,40.601c-0.102,0.141-0.183,0.283-0.265,0.426c-4.034,0.363-8.812,2.243-11.438,3.473
	c-3.324,1.557-6.177,3.537-8.017,5.94c-0.464,0.28-0.898,0.618-1.276,1.04c-2.539,2.835-4.235,7.934-3.363,11.489
	c-0.099,0.032-0.198,0.063-0.296,0.098c-0.1-0.68-0.169-1.366-0.169-2.064C118.405,50.923,129.069,42.519,143.229,40.601z"/>
</svg>
