<?xml version="1.0" encoding="utf-8"?>
<!-- Generator: Adobe Illustrator 26.4.1, SVG Export Plug-In . SVG Version: 6.00 Build 0)  -->
<svg version="1.2" baseProfile="tiny" id="g-dotplot_ai-Artboard_1-interactives-img" xmlns="http://www.w3.org/2000/svg" xmlns:xlink="http://www.w3.org/1999/xlink"
	 x="0px" y="0px" viewBox="0 0 662 432" overflow="visible" xml:space="preserve">
<g>
	<g id="red-dot_00000021120650116194170130000000388134286427939767_">
		
			<ellipse id="dot-desk_00000126322964458715960070000003800533670555591864_" fill="#F7081F" stroke="#000000" cx="584.951" cy="110.494" rx="4.688" ry="4.973"/>
		<path id="path-desk_00000003071443885420521150000011251464940258275497_" fill="none" stroke="#C6C6C6" d="M566.131,74.127
			c0.086,0.163,0.155,0.328,0.225,0.493c3.419,0.42,7.468,2.596,9.693,4.02c2.817,1.802,5.234,4.093,6.793,6.874
			c0.393,0.323,0.761,0.715,1.081,1.203c2.152,3.281,3.589,9.182,2.85,13.297c0.084,0.037,0.168,0.072,0.251,0.114
			c0.085-0.787,0.143-1.581,0.143-2.389C587.168,86.073,578.131,76.347,566.131,74.127z"/>
		
			<ellipse id="dot_00000070082755485100708280000002001630952929634999_" fill="#F7081F" stroke="#000000" cx="117.812" cy="596.44" rx="3.851" ry="3.873"/>
		
			<text id="text_00000142894273381887345660000013733769379516980401_" transform="matrix(1.0057 0 0 1 152.0811 570.8992)" fill="#181818" font-family="'ArialMT'" font-size="9.2418px">California</text>
		<path id="path_00000146491188563884220080000013781762137350225589_" fill="none" stroke="#C6C6C6" d="M143.229,584.899
			c-0.102,0.141-0.183,0.284-0.265,0.426c-4.034,0.363-8.812,2.243-11.438,3.473c-3.324,1.557-6.177,3.537-8.017,5.94
			c-0.464,0.28-0.898,0.618-1.276,1.04c-2.539,2.835-4.235,7.934-3.363,11.489c-0.099,0.032-0.198,0.063-0.296,0.098
			c-0.1-0.68-0.169-1.366-0.169-2.064C118.405,595.221,129.069,586.817,143.229,584.899z"/>
	</g>
</g>
<style>
#g-dotplot_ai-Artboard_1-interactives-img rect, #g-dotplot_ai-Artboard_1-interactives-img circle, #g-dotplot_ai-Artboard_1-interactives-img path, #g-dotplot_ai-Artboard_1-interactives-img line, #g-dotplot_ai-Artboard_1-interactives-img polyline, #g-dotplot_ai-Artboard_1-interactives-img polygon { vector-effect: non-scaling-stroke; }
</style>
</svg>

