<?xml version="1.0" encoding="utf-8"?>
<!-- Generator: Adobe Illustrator 26.4.1, SVG Export Plug-In . SVG Version: 6.00 Build 0)  -->
<svg version="1.2" baseProfile="tiny" id="g-illustration-laptop-interactive-img" xmlns="http://www.w3.org/2000/svg" xmlns:xlink="http://www.w3.org/1999/xlink"
	 x="0px" y="0px" viewBox="0 0 981.764 636.639" overflow="visible" xml:space="preserve">
<g>
	<g id="toy-gun_00000177474473584124923090000006034455215357136822_">
		<path fill="#F8ABA1" d="M32.361,95.027c0,3.51-2.87,6.35-6.41,6.35s-6.41-2.84-6.41-6.35s2.87-6.35,6.41-6.35
			S32.361,91.517,32.361,95.027"/>
		<path fill="#F8ABA1" d="M418.291,110.587v12.96c0,1.23-1.01,2.23-2.25,2.23s-2.25-1-2.25-2.23v-11.95c0-0.22-0.18-0.4-0.41-0.4
			s-0.41,0.18-0.41,0.4v34.63c0,1.67-1.36,3.02-3.05,3.02c-1.68,0-3.05-1.35-3.05-3.02v-18.5c0-0.3-0.25-0.55-0.56-0.55
			s-0.56,0.25-0.56,0.55v18.5c0,1.67-1.36,3.02-3.05,3.02c-1.68,0-3.05-1.35-3.05-3.02v-34.78c0-0.22-0.18-0.4-0.41-0.4
			s-0.41,0.18-0.41,0.4v12.1c0,1.23-1.01,2.23-2.25,2.23s-2.25-1-2.25-2.23v-12.96c0-4.58,3.75-8.29,8.37-8.29h7.2
			C414.541,102.297,418.291,106.007,418.291,110.587"/>
		<path fill="#F8ABA1" d="M412.731,95.027c0,3.51-2.87,6.35-6.41,6.35s-6.41-2.84-6.41-6.35s2.87-6.35,6.41-6.35
			S412.731,91.517,412.731,95.027"/>
		<path fill="#F8ABA1" d="M67.181,110.587v12.96c0,1.23-1.01,2.23-2.25,2.23c-1.24,0-2.25-1-2.25-2.23v-11.95
			c0-0.22-0.18-0.4-0.41-0.4s-0.41,0.18-0.41,0.4v34.63c0,1.67-1.37,3.02-3.05,3.02s-3.05-1.35-3.05-3.02v-18.5
			c0-0.3-0.25-0.55-0.56-0.55s-0.56,0.25-0.56,0.55v18.5c0,1.67-1.37,3.02-3.05,3.02s-3.05-1.35-3.05-3.02v-34.78
			c0-0.22-0.18-0.4-0.41-0.4s-0.41,0.18-0.41,0.4v12.1c0,1.23-1.01,2.23-2.25,2.23s-2.25-1-2.25-2.23v-12.96
			c0-4.58,3.75-8.29,8.37-8.29h7.2C63.441,102.297,67.181,106.007,67.181,110.587"/>
		<path fill="#F8ABA1" d="M61.621,95.027c0,3.51-2.87,6.35-6.41,6.35s-6.41-2.84-6.41-6.35s2.87-6.35,6.41-6.35
			S61.621,91.517,61.621,95.027"/>
		<path fill="#F8ABA1" d="M447.551,110.587v12.96c0,1.23-1.01,2.23-2.25,2.23s-2.25-1-2.25-2.23v-11.95c0-0.22-0.18-0.4-0.41-0.4
			s-0.41,0.18-0.41,0.4v34.63c0,1.67-1.36,3.02-3.05,3.02c-1.68,0-3.05-1.35-3.05-3.02v-18.5c0-0.3-0.25-0.55-0.56-0.55
			s-0.56,0.25-0.56,0.55v18.5c0,1.67-1.36,3.02-3.05,3.02c-1.68,0-3.05-1.35-3.05-3.02v-34.78c0-0.22-0.18-0.4-0.41-0.4
			s-0.41,0.18-0.41,0.4v12.1c0,1.23-1.01,2.23-2.25,2.23s-2.25-1-2.25-2.23v-12.96c0-4.58,3.75-8.29,8.37-8.29h7.2
			C443.801,102.297,447.551,106.007,447.551,110.587"/>
		<path fill="#F8ABA1" d="M441.991,95.027c0,3.51-2.87,6.35-6.41,6.35s-6.41-2.84-6.41-6.35s2.87-6.35,6.41-6.35
			C439.121,88.677,441.991,91.517,441.991,95.027"/>
		<path fill="#F8ABA1" d="M96.441,110.587v12.96c0,1.23-1.01,2.23-2.25,2.23s-2.25-1-2.25-2.23v-11.95c0-0.22-0.18-0.4-0.41-0.4
			s-0.41,0.18-0.41,0.4v34.63c0,1.67-1.37,3.02-3.05,3.02s-3.05-1.35-3.05-3.02v-18.5c0-0.3-0.25-0.55-0.56-0.55
			s-0.56,0.25-0.56,0.55v18.5c0,1.67-1.36,3.02-3.05,3.02c-1.68,0-3.05-1.35-3.05-3.02v-34.78c0-0.22-0.18-0.4-0.41-0.4
			s-0.41,0.18-0.41,0.4v12.1c0,1.23-1.01,2.23-2.25,2.23s-2.25-1-2.25-2.23v-12.96c0-4.58,3.75-8.29,8.37-8.29h7.2
			C92.691,102.297,96.441,106.007,96.441,110.587"/>
		<path fill="#F8ABA1" d="M90.881,95.027c0,3.51-2.87,6.35-6.41,6.35s-6.41-2.84-6.41-6.35s2.87-6.35,6.41-6.35
			S90.881,91.517,90.881,95.027"/>
		<path fill="#F8ABA1" d="M476.811,110.587v12.96c0,1.23-1.01,2.23-2.25,2.23s-2.25-1-2.25-2.23v-11.95c0-0.22-0.18-0.4-0.41-0.4
			s-0.41,0.18-0.41,0.4v34.63c0,1.67-1.36,3.02-3.05,3.02c-1.68,0-3.05-1.35-3.05-3.02v-18.5c0-0.3-0.25-0.55-0.56-0.55
			s-0.56,0.25-0.56,0.55v18.5c0,1.67-1.36,3.02-3.05,3.02c-1.68,0-3.05-1.35-3.05-3.02v-34.78c0-0.22-0.18-0.4-0.41-0.4
			s-0.41,0.18-0.41,0.4v12.1c0,1.23-1.01,2.23-2.25,2.23s-2.25-1-2.25-2.23v-12.96c0-4.58,3.75-8.29,8.37-8.29h7.2
			C473.061,102.297,476.811,106.007,476.811,110.587"/>
		<path fill="#F8ABA1" d="M471.251,95.027c0,3.51-2.87,6.35-6.41,6.35s-6.41-2.84-6.41-6.35s2.87-6.35,6.41-6.35
			C468.371,88.677,471.251,91.517,471.251,95.027"/>
		<path fill="#F8ABA1" d="M125.701,110.587v12.96c0,1.23-1.01,2.23-2.25,2.23s-2.25-1-2.25-2.23v-11.95c0-0.22-0.18-0.4-0.41-0.4
			s-0.41,0.18-0.41,0.4v34.63c0,1.67-1.37,3.02-3.05,3.02s-3.05-1.35-3.05-3.02v-18.5c0-0.3-0.25-0.55-0.56-0.55
			s-0.56,0.25-0.56,0.55v18.5c0,1.67-1.36,3.02-3.05,3.02c-1.68,0-3.05-1.35-3.05-3.02v-34.78c0-0.22-0.18-0.4-0.41-0.4
			s-0.41,0.18-0.41,0.4v12.1c0,1.23-1.01,2.23-2.25,2.23s-2.25-1-2.25-2.23v-12.96c0-4.58,3.75-8.29,8.37-8.29h7.2
			C121.951,102.297,125.701,106.007,125.701,110.587"/>
		<path fill="#F8ABA1" d="M120.141,95.027c0,3.51-2.87,6.35-6.41,6.35s-6.41-2.84-6.41-6.35s2.87-6.35,6.41-6.35
			S120.141,91.517,120.141,95.027"/>
		<path fill="#F8ABA1" d="M506.071,110.587v12.96c0,1.23-1.01,2.23-2.25,2.23s-2.25-1-2.25-2.23v-11.95c0-0.22-0.18-0.4-0.41-0.4
			s-0.41,0.18-0.41,0.4v34.63c0,1.67-1.36,3.02-3.05,3.02c-1.68,0-3.05-1.35-3.05-3.02v-18.5c0-0.3-0.25-0.55-0.56-0.55
			s-0.56,0.25-0.56,0.55v18.5c0,1.67-1.36,3.02-3.05,3.02c-1.68,0-3.05-1.35-3.05-3.02v-34.78c0-0.22-0.18-0.4-0.41-0.4
			s-0.41,0.18-0.41,0.4v12.1c0,1.23-1.01,2.23-2.25,2.23s-2.25-1-2.25-2.23v-12.96c0-4.58,3.75-8.29,8.37-8.29h7.2
			C502.321,102.297,506.071,106.007,506.071,110.587"/>
		<path fill="#F8ABA1" d="M500.511,95.027c0,3.51-2.87,6.35-6.41,6.35s-6.41-2.84-6.41-6.35s2.87-6.35,6.41-6.35
			C497.631,88.677,500.511,91.517,500.511,95.027"/>
		<path fill="#F8ABA1" d="M154.961,110.587v12.96c0,1.23-1.01,2.23-2.25,2.23s-2.25-1-2.25-2.23v-11.95c0-0.22-0.18-0.4-0.41-0.4
			s-0.41,0.18-0.41,0.4v34.63c0,1.67-1.37,3.02-3.05,3.02c-1.68,0-3.05-1.35-3.05-3.02v-18.5c0-0.3-0.25-0.55-0.56-0.55
			s-0.56,0.25-0.56,0.55v18.5c0,1.67-1.36,3.02-3.05,3.02s-3.05-1.35-3.05-3.02v-34.78c0-0.22-0.18-0.4-0.41-0.4
			s-0.41,0.18-0.41,0.4v12.1c0,1.23-1.01,2.23-2.25,2.23s-2.25-1-2.25-2.23v-12.96c0-4.58,3.75-8.29,8.37-8.29h7.2
			C151.211,102.297,154.961,106.007,154.961,110.587"/>
		<path fill="#F8ABA1" d="M149.401,95.027c0,3.51-2.87,6.35-6.41,6.35s-6.41-2.84-6.41-6.35s2.87-6.35,6.41-6.35
			S149.401,91.517,149.401,95.027"/>
		<path fill="#F8ABA1" d="M535.331,110.587v12.96c0,1.23-1.01,2.23-2.25,2.23s-2.25-1-2.25-2.23v-11.95c0-0.22-0.18-0.4-0.41-0.4
			s-0.41,0.18-0.41,0.4v34.63c0,1.67-1.36,3.02-3.05,3.02c-1.68,0-3.05-1.35-3.05-3.02v-18.5c0-0.3-0.25-0.55-0.56-0.55
			s-0.56,0.25-0.56,0.55v18.5c0,1.67-1.36,3.02-3.05,3.02s-3.05-1.35-3.05-3.02v-34.78c0-0.22-0.18-0.4-0.41-0.4
			c-0.23,0-0.41,0.18-0.41,0.4v12.1c0,1.23-1.01,2.23-2.25,2.23s-2.25-1-2.25-2.23v-12.96c0-4.58,3.75-8.29,8.37-8.29h7.2
			C531.581,102.297,535.331,106.007,535.331,110.587"/>
		<path fill="#F8ABA1" d="M529.761,95.027c0,3.51-2.87,6.35-6.41,6.35s-6.41-2.84-6.41-6.35s2.87-6.35,6.41-6.35
			S529.761,91.517,529.761,95.027"/>
		<path fill="#F8ABA1" d="M184.221,110.587v12.96c0,1.23-1.01,2.23-2.25,2.23s-2.25-1-2.25-2.23v-11.95c0-0.22-0.18-0.4-0.41-0.4
			s-0.41,0.18-0.41,0.4v34.63c0,1.67-1.37,3.02-3.05,3.02c-1.68,0-3.05-1.35-3.05-3.02v-18.5c0-0.3-0.25-0.55-0.56-0.55
			s-0.56,0.25-0.56,0.55v18.5c0,1.67-1.37,3.02-3.05,3.02c-1.68,0-3.05-1.35-3.05-3.02v-34.78c0-0.22-0.18-0.4-0.41-0.4
			c-0.23,0-0.41,0.18-0.41,0.4v12.1c0,1.23-1.01,2.23-2.25,2.23s-2.25-1-2.25-2.23v-12.96c0-4.58,3.75-8.29,8.37-8.29h7.2
			C180.471,102.297,184.221,106.007,184.221,110.587"/>
		<path fill="#F8ABA1" d="M178.661,95.027c0,3.51-2.87,6.35-6.41,6.35c-3.54,0-6.41-2.84-6.41-6.35s2.87-6.35,6.41-6.35
			S178.661,91.517,178.661,95.027"/>
		<path fill="#F8ABA1" d="M564.581,110.587v12.96c0,1.23-1.01,2.23-2.25,2.23s-2.25-1-2.25-2.23v-11.95c0-0.22-0.18-0.4-0.41-0.4
			s-0.41,0.18-0.41,0.4v34.63c0,1.67-1.36,3.02-3.05,3.02c-1.68,0-3.05-1.35-3.05-3.02v-18.5c0-0.3-0.25-0.55-0.56-0.55
			s-0.56,0.25-0.56,0.55v18.5c0,1.67-1.36,3.02-3.05,3.02s-3.05-1.35-3.05-3.02v-34.78c0-0.22-0.18-0.4-0.41-0.4
			s-0.41,0.18-0.41,0.4v12.1c0,1.23-1.01,2.23-2.25,2.23s-2.25-1-2.25-2.23v-12.96c0-4.58,3.75-8.29,8.37-8.29h7.2
			C560.831,102.297,564.581,106.007,564.581,110.587"/>
		<path fill="#F8ABA1" d="M559.021,95.027c0,3.51-2.87,6.35-6.41,6.35s-6.41-2.84-6.41-6.35s2.87-6.35,6.41-6.35
			S559.021,91.517,559.021,95.027"/>
		<path fill="#F8ABA1" d="M213.481,110.587v12.96c0,1.23-1.01,2.23-2.25,2.23s-2.25-1-2.25-2.23v-11.95c0-0.22-0.18-0.4-0.41-0.4
			s-0.41,0.18-0.41,0.4v34.63c0,1.67-1.37,3.02-3.05,3.02c-1.68,0-3.05-1.35-3.05-3.02v-18.5c0-0.3-0.25-0.55-0.56-0.55
			s-0.56,0.25-0.56,0.55v18.5c0,1.67-1.37,3.02-3.05,3.02c-1.68,0-3.05-1.35-3.05-3.02v-34.78c0-0.22-0.18-0.4-0.41-0.4
			c-0.23,0-0.41,0.18-0.41,0.4v12.1c0,1.23-1.01,2.23-2.25,2.23s-2.25-1-2.25-2.23v-12.96c0-4.58,3.75-8.29,8.37-8.29h7.2
			C209.731,102.297,213.481,106.007,213.481,110.587"/>
		<path fill="#F8ABA1" d="M207.921,95.027c0,3.51-2.87,6.35-6.41,6.35c-3.54,0-6.41-2.84-6.41-6.35s2.87-6.35,6.41-6.35
			C205.051,88.677,207.921,91.517,207.921,95.027"/>
		<path fill="#F8ABA1" d="M593.841,110.587v12.96c0,1.23-1.01,2.23-2.25,2.23s-2.25-1-2.25-2.23v-11.95c0-0.22-0.18-0.4-0.41-0.4
			s-0.41,0.18-0.41,0.4v34.63c0,1.67-1.36,3.02-3.05,3.02c-1.68,0-3.05-1.35-3.05-3.02v-18.5c0-0.3-0.25-0.55-0.56-0.55
			s-0.56,0.25-0.56,0.55v18.5c0,1.67-1.36,3.02-3.05,3.02s-3.05-1.35-3.05-3.02v-34.78c0-0.22-0.18-0.4-0.41-0.4
			s-0.41,0.18-0.41,0.4v12.1c0,1.23-1.01,2.23-2.25,2.23s-2.25-1-2.25-2.23v-12.96c0-4.58,3.75-8.29,8.37-8.29h7.2
			C590.091,102.297,593.841,106.007,593.841,110.587"/>
		<path fill="#F8ABA1" d="M588.281,95.027c0,3.51-2.87,6.35-6.41,6.35s-6.41-2.84-6.41-6.35s2.87-6.35,6.41-6.35
			S588.281,91.517,588.281,95.027"/>
		<path fill="#F8ABA1" d="M242.741,110.587v12.96c0,1.23-1.01,2.23-2.25,2.23s-2.25-1-2.25-2.23v-11.95c0-0.22-0.18-0.4-0.41-0.4
			s-0.41,0.18-0.41,0.4v34.63c0,1.67-1.37,3.02-3.05,3.02c-1.68,0-3.05-1.35-3.05-3.02v-18.5c0-0.3-0.25-0.55-0.56-0.55
			s-0.56,0.25-0.56,0.55v18.5c0,1.67-1.37,3.02-3.05,3.02c-1.68,0-3.05-1.35-3.05-3.02v-34.78c0-0.22-0.18-0.4-0.41-0.4
			c-0.23,0-0.41,0.18-0.41,0.4v12.1c0,1.23-1.01,2.23-2.25,2.23s-2.25-1-2.25-2.23v-12.96c0-4.58,3.75-8.29,8.37-8.29h7.2
			C238.991,102.297,242.741,106.007,242.741,110.587"/>
		<path fill="#F8ABA1" d="M237.181,95.027c0,3.51-2.87,6.35-6.41,6.35c-3.54,0-6.41-2.84-6.41-6.35s2.87-6.35,6.41-6.35
			C234.301,88.677,237.181,91.517,237.181,95.027"/>
		<path fill="#F8ABA1" d="M623.101,110.587v12.96c0,1.23-1.01,2.23-2.25,2.23s-2.25-1-2.25-2.23v-11.95c0-0.22-0.18-0.4-0.41-0.4
			s-0.41,0.18-0.41,0.4v34.63c0,1.67-1.36,3.02-3.05,3.02c-1.68,0-3.05-1.35-3.05-3.02v-18.5c0-0.3-0.25-0.55-0.56-0.55
			s-0.56,0.25-0.56,0.55v18.5c0,1.67-1.36,3.02-3.05,3.02s-3.05-1.35-3.05-3.02v-34.78c0-0.22-0.18-0.4-0.41-0.4
			s-0.41,0.18-0.41,0.4v12.1c0,1.23-1.01,2.23-2.25,2.23s-2.25-1-2.25-2.23v-12.96c0-4.58,3.75-8.29,8.37-8.29h7.2
			C619.351,102.297,623.101,106.007,623.101,110.587"/>
		<path fill="#F8ABA1" d="M617.541,95.027c0,3.51-2.87,6.35-6.41,6.35s-6.41-2.84-6.41-6.35s2.87-6.35,6.41-6.35
			C614.671,88.677,617.541,91.517,617.541,95.027"/>
		<path fill="#F8ABA1" d="M272.001,110.587v12.96c0,1.23-1.01,2.23-2.25,2.23s-2.25-1-2.25-2.23v-11.95c0-0.22-0.18-0.4-0.41-0.4
			s-0.41,0.18-0.41,0.4v34.63c0,1.67-1.37,3.02-3.05,3.02s-3.05-1.35-3.05-3.02v-18.5c0-0.3-0.25-0.55-0.56-0.55
			s-0.56,0.25-0.56,0.55v18.5c0,1.67-1.37,3.02-3.05,3.02c-1.68,0-3.05-1.35-3.05-3.02v-34.78c0-0.22-0.18-0.4-0.41-0.4
			c-0.23,0-0.41,0.18-0.41,0.4v12.1c0,1.23-1.01,2.23-2.25,2.23s-2.25-1-2.25-2.23v-12.96c0-4.58,3.75-8.29,8.37-8.29h7.2
			C268.251,102.297,272.001,106.007,272.001,110.587"/>
		<path fill="#F8ABA1" d="M266.431,95.027c0,3.51-2.87,6.35-6.41,6.35c-3.54,0-6.41-2.84-6.41-6.35s2.87-6.35,6.41-6.35
			C263.561,88.677,266.431,91.517,266.431,95.027"/>
		<path fill="#F8ABA1" d="M652.361,110.587v12.96c0,1.23-1.01,2.23-2.25,2.23s-2.25-1-2.25-2.23v-11.95c0-0.22-0.18-0.4-0.41-0.4
			s-0.41,0.18-0.41,0.4v34.63c0,1.67-1.36,3.02-3.05,3.02c-1.68,0-3.05-1.35-3.05-3.02v-18.5c0-0.3-0.25-0.55-0.56-0.55
			s-0.56,0.25-0.56,0.55v18.5c0,1.67-1.36,3.02-3.05,3.02s-3.05-1.35-3.05-3.02v-34.78c0-0.22-0.18-0.4-0.41-0.4
			s-0.41,0.18-0.41,0.4v12.1c0,1.23-1.01,2.23-2.25,2.23s-2.25-1-2.25-2.23v-12.96c0-4.58,3.75-8.29,8.37-8.29h7.2
			C648.611,102.297,652.361,106.007,652.361,110.587"/>
		<path fill="#F8ABA1" d="M646.801,95.027c0,3.51-2.87,6.35-6.41,6.35s-6.41-2.84-6.41-6.35s2.87-6.35,6.41-6.35
			S646.801,91.517,646.801,95.027"/>
		<path fill="#F8ABA1" d="M301.251,110.587v12.96c0,1.23-1.01,2.23-2.25,2.23s-2.25-1-2.25-2.23v-11.95c0-0.22-0.18-0.4-0.41-0.4
			s-0.41,0.18-0.41,0.4v34.63c0,1.67-1.36,3.02-3.05,3.02c-1.68,0-3.05-1.35-3.05-3.02v-18.5c0-0.3-0.25-0.55-0.56-0.55
			s-0.56,0.25-0.56,0.55v18.5c0,1.67-1.36,3.02-3.05,3.02c-1.68,0-3.05-1.35-3.05-3.02v-34.78c0-0.22-0.18-0.4-0.41-0.4
			s-0.41,0.18-0.41,0.4v12.1c0,1.23-1.01,2.23-2.25,2.23s-2.25-1-2.25-2.23v-12.96c0-4.58,3.75-8.29,8.37-8.29h7.2
			C297.511,102.297,301.251,106.007,301.251,110.587"/>
		<path fill="#F8ABA1" d="M295.691,95.027c0,3.51-2.87,6.35-6.41,6.35s-6.41-2.84-6.41-6.35s2.87-6.35,6.41-6.35
			S295.691,91.517,295.691,95.027"/>
		<path fill="#F8ABA1" d="M681.621,110.587v12.96c0,1.23-1.01,2.23-2.25,2.23s-2.25-1-2.25-2.23v-11.95c0-0.22-0.18-0.4-0.41-0.4
			s-0.41,0.18-0.41,0.4v34.63c0,1.67-1.36,3.02-3.05,3.02c-1.68,0-3.05-1.35-3.05-3.02v-18.5c0-0.3-0.25-0.55-0.56-0.55
			s-0.56,0.25-0.56,0.55v18.5c0,1.67-1.36,3.02-3.05,3.02s-3.05-1.35-3.05-3.02v-34.78c0-0.22-0.18-0.4-0.41-0.4
			s-0.41,0.18-0.41,0.4v12.1c0,1.23-1.01,2.23-2.25,2.23s-2.25-1-2.25-2.23v-12.96c0-4.58,3.75-8.29,8.37-8.29h7.2
			C677.871,102.297,681.621,106.007,681.621,110.587"/>
		<path fill="#F8ABA1" d="M676.061,95.027c0,3.51-2.87,6.35-6.41,6.35s-6.41-2.84-6.41-6.35s2.87-6.35,6.41-6.35
			S676.061,91.517,676.061,95.027"/>
		<path fill="#F8ABA1" d="M330.511,110.587v12.96c0,1.23-1.01,2.23-2.25,2.23s-2.25-1-2.25-2.23v-11.95c0-0.22-0.18-0.4-0.41-0.4
			s-0.41,0.18-0.41,0.4v34.63c0,1.67-1.36,3.02-3.05,3.02c-1.68,0-3.05-1.35-3.05-3.02v-18.5c0-0.3-0.25-0.55-0.56-0.55
			s-0.56,0.25-0.56,0.55v18.5c0,1.67-1.36,3.02-3.05,3.02c-1.68,0-3.05-1.35-3.05-3.02v-34.78c0-0.22-0.18-0.4-0.41-0.4
			s-0.41,0.18-0.41,0.4v12.1c0,1.23-1.01,2.23-2.25,2.23s-2.25-1-2.25-2.23v-12.96c0-4.58,3.75-8.29,8.37-8.29h7.2
			C326.761,102.297,330.511,106.007,330.511,110.587"/>
		<path fill="#F8ABA1" d="M324.951,95.027c0,3.51-2.87,6.35-6.41,6.35s-6.41-2.84-6.41-6.35s2.87-6.35,6.41-6.35
			S324.951,91.517,324.951,95.027"/>
		<path fill="#F8ABA1" d="M710.881,110.587v12.96c0,1.23-1.01,2.23-2.25,2.23s-2.25-1-2.25-2.23v-11.95c0-0.22-0.18-0.4-0.41-0.4
			s-0.41,0.18-0.41,0.4v34.63c0,1.67-1.36,3.02-3.05,3.02c-1.68,0-3.05-1.35-3.05-3.02v-18.5c0-0.3-0.25-0.55-0.56-0.55
			s-0.56,0.25-0.56,0.55v18.5c0,1.67-1.36,3.02-3.05,3.02s-3.05-1.35-3.05-3.02v-34.78c0-0.22-0.18-0.4-0.41-0.4
			s-0.41,0.18-0.41,0.4v12.1c0,1.23-1.01,2.23-2.25,2.23s-2.25-1-2.25-2.23v-12.96c0-4.58,3.75-8.29,8.37-8.29h7.2
			C707.131,102.297,710.881,106.007,710.881,110.587"/>
		<path fill="#F8ABA1" d="M705.321,95.027c0,3.51-2.87,6.35-6.41,6.35s-6.41-2.84-6.41-6.35s2.87-6.35,6.41-6.35
			C702.441,88.677,705.321,91.517,705.321,95.027"/>
		<path fill="#F8ABA1" d="M798.651,110.587v12.96c0,1.23-1.01,2.23-2.25,2.23s-2.25-1-2.25-2.23v-11.95c0-0.22-0.18-0.4-0.41-0.4
			s-0.41,0.18-0.41,0.4v34.63c0,1.67-1.36,3.02-3.05,3.02c-1.68,0-3.05-1.35-3.05-3.02v-18.5c0-0.3-0.25-0.55-0.56-0.55
			s-0.56,0.25-0.56,0.55v18.5c0,1.67-1.36,3.02-3.05,3.02s-3.05-1.35-3.05-3.02v-34.78c0-0.22-0.18-0.4-0.41-0.4
			s-0.41,0.18-0.41,0.4v12.1c0,1.23-1.01,2.23-2.25,2.23s-2.25-1-2.25-2.23v-12.96c0-4.58,3.75-8.29,8.37-8.29h7.2
			C794.911,102.297,798.651,106.007,798.651,110.587"/>
		<path fill="#F8ABA1" d="M793.091,95.027c0,3.51-2.87,6.35-6.41,6.35s-6.41-2.84-6.41-6.35s2.87-6.35,6.41-6.35
			S793.091,91.517,793.091,95.027"/>
		<path fill="#F8ABA1" d="M359.771,110.587v12.96c0,1.23-1.01,2.23-2.25,2.23s-2.25-1-2.25-2.23v-11.95c0-0.22-0.18-0.4-0.41-0.4
			s-0.41,0.18-0.41,0.4v34.63c0,1.67-1.36,3.02-3.05,3.02c-1.68,0-3.05-1.35-3.05-3.02v-18.5c0-0.3-0.25-0.55-0.56-0.55
			s-0.56,0.25-0.56,0.55v18.5c0,1.67-1.36,3.02-3.05,3.02c-1.68,0-3.05-1.35-3.05-3.02v-34.78c0-0.22-0.18-0.4-0.41-0.4
			s-0.41,0.18-0.41,0.4v12.1c0,1.23-1.01,2.23-2.25,2.23s-2.25-1-2.25-2.23v-12.96c0-4.58,3.75-8.29,8.37-8.29h7.2
			C356.021,102.297,359.771,106.007,359.771,110.587"/>
		<path fill="#F8ABA1" d="M354.211,95.027c0,3.51-2.87,6.35-6.41,6.35s-6.41-2.84-6.41-6.35s2.87-6.35,6.41-6.35
			C351.341,88.677,354.211,91.517,354.211,95.027"/>
		<path fill="#F8ABA1" d="M740.141,110.587v12.96c0,1.23-1.01,2.23-2.25,2.23s-2.25-1-2.25-2.23v-11.95c0-0.22-0.18-0.4-0.41-0.4
			s-0.41,0.18-0.41,0.4v34.63c0,1.67-1.36,3.02-3.05,3.02c-1.68,0-3.05-1.35-3.05-3.02v-18.5c0-0.3-0.25-0.55-0.56-0.55
			s-0.56,0.25-0.56,0.55v18.5c0,1.67-1.36,3.02-3.05,3.02s-3.05-1.35-3.05-3.02v-34.78c0-0.22-0.18-0.4-0.41-0.4
			s-0.41,0.18-0.41,0.4v12.1c0,1.23-1.01,2.23-2.25,2.23s-2.25-1-2.25-2.23v-12.96c0-4.58,3.75-8.29,8.37-8.29h7.2
			C736.391,102.297,740.141,106.007,740.141,110.587"/>
		<path fill="#F8ABA1" d="M734.581,95.027c0,3.51-2.87,6.35-6.41,6.35s-6.41-2.84-6.41-6.35s2.87-6.35,6.41-6.35
			C731.701,88.677,734.581,91.517,734.581,95.027"/>
		<path fill="#F8ABA1" d="M827.911,110.587v12.96c0,1.23-1.01,2.23-2.25,2.23s-2.25-1-2.25-2.23v-11.95c0-0.22-0.18-0.4-0.41-0.4
			s-0.41,0.18-0.41,0.4v34.63c0,1.67-1.36,3.02-3.05,3.02c-1.68,0-3.05-1.35-3.05-3.02v-18.5c0-0.3-0.25-0.55-0.56-0.55
			s-0.56,0.25-0.56,0.55v18.5c0,1.67-1.36,3.02-3.05,3.02s-3.05-1.35-3.05-3.02v-34.78c0-0.22-0.18-0.4-0.41-0.4
			s-0.41,0.18-0.41,0.4v12.1c0,1.23-1.01,2.23-2.25,2.23s-2.25-1-2.25-2.23v-12.96c0-4.58,3.75-8.29,8.37-8.29h7.2
			C824.161,102.297,827.911,106.007,827.911,110.587"/>
		<path fill="#F8ABA1" d="M822.351,95.027c0,3.51-2.87,6.35-6.41,6.35s-6.41-2.84-6.41-6.35s2.87-6.35,6.41-6.35
			C819.481,88.677,822.351,91.517,822.351,95.027"/>
		<path fill="#F8ABA1" d="M389.031,110.587v12.96c0,1.23-1.01,2.23-2.25,2.23s-2.25-1-2.25-2.23v-11.95c0-0.22-0.18-0.4-0.41-0.4
			s-0.41,0.18-0.41,0.4v34.63c0,1.67-1.36,3.02-3.05,3.02c-1.68,0-3.05-1.35-3.05-3.02v-18.5c0-0.3-0.25-0.55-0.56-0.55
			s-0.56,0.25-0.56,0.55v18.5c0,1.67-1.36,3.02-3.05,3.02c-1.68,0-3.05-1.35-3.05-3.02v-34.78c0-0.22-0.18-0.4-0.41-0.4
			s-0.41,0.18-0.41,0.4v12.1c0,1.23-1.01,2.23-2.25,2.23s-2.25-1-2.25-2.23v-12.96c0-4.58,3.75-8.29,8.37-8.29h7.2
			C385.281,102.297,389.031,106.007,389.031,110.587"/>
		<path fill="#F8ABA1" d="M383.471,95.027c0,3.51-2.87,6.35-6.41,6.35s-6.41-2.84-6.41-6.35s2.87-6.35,6.41-6.35
			S383.471,91.517,383.471,95.027"/>
		<path fill="#F8ABA1" d="M769.401,110.587v12.96c0,1.23-1.01,2.23-2.25,2.23s-2.25-1-2.25-2.23v-11.95c0-0.22-0.18-0.4-0.41-0.4
			s-0.41,0.18-0.41,0.4v34.63c0,1.67-1.36,3.02-3.05,3.02c-1.68,0-3.05-1.35-3.05-3.02v-18.5c0-0.3-0.25-0.55-0.56-0.55
			s-0.56,0.25-0.56,0.55v18.5c0,1.67-1.36,3.02-3.05,3.02s-3.05-1.35-3.05-3.02v-34.78c0-0.22-0.18-0.4-0.41-0.4
			s-0.41,0.18-0.41,0.4v12.1c0,1.23-1.01,2.23-2.25,2.23s-2.25-1-2.25-2.23v-12.96c0-4.58,3.75-8.29,8.37-8.29h7.2
			C765.651,102.297,769.401,106.007,769.401,110.587"/>
		<path fill="#F8ABA1" d="M763.831,95.027c0,3.51-2.87,6.35-6.41,6.35s-6.41-2.84-6.41-6.35s2.87-6.35,6.41-6.35
			S763.831,91.517,763.831,95.027"/>
		<path fill="#F8ABA1" d="M857.171,110.587v12.96c0,1.23-1.01,2.23-2.25,2.23s-2.25-1-2.25-2.23v-11.95c0-0.22-0.18-0.4-0.41-0.4
			s-0.41,0.18-0.41,0.4v34.63c0,1.67-1.36,3.02-3.05,3.02c-1.68,0-3.05-1.35-3.05-3.02v-18.5c0-0.3-0.25-0.55-0.56-0.55
			s-0.56,0.25-0.56,0.55v18.5c0,1.67-1.36,3.02-3.05,3.02s-3.05-1.35-3.05-3.02v-34.78c0-0.22-0.18-0.4-0.41-0.4
			s-0.41,0.18-0.41,0.4v12.1c0,1.23-1.01,2.23-2.25,2.23s-2.25-1-2.25-2.23v-12.96c0-4.58,3.75-8.29,8.37-8.29h7.2
			C853.421,102.297,857.171,106.007,857.171,110.587"/>
		<path fill="#F8ABA1" d="M851.611,95.027c0,3.51-2.87,6.35-6.41,6.35s-6.41-2.84-6.41-6.35s2.87-6.35,6.41-6.35
			S851.611,91.517,851.611,95.027"/>
		<path fill="#F8ABA1" d="M886.431,110.587v12.96c0,1.23-1.01,2.23-2.25,2.23s-2.25-1-2.25-2.23v-11.95c0-0.22-0.18-0.4-0.41-0.4
			s-0.41,0.18-0.41,0.4v34.63c0,1.67-1.36,3.02-3.05,3.02c-1.68,0-3.05-1.35-3.05-3.02v-18.5c0-0.3-0.25-0.55-0.56-0.55
			s-0.56,0.25-0.56,0.55v18.5c0,1.67-1.36,3.02-3.05,3.02s-3.05-1.35-3.05-3.02v-34.78c0-0.22-0.18-0.4-0.41-0.4
			s-0.41,0.18-0.41,0.4v12.1c0,1.23-1.01,2.23-2.25,2.23s-2.25-1-2.25-2.23v-12.96c0-4.58,3.75-8.29,8.37-8.29h7.2
			C882.681,102.297,886.431,106.007,886.431,110.587"/>
		<path fill="#F8ABA1" d="M880.871,95.027c0,3.51-2.87,6.35-6.41,6.35s-6.41-2.84-6.41-6.35s2.87-6.35,6.41-6.35
			S880.871,91.517,880.871,95.027"/>
		<path fill="#F8ABA1" d="M36.901,782.609v12.41c0,1.18-0.96,2.13-2.15,2.13c-1.19,0-2.15-0.95-2.15-2.13v-11.44
			c0-0.21-0.18-0.39-0.39-0.39c-0.22,0-0.39,0.17-0.39,0.39v33.15c0,1.6-1.31,2.89-2.92,2.89s-2.92-1.29-2.92-2.89v-17.71
			c0-0.29-0.24-0.53-0.53-0.53s-0.53,0.24-0.53,0.53v17.71c0,1.6-1.31,2.89-2.92,2.89s-2.92-1.29-2.92-2.89v-33.29
			c0-0.21-0.18-0.39-0.39-0.39c-0.21,0-0.39,0.17-0.39,0.39v11.58c0,1.18-0.97,2.13-2.15,2.13s-2.15-0.95-2.15-2.13v-12.41
			c0-4.38,3.59-7.93,8.01-7.93h6.9C33.321,774.679,36.901,778.229,36.901,782.609"/>
		<path fill="#F8ABA1" d="M31.581,767.719c0,3.36-2.75,6.08-6.14,6.08s-6.14-2.72-6.14-6.08s2.75-6.08,6.14-6.08
			S31.581,764.359,31.581,767.719"/>
		<path fill="#F8ABA1" d="M64.911,782.609v12.41c0,1.18-0.96,2.13-2.15,2.13c-1.19,0-2.15-0.95-2.15-2.13v-11.44
			c0-0.21-0.18-0.39-0.39-0.39s-0.39,0.17-0.39,0.39v33.15c0,1.6-1.31,2.89-2.92,2.89s-2.92-1.29-2.92-2.89v-17.71
			c0-0.29-0.24-0.53-0.53-0.53c-0.29,0-0.53,0.24-0.53,0.53v17.71c0,1.6-1.31,2.89-2.92,2.89s-2.93-1.3-2.93-2.89v-33.29
			c0-0.21-0.18-0.39-0.39-0.39s-0.39,0.17-0.39,0.39v11.58c0,1.18-0.97,2.13-2.15,2.13s-2.15-0.95-2.15-2.13v-12.41
			c0-4.38,3.59-7.93,8.01-7.93h6.9C61.321,774.679,64.911,778.229,64.911,782.609"/>
		<path fill="#F8ABA1" d="M59.591,767.719c0,3.36-2.75,6.08-6.14,6.08s-6.14-2.72-6.14-6.08s2.75-6.08,6.14-6.08
			S59.591,764.359,59.591,767.719"/>
		<path fill="#F8ABA1" d="M92.921,782.609v12.41c0,1.18-0.96,2.13-2.15,2.13s-2.15-0.95-2.15-2.13v-11.44
			c0-0.21-0.18-0.39-0.39-0.39c-0.22,0-0.39,0.17-0.39,0.39v33.15c0,1.6-1.31,2.89-2.92,2.89s-2.92-1.29-2.92-2.89v-17.71
			c0-0.29-0.24-0.53-0.53-0.53s-0.53,0.24-0.53,0.53v17.71c0,1.6-1.31,2.89-2.92,2.89s-2.94-1.3-2.94-2.89v-33.29
			c0-0.21-0.18-0.39-0.39-0.39c-0.22,0-0.39,0.17-0.39,0.39v11.58c0,1.18-0.96,2.13-2.15,2.13s-2.15-0.95-2.15-2.13v-12.41
			c0-4.38,3.59-7.93,8.01-7.93h6.9C89.331,774.679,92.921,778.229,92.921,782.609"/>
		<path fill="#F8ABA1" d="M87.591,767.719c0,3.36-2.75,6.08-6.14,6.08s-6.14-2.72-6.14-6.08s2.75-6.08,6.14-6.08
			C84.851,761.639,87.591,764.359,87.591,767.719"/>
		<path fill="#F8ABA1" d="M120.921,782.609v12.41c0,1.18-0.96,2.13-2.15,2.13s-2.15-0.95-2.15-2.13v-11.44
			c0-0.21-0.18-0.39-0.39-0.39c-0.22,0-0.39,0.17-0.39,0.39v33.15c0,1.6-1.31,2.89-2.92,2.89s-2.92-1.29-2.92-2.89v-17.71
			c0-0.29-0.24-0.53-0.53-0.53s-0.53,0.24-0.53,0.53v17.71c0,1.6-1.31,2.89-2.92,2.89s-2.92-1.29-2.92-2.89v-33.29
			c0-0.21-0.18-0.39-0.39-0.39c-0.22,0-0.39,0.17-0.39,0.39v11.58c0,1.18-0.96,2.13-2.15,2.13s-2.15-0.95-2.15-2.13v-12.41
			c0-4.38,3.59-7.93,8.01-7.93h6.9C117.341,774.679,120.921,778.229,120.921,782.609"/>
		<path fill="#F8ABA1" d="M115.601,767.719c0,3.36-2.75,6.08-6.14,6.08s-6.14-2.72-6.14-6.08s2.75-6.08,6.14-6.08
			S115.601,764.359,115.601,767.719"/>
		<path fill="#F8ABA1" d="M148.931,782.609v12.41c0,1.18-0.96,2.13-2.15,2.13c-1.19,0-2.15-0.95-2.15-2.13v-11.44
			c0-0.21-0.18-0.39-0.39-0.39s-0.39,0.17-0.39,0.39v33.15c0,1.6-1.31,2.89-2.92,2.89s-2.92-1.29-2.92-2.89v-17.71
			c0-0.29-0.24-0.53-0.53-0.53s-0.53,0.24-0.53,0.53v17.71c0,1.6-1.31,2.89-2.92,2.89s-2.92-1.29-2.92-2.89v-33.29
			c0-0.21-0.18-0.39-0.39-0.39c-0.22,0-0.39,0.17-0.39,0.39v11.58c0,1.18-0.96,2.13-2.15,2.13s-2.15-0.95-2.15-2.13v-12.41
			c0-4.38,3.59-7.93,8.01-7.93h6.9C145.341,774.679,148.931,778.229,148.931,782.609"/>
		<path fill="#F8ABA1" d="M143.611,767.719c0,3.36-2.75,6.08-6.14,6.08s-6.14-2.72-6.14-6.08s2.75-6.08,6.14-6.08
			S143.611,764.359,143.611,767.719"/>
		<path fill="#F8ABA1" d="M176.941,782.609v12.41c0,1.18-0.96,2.13-2.15,2.13c-1.19,0-2.15-0.95-2.15-2.13v-11.44
			c0-0.21-0.18-0.39-0.39-0.39s-0.39,0.17-0.39,0.39v33.15c0,1.6-1.31,2.89-2.92,2.89s-2.92-1.29-2.92-2.89v-17.71
			c0-0.29-0.24-0.53-0.53-0.53s-0.53,0.24-0.53,0.53v17.71c0,1.6-1.31,2.89-2.92,2.89s-2.92-1.29-2.92-2.89v-33.29
			c0-0.21-0.18-0.39-0.39-0.39c-0.22,0-0.39,0.17-0.39,0.39v11.58c0,1.18-0.96,2.13-2.15,2.13c-1.19,0-2.15-0.95-2.15-2.13v-12.41
			c0-4.38,3.59-7.93,8.01-7.93h6.9C173.351,774.679,176.941,778.229,176.941,782.609"/>
		<path fill="#F8ABA1" d="M171.611,767.719c0,3.36-2.75,6.08-6.14,6.08s-6.14-2.72-6.14-6.08s2.75-6.08,6.14-6.08
			S171.611,764.359,171.611,767.719"/>
		<path fill="#F8ABA1" d="M204.941,782.609v12.41c0,1.18-0.96,2.13-2.15,2.13c-1.19,0-2.15-0.95-2.15-2.13v-11.44
			c0-0.21-0.18-0.39-0.39-0.39s-0.39,0.17-0.39,0.39v33.15c0,1.6-1.31,2.89-2.92,2.89s-2.92-1.29-2.92-2.89v-17.71
			c0-0.29-0.24-0.53-0.53-0.53s-0.53,0.24-0.53,0.53v17.71c0,1.6-1.31,2.89-2.92,2.89s-2.92-1.29-2.92-2.89v-33.29
			c0-0.21-0.18-0.39-0.39-0.39c-0.22,0-0.39,0.17-0.39,0.39v11.58c0,1.18-0.96,2.13-2.15,2.13c-1.19,0-2.15-0.95-2.15-2.13v-12.41
			c0-4.38,3.59-7.93,8.01-7.93h6.9C201.351,774.679,204.941,778.229,204.941,782.609"/>
		<path fill="#F8ABA1" d="M199.621,767.719c0,3.36-2.75,6.08-6.14,6.08s-6.14-2.72-6.14-6.08s2.75-6.08,6.14-6.08
			S199.621,764.359,199.621,767.719"/>
		<path fill="#F8ABA1" d="M232.951,782.609v12.41c0,1.18-0.96,2.13-2.15,2.13c-1.19,0-2.15-0.95-2.15-2.13v-11.44
			c0-0.21-0.18-0.39-0.39-0.39s-0.39,0.17-0.39,0.39v33.15c0,1.6-1.31,2.89-2.92,2.89s-2.92-1.29-2.92-2.89v-17.71
			c0-0.29-0.24-0.53-0.53-0.53s-0.53,0.24-0.53,0.53v17.71c0,1.6-1.31,2.89-2.92,2.89s-2.92-1.29-2.92-2.89v-33.29
			c0-0.21-0.18-0.39-0.39-0.39c-0.22,0-0.39,0.17-0.39,0.39v11.58c0,1.18-0.96,2.13-2.15,2.13c-1.19,0-2.15-0.95-2.15-2.13v-12.41
			c0-4.38,3.59-7.93,8.01-7.93h6.9C229.361,774.679,232.951,778.229,232.951,782.609"/>
		<path fill="#F8ABA1" d="M227.631,767.719c0,3.36-2.75,6.08-6.14,6.08s-6.14-2.72-6.14-6.08s2.75-6.08,6.14-6.08
			S227.631,764.359,227.631,767.719"/>
		<path fill="#F8ABA1" d="M260.961,782.609v12.41c0,1.18-0.96,2.13-2.15,2.13s-2.15-0.95-2.15-2.13v-11.44
			c0-0.21-0.18-0.39-0.39-0.39c-0.21,0-0.39,0.17-0.39,0.39v33.15c0,1.6-1.31,2.89-2.92,2.89s-2.92-1.29-2.92-2.89v-17.71
			c0-0.29-0.24-0.53-0.53-0.53s-0.53,0.24-0.53,0.53v17.71c0,1.6-1.31,2.89-2.92,2.89s-2.92-1.29-2.92-2.89v-33.29
			c0-0.21-0.18-0.39-0.39-0.39c-0.22,0-0.39,0.17-0.39,0.39v11.58c0,1.18-0.96,2.13-2.15,2.13c-1.19,0-2.15-0.95-2.15-2.13v-12.41
			c0-4.38,3.59-7.93,8.01-7.93h6.9C257.371,774.679,260.961,778.229,260.961,782.609"/>
		<path fill="#F8ABA1" d="M255.631,767.719c0,3.36-2.75,6.08-6.14,6.08s-6.14-2.72-6.14-6.08s2.75-6.08,6.14-6.08
			S255.631,764.359,255.631,767.719"/>
		<path fill="#F8ABA1" d="M288.961,782.609v12.41c0,1.18-0.96,2.13-2.15,2.13s-2.15-0.95-2.15-2.13v-11.44
			c0-0.21-0.18-0.39-0.39-0.39s-0.39,0.17-0.39,0.39v33.15c0,1.6-1.31,2.89-2.92,2.89s-2.92-1.29-2.92-2.89v-17.71
			c0-0.29-0.24-0.53-0.53-0.53c-0.3,0-0.53,0.24-0.53,0.53v17.71c0,1.6-1.31,2.89-2.92,2.89s-2.92-1.29-2.92-2.89v-33.29
			c0-0.21-0.17-0.39-0.39-0.39s-0.39,0.17-0.39,0.39v11.58c0,1.18-0.96,2.13-2.15,2.13s-2.15-0.95-2.15-2.13v-12.41
			c0-4.38,3.59-7.93,8.02-7.93h6.9C285.371,774.679,288.961,778.229,288.961,782.609"/>
		<path fill="#F8ABA1" d="M283.641,767.719c0,3.36-2.75,6.08-6.14,6.08s-6.14-2.72-6.14-6.08s2.75-6.08,6.14-6.08
			S283.641,764.359,283.641,767.719"/>
		<path fill="#F8ABA1" d="M316.971,782.609v12.41c0,1.18-0.96,2.13-2.15,2.13s-2.15-0.95-2.15-2.13v-11.44
			c0-0.21-0.18-0.39-0.39-0.39s-0.39,0.17-0.39,0.39v33.15c0,1.6-1.31,2.89-2.92,2.89s-2.92-1.29-2.92-2.89v-17.71
			c0-0.29-0.24-0.53-0.53-0.53c-0.3,0-0.53,0.24-0.53,0.53v17.71c0,1.6-1.31,2.89-2.92,2.89s-2.92-1.29-2.92-2.89v-33.29
			c0-0.21-0.17-0.39-0.39-0.39s-0.39,0.17-0.39,0.39v11.58c0,1.18-0.96,2.13-2.15,2.13s-2.15-0.95-2.15-2.13v-12.41
			c0-4.38,3.59-7.93,8.02-7.93h6.9C313.381,774.679,316.971,778.229,316.971,782.609"/>
		<path fill="#F8ABA1" d="M311.641,767.719c0,3.36-2.75,6.08-6.14,6.08s-6.14-2.72-6.14-6.08s2.75-6.08,6.14-6.08
			C308.901,761.639,311.641,764.359,311.641,767.719"/>
		<path fill="#F8ABA1" d="M344.971,782.609v12.41c0,1.18-0.96,2.13-2.15,2.13s-2.15-0.95-2.15-2.13v-11.44
			c0-0.21-0.18-0.39-0.39-0.39s-0.39,0.17-0.39,0.39v33.15c0,1.6-1.31,2.89-2.92,2.89s-2.92-1.29-2.92-2.89v-17.71
			c0-0.29-0.24-0.53-0.53-0.53c-0.3,0-0.53,0.24-0.53,0.53v17.71c0,1.6-1.31,2.89-2.92,2.89s-2.92-1.29-2.92-2.89v-33.29
			c0-0.21-0.18-0.39-0.39-0.39s-0.39,0.17-0.39,0.39v11.58c0,1.18-0.96,2.13-2.15,2.13s-2.15-0.95-2.15-2.13v-12.41
			c0-4.38,3.59-7.93,8.02-7.93h6.9C341.391,774.679,344.971,778.229,344.971,782.609"/>
		<path fill="#F8ABA1" d="M339.651,767.719c0,3.36-2.75,6.08-6.14,6.08s-6.14-2.72-6.14-6.08s2.75-6.08,6.14-6.08
			S339.651,764.359,339.651,767.719"/>
		<path fill="#F8ABA1" d="M372.981,782.609v12.41c0,1.18-0.96,2.13-2.15,2.13s-2.15-0.95-2.15-2.13v-11.44
			c0-0.21-0.18-0.39-0.39-0.39s-0.39,0.17-0.39,0.39v33.15c0,1.6-1.31,2.89-2.92,2.89s-2.92-1.29-2.92-2.89v-17.71
			c0-0.29-0.24-0.53-0.53-0.53c-0.3,0-0.53,0.24-0.53,0.53v17.71c0,1.6-1.31,2.89-2.92,2.89s-2.92-1.29-2.92-2.89v-33.29
			c0-0.21-0.18-0.39-0.39-0.39s-0.39,0.17-0.39,0.39v11.58c0,1.18-0.96,2.13-2.15,2.13s-2.15-0.95-2.15-2.13v-12.41
			c0-4.38,3.59-7.93,8.02-7.93h6.9C369.391,774.679,372.981,778.229,372.981,782.609"/>
		<path fill="#F8ABA1" d="M367.661,767.719c0,3.36-2.75,6.08-6.14,6.08s-6.14-2.72-6.14-6.08s2.75-6.08,6.14-6.08
			S367.661,764.359,367.661,767.719"/>
		<path fill="#F8ABA1" d="M37.931,110.587v12.96c0,1.23-1.01,2.23-2.25,2.23c-1.24,0-2.25-1-2.25-2.23v-11.95
			c0-0.22-0.18-0.4-0.41-0.4s-0.41,0.18-0.41,0.4v34.63c0,1.67-1.36,3.02-3.05,3.02c-1.68,0-3.05-1.35-3.05-3.02v-18.5
			c0-0.3-0.25-0.55-0.56-0.55s-0.56,0.25-0.56,0.55v18.5c0,1.67-1.36,3.02-3.05,3.02s-3.05-1.35-3.05-3.02v-34.78
			c0-0.22-0.18-0.4-0.41-0.4s-0.41,0.18-0.41,0.4v12.1c0,1.23-1.01,2.23-2.25,2.23s-2.25-1-2.25-2.23v-12.96
			c0-4.58,3.75-8.29,8.37-8.29h7.2C34.181,102.297,37.931,106.007,37.931,110.587"/>
	</g>
	<g id="armed_00000140016524128310405090000007142533270848048525_">
		<path id="desk_00000158750252894369893440000010858973383241195452_" fill="#B1B3B6" d="M45.931,45.157v12.96
			c0,1.23-1.01,2.23-2.25,2.23c-1.24,0-2.25-1-2.25-2.23v-11.95c0-0.22-0.18-0.4-0.41-0.4s-0.41,0.18-0.41,0.4v34.63
			c0,1.67-1.36,3.02-3.05,3.02c-1.68,0-3.05-1.35-3.05-3.02v-18.5c0-0.3-0.25-0.55-0.56-0.55c-0.31,0-0.56,0.25-0.56,0.55v18.5
			c0,1.67-1.36,3.02-3.05,3.02c-1.69,0-3.05-1.35-3.05-3.02v-34.78c0-0.22-0.18-0.41-0.41-0.41s-0.41,0.18-0.41,0.41v12.09
			c0,1.23-1.01,2.23-2.25,2.23s-2.25-1-2.25-2.23v-12.95c0-4.58,3.75-8.29,8.37-8.29h7.2C42.181,36.867,45.931,40.577,45.931,45.157
			"/>
		<path id="desk_00000063625348124175265590000003411551825320595086_" fill="#B1B3B6" d="M40.361,29.597
			c0,3.51-2.87,6.35-6.41,6.35c-3.54,0-6.41-2.84-6.41-6.35s2.87-6.35,6.41-6.35C37.491,23.247,40.361,26.087,40.361,29.597"/>
		<path id="desk_00000078036872753949514270000004027210031401317799_" fill="#B1B3B6" d="M426.291,45.157v12.96
			c0,1.23-1.01,2.23-2.25,2.23s-2.25-1-2.25-2.23v-11.95c0-0.22-0.18-0.4-0.41-0.4s-0.41,0.18-0.41,0.4v34.63
			c0,1.67-1.36,3.02-3.05,3.02c-1.68,0-3.05-1.35-3.05-3.02v-18.5c0-0.3-0.25-0.55-0.56-0.55s-0.56,0.25-0.56,0.55v18.5
			c0,1.67-1.36,3.02-3.05,3.02c-1.68,0-3.05-1.35-3.05-3.02v-34.78c0-0.22-0.18-0.41-0.41-0.41s-0.41,0.18-0.41,0.41v12.09
			c0,1.23-1.01,2.23-2.25,2.23s-2.25-1-2.25-2.23v-12.95c0-4.58,3.75-8.29,8.37-8.29h7.2
			C422.541,36.867,426.291,40.577,426.291,45.157"/>
		<path id="desk_00000021830078759137147640000003155287143860395904_" fill="#B1B3B6" d="M420.731,29.597
			c0,3.51-2.87,6.35-6.41,6.35s-6.41-2.84-6.41-6.35s2.87-6.35,6.41-6.35S420.731,26.087,420.731,29.597"/>
		<path id="desk_00000160184467349565502630000001330933295962332580_" fill="#B1B3B6" d="M75.181,45.157v12.96
			c0,1.23-1.01,2.23-2.25,2.23c-1.24,0-2.25-1-2.25-2.23v-11.95c0-0.22-0.18-0.4-0.41-0.4c-0.23,0-0.41,0.18-0.41,0.4v34.63
			c0,1.67-1.37,3.02-3.05,3.02s-3.05-1.35-3.05-3.02v-18.5c0-0.3-0.25-0.55-0.56-0.55s-0.56,0.25-0.56,0.55v18.5
			c0,1.67-1.37,3.02-3.05,3.02s-3.05-1.35-3.05-3.02v-34.78c0-0.22-0.18-0.41-0.41-0.41s-0.41,0.18-0.41,0.41v12.09
			c0,1.23-1.01,2.23-2.25,2.23s-2.25-1-2.25-2.23v-12.95c0-4.58,3.75-8.29,8.37-8.29h7.2C71.441,36.867,75.181,40.577,75.181,45.157
			"/>
		<path id="desk_00000002352368893095590640000015019140360822456997_" fill="#B1B3B6" d="M69.621,29.597
			c0,3.51-2.87,6.35-6.41,6.35c-3.54,0-6.41-2.84-6.41-6.35s2.87-6.35,6.41-6.35C66.751,23.247,69.621,26.087,69.621,29.597"/>
		<path id="desk_00000028314643207366653410000018355591806884326054_" fill="#B1B3B6" d="M455.551,45.157v12.96
			c0,1.23-1.01,2.23-2.25,2.23s-2.25-1-2.25-2.23v-11.95c0-0.22-0.18-0.4-0.41-0.4s-0.41,0.18-0.41,0.4v34.63
			c0,1.67-1.36,3.02-3.05,3.02c-1.68,0-3.05-1.35-3.05-3.02v-18.5c0-0.3-0.25-0.55-0.56-0.55s-0.56,0.25-0.56,0.55v18.5
			c0,1.67-1.36,3.02-3.05,3.02c-1.68,0-3.05-1.35-3.05-3.02v-34.78c0-0.22-0.18-0.41-0.41-0.41s-0.41,0.18-0.41,0.41v12.09
			c0,1.23-1.01,2.23-2.25,2.23s-2.25-1-2.25-2.23v-12.95c0-4.58,3.75-8.29,8.37-8.29h7.2
			C451.801,36.867,455.551,40.577,455.551,45.157"/>
		<path id="desk_00000080169621664462870360000001183704356258189735_" fill="#B1B3B6" d="M449.991,29.597
			c0,3.51-2.87,6.35-6.41,6.35s-6.41-2.84-6.41-6.35s2.87-6.35,6.41-6.35C447.121,23.247,449.991,26.087,449.991,29.597"/>
		<path id="desk_00000049909999421658497740000003342857476243969417_" fill="#B1B3B6" d="M104.441,45.157v12.96
			c0,1.23-1.01,2.23-2.25,2.23s-2.25-1-2.25-2.23v-11.95c0-0.22-0.18-0.4-0.41-0.4s-0.41,0.18-0.41,0.4v34.63
			c0,1.67-1.37,3.02-3.05,3.02s-3.05-1.35-3.05-3.02v-18.5c0-0.3-0.25-0.55-0.56-0.55s-0.56,0.25-0.56,0.55v18.5
			c0,1.67-1.36,3.02-3.05,3.02c-1.68,0-3.05-1.35-3.05-3.02v-34.78c0-0.22-0.18-0.41-0.41-0.41s-0.41,0.18-0.41,0.41v12.09
			c0,1.23-1.01,2.23-2.25,2.23s-2.25-1-2.25-2.23v-12.95c0-4.58,3.75-8.29,8.37-8.29h7.2
			C100.691,36.867,104.441,40.577,104.441,45.157"/>
		<path id="desk_00000137133484928548428360000014205541671183631260_" fill="#B1B3B6" d="M98.881,29.597
			c0,3.51-2.87,6.35-6.41,6.35s-6.41-2.84-6.41-6.35s2.87-6.35,6.41-6.35S98.881,26.087,98.881,29.597"/>
		<path id="desk_00000157302084181733292980000002466747155765036930_" fill="#B1B3B6" d="M484.811,45.157v12.96
			c0,1.23-1.01,2.23-2.25,2.23s-2.25-1-2.25-2.23v-11.95c0-0.22-0.18-0.4-0.41-0.4s-0.41,0.18-0.41,0.4v34.63
			c0,1.67-1.36,3.02-3.05,3.02c-1.68,0-3.05-1.35-3.05-3.02v-18.5c0-0.3-0.25-0.55-0.56-0.55s-0.56,0.25-0.56,0.55v18.5
			c0,1.67-1.36,3.02-3.05,3.02c-1.68,0-3.05-1.35-3.05-3.02v-34.78c0-0.22-0.18-0.41-0.41-0.41s-0.41,0.18-0.41,0.41v12.09
			c0,1.23-1.01,2.23-2.25,2.23s-2.25-1-2.25-2.23v-12.95c0-4.58,3.75-8.29,8.37-8.29h7.2
			C481.061,36.867,484.811,40.577,484.811,45.157"/>
		<path id="desk_00000064315083419787607040000001504404971193388963_" fill="#B1B3B6" d="M479.251,29.597
			c0,3.51-2.87,6.35-6.41,6.35s-6.41-2.84-6.41-6.35s2.87-6.35,6.41-6.35C476.371,23.247,479.251,26.087,479.251,29.597"/>
		<path id="desk_00000183968782015986317790000004651960402297875342_" fill="#B1B3B6" d="M133.701,45.157v12.96
			c0,1.23-1.01,2.23-2.25,2.23c-1.24,0-2.25-1-2.25-2.23v-11.95c0-0.22-0.18-0.4-0.41-0.4c-0.23,0-0.41,0.18-0.41,0.4v34.63
			c0,1.67-1.37,3.02-3.05,3.02s-3.05-1.35-3.05-3.02v-18.5c0-0.3-0.25-0.55-0.56-0.55s-0.56,0.25-0.56,0.55v18.5
			c0,1.67-1.36,3.02-3.05,3.02c-1.68,0-3.05-1.35-3.05-3.02v-34.78c0-0.22-0.18-0.41-0.41-0.41s-0.41,0.18-0.41,0.41v12.09
			c0,1.23-1.01,2.23-2.25,2.23s-2.25-1-2.25-2.23v-12.95c0-4.58,3.75-8.29,8.37-8.29h7.2
			C129.951,36.867,133.701,40.577,133.701,45.157"/>
		<path id="desk_00000088825700183331045580000001336278332636893852_" fill="#B1B3B6" d="M128.141,29.597
			c0,3.51-2.87,6.35-6.41,6.35s-6.41-2.84-6.41-6.35s2.87-6.35,6.41-6.35S128.141,26.087,128.141,29.597"/>
		<path id="desk_00000132084485003170508890000010558980058165660055_" fill="#B1B3B6" d="M514.071,45.157v12.96
			c0,1.23-1.01,2.23-2.25,2.23s-2.25-1-2.25-2.23v-11.95c0-0.22-0.18-0.4-0.41-0.4s-0.41,0.18-0.41,0.4v34.63
			c0,1.67-1.36,3.02-3.05,3.02c-1.68,0-3.05-1.35-3.05-3.02v-18.5c0-0.3-0.25-0.55-0.56-0.55s-0.56,0.25-0.56,0.55v18.5
			c0,1.67-1.36,3.02-3.05,3.02c-1.68,0-3.05-1.35-3.05-3.02v-34.78c0-0.22-0.18-0.41-0.41-0.41s-0.41,0.18-0.41,0.41v12.09
			c0,1.23-1.01,2.23-2.25,2.23s-2.25-1-2.25-2.23v-12.95c0-4.58,3.75-8.29,8.37-8.29h7.2
			C510.321,36.867,514.071,40.577,514.071,45.157"/>
		<path id="desk_00000002380109246888297110000006725281841753022648_" fill="#B1B3B6" d="M508.511,29.597
			c0,3.51-2.87,6.35-6.41,6.35s-6.41-2.84-6.41-6.35s2.87-6.35,6.41-6.35C505.631,23.247,508.511,26.087,508.511,29.597"/>
		<path id="desk_00000059298035275464934970000006447590640213331077_" fill="#B1B3B6" d="M162.961,45.157v12.96
			c0,1.23-1.01,2.23-2.25,2.23s-2.25-1-2.25-2.23v-11.95c0-0.22-0.18-0.4-0.41-0.4s-0.41,0.18-0.41,0.4v34.63
			c0,1.67-1.37,3.02-3.05,3.02c-1.68,0-3.05-1.35-3.05-3.02v-18.5c0-0.3-0.25-0.55-0.56-0.55s-0.56,0.25-0.56,0.55v18.5
			c0,1.67-1.36,3.02-3.05,3.02s-3.05-1.35-3.05-3.02v-34.78c0-0.22-0.18-0.41-0.41-0.41s-0.41,0.18-0.41,0.41v12.09
			c0,1.23-1.01,2.23-2.25,2.23s-2.25-1-2.25-2.23v-12.95c0-4.58,3.75-8.29,8.37-8.29h7.2
			C159.211,36.867,162.961,40.577,162.961,45.157"/>
		<path id="desk_00000140710831240743213000000007235482046813724329_" fill="#B1B3B6" d="M157.401,29.597
			c0,3.51-2.87,6.35-6.41,6.35s-6.41-2.84-6.41-6.35s2.87-6.35,6.41-6.35S157.401,26.087,157.401,29.597"/>
		<path id="desk_00000040546313583322646640000000738687839215765402_" fill="#B1B3B6" d="M543.331,45.157v12.96
			c0,1.23-1.01,2.23-2.25,2.23s-2.25-1-2.25-2.23v-11.95c0-0.22-0.18-0.4-0.41-0.4s-0.41,0.18-0.41,0.4v34.63
			c0,1.67-1.36,3.02-3.05,3.02c-1.68,0-3.05-1.35-3.05-3.02v-18.5c0-0.3-0.25-0.55-0.56-0.55s-0.56,0.25-0.56,0.55v18.5
			c0,1.67-1.36,3.02-3.05,3.02s-3.05-1.35-3.05-3.02v-34.78c0-0.22-0.18-0.41-0.41-0.41c-0.23,0-0.41,0.18-0.41,0.41v12.09
			c0,1.23-1.01,2.23-2.25,2.23s-2.25-1-2.25-2.23v-12.95c0-4.58,3.75-8.29,8.37-8.29h7.2
			C539.581,36.867,543.331,40.577,543.331,45.157"/>
		<path id="desk_00000042008593210587906440000002627439811969275071_" fill="#B1B3B6" d="M537.761,29.597
			c0,3.51-2.87,6.35-6.41,6.35s-6.41-2.84-6.41-6.35s2.87-6.35,6.41-6.35S537.761,26.087,537.761,29.597"/>
		<path id="desk_00000158016245957552602010000010620964655631236754_" fill="#B1B3B6" d="M192.221,45.157v12.96
			c0,1.23-1.01,2.23-2.25,2.23s-2.25-1-2.25-2.23v-11.95c0-0.22-0.18-0.4-0.41-0.4s-0.41,0.18-0.41,0.4v34.63
			c0,1.67-1.37,3.02-3.05,3.02c-1.68,0-3.05-1.35-3.05-3.02v-18.5c0-0.3-0.25-0.55-0.56-0.55s-0.56,0.25-0.56,0.55v18.5
			c0,1.67-1.37,3.02-3.05,3.02c-1.68,0-3.05-1.35-3.05-3.02v-34.78c0-0.22-0.18-0.41-0.41-0.41c-0.23,0-0.41,0.18-0.41,0.41v12.09
			c0,1.23-1.01,2.23-2.25,2.23s-2.25-1-2.25-2.23v-12.95c0-4.58,3.75-8.29,8.37-8.29h7.2
			C188.471,36.867,192.221,40.577,192.221,45.157"/>
		<path id="desk_00000147205095317448903590000016620369831907513220_" fill="#B1B3B6" d="M186.661,29.597
			c0,3.51-2.87,6.35-6.41,6.35c-3.54,0-6.41-2.84-6.41-6.35s2.87-6.35,6.41-6.35S186.661,26.087,186.661,29.597"/>
		<path id="desk_00000047741996403183107740000002343740565163531919_" fill="#B1B3B6" d="M572.581,45.157v12.96
			c0,1.23-1.01,2.23-2.25,2.23s-2.25-1-2.25-2.23v-11.95c0-0.22-0.18-0.4-0.41-0.4s-0.41,0.18-0.41,0.4v34.63
			c0,1.67-1.36,3.02-3.05,3.02c-1.68,0-3.05-1.35-3.05-3.02v-18.5c0-0.3-0.25-0.55-0.56-0.55s-0.56,0.25-0.56,0.55v18.5
			c0,1.67-1.36,3.02-3.05,3.02s-3.05-1.35-3.05-3.02v-34.78c0-0.22-0.18-0.41-0.41-0.41s-0.41,0.18-0.41,0.41v12.09
			c0,1.23-1.01,2.23-2.25,2.23s-2.25-1-2.25-2.23v-12.95c0-4.58,3.75-8.29,8.37-8.29h7.2
			C568.831,36.867,572.581,40.577,572.581,45.157"/>
		<path id="desk_00000000215983105376393650000004573386873118579087_" fill="#B1B3B6" d="M567.021,29.597
			c0,3.51-2.87,6.35-6.41,6.35s-6.41-2.84-6.41-6.35s2.87-6.35,6.41-6.35S567.021,26.087,567.021,29.597"/>
		<path id="desk_00000016075128769443359210000012224444961368565432_" fill="#B1B3B6" d="M221.481,45.157v12.96
			c0,1.23-1.01,2.23-2.25,2.23s-2.25-1-2.25-2.23v-11.95c0-0.22-0.18-0.4-0.41-0.4s-0.41,0.18-0.41,0.4v34.63
			c0,1.67-1.37,3.02-3.05,3.02c-1.68,0-3.05-1.35-3.05-3.02v-18.5c0-0.3-0.25-0.55-0.56-0.55s-0.56,0.25-0.56,0.55v18.5
			c0,1.67-1.37,3.02-3.05,3.02c-1.68,0-3.05-1.35-3.05-3.02v-34.78c0-0.22-0.18-0.41-0.41-0.41c-0.23,0-0.41,0.18-0.41,0.41v12.09
			c0,1.23-1.01,2.23-2.25,2.23s-2.25-1-2.25-2.23v-12.95c0-4.58,3.75-8.29,8.37-8.29h7.2
			C217.731,36.867,221.481,40.577,221.481,45.157"/>
		<path id="desk_00000119085108840071757180000005191943093723428748_" fill="#B1B3B6" d="M215.921,29.597
			c0,3.51-2.87,6.35-6.41,6.35c-3.54,0-6.41-2.84-6.41-6.35s2.87-6.35,6.41-6.35C213.051,23.247,215.921,26.087,215.921,29.597"/>
		<path id="desk_00000106136212430595103210000000407664353708339356_" fill="#B1B3B6" d="M601.841,45.157v12.96
			c0,1.23-1.01,2.23-2.25,2.23s-2.25-1-2.25-2.23v-11.95c0-0.22-0.18-0.4-0.41-0.4s-0.41,0.18-0.41,0.4v34.63
			c0,1.67-1.36,3.02-3.05,3.02c-1.68,0-3.05-1.35-3.05-3.02v-18.5c0-0.3-0.25-0.55-0.56-0.55s-0.56,0.25-0.56,0.55v18.5
			c0,1.67-1.36,3.02-3.05,3.02s-3.05-1.35-3.05-3.02v-34.78c0-0.22-0.18-0.41-0.41-0.41s-0.41,0.18-0.41,0.41v12.09
			c0,1.23-1.01,2.23-2.25,2.23s-2.25-1-2.25-2.23v-12.95c0-4.58,3.75-8.29,8.37-8.29h7.2
			C598.091,36.867,601.841,40.577,601.841,45.157"/>
		<path id="desk_00000027577382015460806220000006027126844528802435_" fill="#B1B3B6" d="M596.281,29.597
			c0,3.51-2.87,6.35-6.41,6.35s-6.41-2.84-6.41-6.35s2.87-6.35,6.41-6.35S596.281,26.087,596.281,29.597"/>
		<path id="desk_00000004509065195270932110000002108344791337004442_" fill="#B1B3B6" d="M250.741,45.157v12.96
			c0,1.23-1.01,2.23-2.25,2.23s-2.25-1-2.25-2.23v-11.95c0-0.22-0.18-0.4-0.41-0.4s-0.41,0.18-0.41,0.4v34.63
			c0,1.67-1.37,3.02-3.05,3.02c-1.68,0-3.05-1.35-3.05-3.02v-18.5c0-0.3-0.25-0.55-0.56-0.55s-0.56,0.25-0.56,0.55v18.5
			c0,1.67-1.37,3.02-3.05,3.02c-1.68,0-3.05-1.35-3.05-3.02v-34.78c0-0.22-0.18-0.41-0.41-0.41c-0.23,0-0.41,0.18-0.41,0.41v12.09
			c0,1.23-1.01,2.23-2.25,2.23s-2.25-1-2.25-2.23v-12.95c0-4.58,3.75-8.29,8.37-8.29h7.2
			C246.991,36.867,250.741,40.577,250.741,45.157"/>
		<path id="desk_00000035522476266819086610000018353101690985562555_" fill="#B1B3B6" d="M245.181,29.597
			c0,3.51-2.87,6.35-6.41,6.35c-3.54,0-6.41-2.84-6.41-6.35s2.87-6.35,6.41-6.35C242.301,23.247,245.181,26.087,245.181,29.597"/>
		<path id="desk_00000078763888365931510340000007582709323522068925_" fill="#B1B3B6" d="M631.101,45.157v12.96
			c0,1.23-1.01,2.23-2.25,2.23s-2.25-1-2.25-2.23v-11.95c0-0.22-0.18-0.4-0.41-0.4s-0.41,0.18-0.41,0.4v34.63
			c0,1.67-1.36,3.02-3.05,3.02c-1.68,0-3.05-1.35-3.05-3.02v-18.5c0-0.3-0.25-0.55-0.56-0.55s-0.56,0.25-0.56,0.55v18.5
			c0,1.67-1.36,3.02-3.05,3.02s-3.05-1.35-3.05-3.02v-34.78c0-0.22-0.18-0.41-0.41-0.41s-0.41,0.18-0.41,0.41v12.09
			c0,1.23-1.01,2.23-2.25,2.23s-2.25-1-2.25-2.23v-12.95c0-4.58,3.75-8.29,8.37-8.29h7.2
			C627.351,36.867,631.101,40.577,631.101,45.157"/>
		<path id="desk_00000081635036282609173130000009119155063732975035_" fill="#B1B3B6" d="M625.541,29.597
			c0,3.51-2.87,6.35-6.41,6.35s-6.41-2.84-6.41-6.35s2.87-6.35,6.41-6.35C622.671,23.247,625.541,26.087,625.541,29.597"/>
		<path id="desk_00000022524208303061244810000000220867483071153337_" fill="#B1B3B6" d="M280.001,45.157v12.96
			c0,1.23-1.01,2.23-2.25,2.23s-2.25-1-2.25-2.23v-11.95c0-0.22-0.18-0.4-0.41-0.4s-0.41,0.18-0.41,0.4v34.63
			c0,1.67-1.37,3.02-3.05,3.02s-3.05-1.35-3.05-3.02v-18.5c0-0.3-0.25-0.55-0.56-0.55s-0.56,0.25-0.56,0.55v18.5
			c0,1.67-1.37,3.02-3.05,3.02c-1.68,0-3.05-1.35-3.05-3.02v-34.78c0-0.22-0.18-0.41-0.41-0.41s-0.41,0.18-0.41,0.41v12.09
			c0,1.23-1.01,2.23-2.25,2.23c-1.24,0-2.25-1-2.25-2.23v-12.95c0-4.58,3.75-8.29,8.37-8.29h7.2
			C276.251,36.867,280.001,40.577,280.001,45.157"/>
		<path id="desk_00000032626699812556476540000009817937098214354084_" fill="#B1B3B6" d="M274.431,29.597
			c0,3.51-2.87,6.35-6.41,6.35c-3.54,0-6.41-2.84-6.41-6.35s2.87-6.35,6.41-6.35C271.561,23.247,274.431,26.087,274.431,29.597"/>
		<path id="desk_00000179629847601829758280000018238754297625014172_" fill="#B1B3B6" d="M660.361,45.157v12.96
			c0,1.23-1.01,2.23-2.25,2.23s-2.25-1-2.25-2.23v-11.95c0-0.22-0.18-0.4-0.41-0.4s-0.41,0.18-0.41,0.4v34.63
			c0,1.67-1.36,3.02-3.05,3.02c-1.68,0-3.05-1.35-3.05-3.02v-18.5c0-0.3-0.25-0.55-0.56-0.55s-0.56,0.25-0.56,0.55v18.5
			c0,1.67-1.36,3.02-3.05,3.02s-3.05-1.35-3.05-3.02v-34.78c0-0.22-0.18-0.41-0.41-0.41s-0.41,0.18-0.41,0.41v12.09
			c0,1.23-1.01,2.23-2.25,2.23s-2.25-1-2.25-2.23v-12.95c0-4.58,3.75-8.29,8.37-8.29h7.2
			C656.611,36.867,660.361,40.577,660.361,45.157"/>
		<path id="desk_00000176008765117181013820000002629080303459530377_" fill="#B1B3B6" d="M654.801,29.597
			c0,3.51-2.87,6.35-6.41,6.35s-6.41-2.84-6.41-6.35s2.87-6.35,6.41-6.35S654.801,26.087,654.801,29.597"/>
		<path id="desk_00000027563360909187962330000011106837118851777926_" fill="#B1B3B6" d="M309.251,45.157v12.96
			c0,1.23-1.01,2.23-2.25,2.23s-2.25-1-2.25-2.23v-11.95c0-0.22-0.18-0.4-0.41-0.4s-0.41,0.18-0.41,0.4v34.63
			c0,1.67-1.36,3.02-3.05,3.02c-1.68,0-3.05-1.35-3.05-3.02v-18.5c0-0.3-0.25-0.55-0.56-0.55s-0.56,0.25-0.56,0.55v18.5
			c0,1.67-1.36,3.02-3.05,3.02c-1.68,0-3.05-1.35-3.05-3.02v-34.78c0-0.22-0.18-0.41-0.41-0.41s-0.41,0.18-0.41,0.41v12.09
			c0,1.23-1.01,2.23-2.25,2.23s-2.25-1-2.25-2.23v-12.95c0-4.58,3.75-8.29,8.37-8.29h7.2
			C305.511,36.867,309.251,40.577,309.251,45.157"/>
		<path id="desk_00000029008594158786741410000014439758083656460168_" fill="#B1B3B6" d="M303.691,29.597
			c0,3.51-2.87,6.35-6.41,6.35s-6.41-2.84-6.41-6.35s2.87-6.35,6.41-6.35S303.691,26.087,303.691,29.597"/>
		<path id="desk_00000061430243319811705790000010918739752922482598_" fill="#B1B3B6" d="M689.621,45.157v12.96
			c0,1.23-1.01,2.23-2.25,2.23s-2.25-1-2.25-2.23v-11.95c0-0.22-0.18-0.4-0.41-0.4s-0.41,0.18-0.41,0.4v34.63
			c0,1.67-1.36,3.02-3.05,3.02c-1.68,0-3.05-1.35-3.05-3.02v-18.5c0-0.3-0.25-0.55-0.56-0.55s-0.56,0.25-0.56,0.55v18.5
			c0,1.67-1.36,3.02-3.05,3.02s-3.05-1.35-3.05-3.02v-34.78c0-0.22-0.18-0.41-0.41-0.41s-0.41,0.18-0.41,0.41v12.09
			c0,1.23-1.01,2.23-2.25,2.23s-2.25-1-2.25-2.23v-12.95c0-4.58,3.75-8.29,8.37-8.29h7.2
			C685.871,36.867,689.621,40.577,689.621,45.157"/>
		<path id="desk_00000163049358374534991420000012418394847971560592_" fill="#B1B3B6" d="M684.061,29.597
			c0,3.51-2.87,6.35-6.41,6.35s-6.41-2.84-6.41-6.35s2.87-6.35,6.41-6.35S684.061,26.087,684.061,29.597"/>
		<path id="desk_00000119113819854061947520000007871585081587549586_" fill="#B1B3B6" d="M338.511,45.157v12.96
			c0,1.23-1.01,2.23-2.25,2.23s-2.25-1-2.25-2.23v-11.95c0-0.22-0.18-0.4-0.41-0.4s-0.41,0.18-0.41,0.4v34.63
			c0,1.67-1.36,3.02-3.05,3.02c-1.68,0-3.05-1.35-3.05-3.02v-18.5c0-0.3-0.25-0.55-0.56-0.55s-0.56,0.25-0.56,0.55v18.5
			c0,1.67-1.36,3.02-3.05,3.02c-1.68,0-3.05-1.35-3.05-3.02v-34.78c0-0.22-0.18-0.41-0.41-0.41s-0.41,0.18-0.41,0.41v12.09
			c0,1.23-1.01,2.23-2.25,2.23s-2.25-1-2.25-2.23v-12.95c0-4.58,3.75-8.29,8.37-8.29h7.2
			C334.761,36.867,338.511,40.577,338.511,45.157"/>
		<path id="desk_00000152250172961117183760000015725797616767618726_" fill="#B1B3B6" d="M332.951,29.597
			c0,3.51-2.87,6.35-6.41,6.35s-6.41-2.84-6.41-6.35s2.87-6.35,6.41-6.35S332.951,26.087,332.951,29.597"/>
		<path id="desk_00000150813293882686021820000014437469402122863251_" fill="#B1B3B6" d="M718.881,45.157v12.96
			c0,1.23-1.01,2.23-2.25,2.23s-2.25-1-2.25-2.23v-11.95c0-0.22-0.18-0.4-0.41-0.4s-0.41,0.18-0.41,0.4v34.63
			c0,1.67-1.36,3.02-3.05,3.02c-1.68,0-3.05-1.35-3.05-3.02v-18.5c0-0.3-0.25-0.55-0.56-0.55s-0.56,0.25-0.56,0.55v18.5
			c0,1.67-1.36,3.02-3.05,3.02s-3.05-1.35-3.05-3.02v-34.78c0-0.22-0.18-0.41-0.41-0.41s-0.41,0.18-0.41,0.41v12.09
			c0,1.23-1.01,2.23-2.25,2.23s-2.25-1-2.25-2.23v-12.95c0-4.58,3.75-8.29,8.37-8.29h7.2
			C715.131,36.867,718.881,40.577,718.881,45.157"/>
		<path id="desk_00000144295646331763867760000008175809981190019203_" fill="#B1B3B6" d="M713.321,29.597
			c0,3.51-2.87,6.35-6.41,6.35s-6.41-2.84-6.41-6.35s2.87-6.35,6.41-6.35C710.441,23.247,713.321,26.087,713.321,29.597"/>
		<path id="desk_00000119119571262014679300000011294861035466726293_" fill="#B1B3B6" d="M806.651,45.157v12.96
			c0,1.23-1.01,2.23-2.25,2.23s-2.25-1-2.25-2.23v-11.95c0-0.22-0.18-0.4-0.41-0.4s-0.41,0.18-0.41,0.4v34.63
			c0,1.67-1.36,3.02-3.05,3.02c-1.68,0-3.05-1.35-3.05-3.02v-18.5c0-0.3-0.25-0.55-0.56-0.55s-0.56,0.25-0.56,0.55v18.5
			c0,1.67-1.36,3.02-3.05,3.02s-3.05-1.35-3.05-3.02v-34.78c0-0.22-0.18-0.41-0.41-0.41s-0.41,0.18-0.41,0.41v12.09
			c0,1.23-1.01,2.23-2.25,2.23s-2.25-1-2.25-2.23v-12.95c0-4.58,3.75-8.29,8.37-8.29h7.2
			C802.911,36.867,806.651,40.577,806.651,45.157"/>
		<path id="desk_00000080888121514971910850000004480731321356772274_" fill="#B1B3B6" d="M801.091,29.597
			c0,3.51-2.87,6.35-6.41,6.35s-6.41-2.84-6.41-6.35s2.87-6.35,6.41-6.35S801.091,26.087,801.091,29.597"/>
		<path id="desk_00000029044091308124958160000005298650995250841472_" fill="#B1B3B6" d="M367.771,45.157v12.96
			c0,1.23-1.01,2.23-2.25,2.23s-2.25-1-2.25-2.23v-11.95c0-0.22-0.18-0.4-0.41-0.4s-0.41,0.18-0.41,0.4v34.63
			c0,1.67-1.36,3.02-3.05,3.02c-1.68,0-3.05-1.35-3.05-3.02v-18.5c0-0.3-0.25-0.55-0.56-0.55s-0.56,0.25-0.56,0.55v18.5
			c0,1.67-1.36,3.02-3.05,3.02c-1.68,0-3.05-1.35-3.05-3.02v-34.78c0-0.22-0.18-0.41-0.41-0.41s-0.41,0.18-0.41,0.41v12.09
			c0,1.23-1.01,2.23-2.25,2.23s-2.25-1-2.25-2.23v-12.95c0-4.58,3.75-8.29,8.37-8.29h7.2
			C364.021,36.867,367.771,40.577,367.771,45.157"/>
		<path id="desk_00000018227563480787106470000013452015515119169947_" fill="#B1B3B6" d="M362.211,29.597
			c0,3.51-2.87,6.35-6.41,6.35s-6.41-2.84-6.41-6.35s2.87-6.35,6.41-6.35C359.341,23.247,362.211,26.087,362.211,29.597"/>
		<path id="desk_00000034779893957780025190000002836104691998156984_" fill="#B1B3B6" d="M748.141,45.157v12.96
			c0,1.23-1.01,2.23-2.25,2.23s-2.25-1-2.25-2.23v-11.95c0-0.22-0.18-0.4-0.41-0.4s-0.41,0.18-0.41,0.4v34.63
			c0,1.67-1.36,3.02-3.05,3.02c-1.68,0-3.05-1.35-3.05-3.02v-18.5c0-0.3-0.25-0.55-0.56-0.55s-0.56,0.25-0.56,0.55v18.5
			c0,1.67-1.36,3.02-3.05,3.02s-3.05-1.35-3.05-3.02v-34.78c0-0.22-0.18-0.41-0.41-0.41s-0.41,0.18-0.41,0.41v12.09
			c0,1.23-1.01,2.23-2.25,2.23s-2.25-1-2.25-2.23v-12.95c0-4.58,3.75-8.29,8.37-8.29h7.2
			C744.391,36.867,748.141,40.577,748.141,45.157"/>
		<path id="desk_00000135654065428139469640000012199944504790996618_" fill="#B1B3B6" d="M742.581,29.597
			c0,3.51-2.87,6.35-6.41,6.35s-6.41-2.84-6.41-6.35s2.87-6.35,6.41-6.35C739.701,23.247,742.581,26.087,742.581,29.597"/>
		<path id="desk_00000063630758847361624630000012799279965946633903_" fill="#B1B3B6" d="M835.911,45.157v12.96
			c0,1.23-1.01,2.23-2.25,2.23s-2.25-1-2.25-2.23v-11.95c0-0.22-0.18-0.4-0.41-0.4s-0.41,0.18-0.41,0.4v34.63
			c0,1.67-1.36,3.02-3.05,3.02c-1.68,0-3.05-1.35-3.05-3.02v-18.5c0-0.3-0.25-0.55-0.56-0.55s-0.56,0.25-0.56,0.55v18.5
			c0,1.67-1.36,3.02-3.05,3.02s-3.05-1.35-3.05-3.02v-34.78c0-0.22-0.18-0.41-0.41-0.41s-0.41,0.18-0.41,0.41v12.09
			c0,1.23-1.01,2.23-2.25,2.23s-2.25-1-2.25-2.23v-12.95c0-4.58,3.75-8.29,8.37-8.29h7.2
			C832.161,36.867,835.911,40.577,835.911,45.157"/>
		<path id="desk_00000022561203622300141650000017492506919650514615_" fill="#B1B3B6" d="M830.351,29.597
			c0,3.51-2.87,6.35-6.41,6.35s-6.41-2.84-6.41-6.35s2.87-6.35,6.41-6.35C827.481,23.247,830.351,26.087,830.351,29.597"/>
		<path id="desk_00000024684100486761145670000000313909422996175792_" fill="#B1B3B6" d="M397.031,45.157v12.96
			c0,1.23-1.01,2.23-2.25,2.23s-2.25-1-2.25-2.23v-11.95c0-0.22-0.18-0.4-0.41-0.4s-0.41,0.18-0.41,0.4v34.63
			c0,1.67-1.36,3.02-3.05,3.02c-1.68,0-3.05-1.35-3.05-3.02v-18.5c0-0.3-0.25-0.55-0.56-0.55s-0.56,0.25-0.56,0.55v18.5
			c0,1.67-1.36,3.02-3.05,3.02c-1.68,0-3.05-1.35-3.05-3.02v-34.78c0-0.22-0.18-0.41-0.41-0.41s-0.41,0.18-0.41,0.41v12.09
			c0,1.23-1.01,2.23-2.25,2.23s-2.25-1-2.25-2.23v-12.95c0-4.58,3.75-8.29,8.37-8.29h7.2
			C393.281,36.867,397.031,40.577,397.031,45.157"/>
		<path id="desk_00000036208977063853262830000002788327908471976877_" fill="#B1B3B6" d="M391.471,29.597
			c0,3.51-2.87,6.35-6.41,6.35s-6.41-2.84-6.41-6.35s2.87-6.35,6.41-6.35S391.471,26.087,391.471,29.597"/>
		<path id="desk_00000006701043447269760430000005928461933784957872_" fill="#B1B3B6" d="M777.401,45.157v12.96
			c0,1.23-1.01,2.23-2.25,2.23s-2.25-1-2.25-2.23v-11.95c0-0.22-0.18-0.4-0.41-0.4s-0.41,0.18-0.41,0.4v34.63
			c0,1.67-1.36,3.02-3.05,3.02c-1.68,0-3.05-1.35-3.05-3.02v-18.5c0-0.3-0.25-0.55-0.56-0.55s-0.56,0.25-0.56,0.55v18.5
			c0,1.67-1.36,3.02-3.05,3.02s-3.05-1.35-3.05-3.02v-34.78c0-0.22-0.18-0.41-0.41-0.41s-0.41,0.18-0.41,0.41v12.09
			c0,1.23-1.01,2.23-2.25,2.23s-2.25-1-2.25-2.23v-12.95c0-4.58,3.75-8.29,8.37-8.29h7.2
			C773.651,36.867,777.401,40.577,777.401,45.157"/>
		<path id="desk_00000147211742270269446530000007319165294323057328_" fill="#B1B3B6" d="M771.831,29.597
			c0,3.51-2.87,6.35-6.41,6.35s-6.41-2.84-6.41-6.35s2.87-6.35,6.41-6.35S771.831,26.087,771.831,29.597"/>
		<path id="desk_00000037691831331230816380000003191916681538498434_" fill="#B1B3B6" d="M865.171,45.157v12.96
			c0,1.23-1.01,2.23-2.25,2.23s-2.25-1-2.25-2.23v-11.95c0-0.22-0.18-0.4-0.41-0.4s-0.41,0.18-0.41,0.4v34.63
			c0,1.67-1.36,3.02-3.05,3.02c-1.68,0-3.05-1.35-3.05-3.02v-18.5c0-0.3-0.25-0.55-0.56-0.55s-0.56,0.25-0.56,0.55v18.5
			c0,1.67-1.36,3.02-3.05,3.02s-3.05-1.35-3.05-3.02v-34.78c0-0.22-0.18-0.41-0.41-0.41s-0.41,0.18-0.41,0.41v12.09
			c0,1.23-1.01,2.23-2.25,2.23s-2.25-1-2.25-2.23v-12.95c0-4.58,3.75-8.29,8.37-8.29h7.2
			C861.421,36.867,865.171,40.577,865.171,45.157"/>
		<path id="desk_00000090991349809794821550000009673152595121051308_" fill="#B1B3B6" d="M859.611,29.597
			c0,3.51-2.87,6.35-6.41,6.35s-6.41-2.84-6.41-6.35s2.87-6.35,6.41-6.35S859.611,26.087,859.611,29.597"/>
		<path id="desk_00000141455319396820803570000013913359889727302530_" fill="#B1B3B6" d="M895.501,45.157v12.96
			c0,1.23-1.01,2.23-2.25,2.23s-2.25-1-2.25-2.23v-11.95c0-0.22-0.18-0.4-0.41-0.4s-0.41,0.18-0.41,0.4v34.63
			c0,1.67-1.36,3.02-3.05,3.02c-1.68,0-3.05-1.35-3.05-3.02v-18.5c0-0.3-0.25-0.55-0.56-0.55s-0.56,0.25-0.56,0.55v18.5
			c0,1.67-1.36,3.02-3.05,3.02s-3.05-1.35-3.05-3.02v-34.78c0-0.22-0.18-0.41-0.41-0.41s-0.41,0.18-0.41,0.41v12.09
			c0,1.23-1.01,2.23-2.25,2.23s-2.25-1-2.25-2.23v-12.95c0-4.58,3.75-8.29,8.37-8.29h7.2
			C891.751,36.867,895.501,40.577,895.501,45.157"/>
		<path id="desk_00000183951177837840851060000005785343623298479276_" fill="#B1B3B6" d="M889.941,29.597
			c0,3.51-2.87,6.35-6.41,6.35s-6.41-2.84-6.41-6.35s2.87-6.35,6.41-6.35S889.941,26.087,889.941,29.597"/>
	</g>
</g>
<style>
#g-illustration-laptop-interactive-img rect, #g-illustration-laptop-interactive-img circle, #g-illustration-laptop-interactive-img path, #g-illustration-laptop-interactive-img line, #g-illustration-laptop-interactive-img polyline, #g-illustration-laptop-interactive-img polygon { vector-effect: non-scaling-stroke; }
</style>
</svg>

