<?xml version="1.0" encoding="utf-8"?>
<!-- Generator: Adobe Illustrator 26.4.1, SVG Export Plug-In . SVG Version: 6.00 Build 0)  -->
<svg version="1.2" baseProfile="tiny" id="g-illustration-mobile-interactive-img" xmlns="http://www.w3.org/2000/svg" xmlns:xlink="http://www.w3.org/1999/xlink"
	 x="0px" y="0px" viewBox="0 0 442.749 623.492" overflow="visible" xml:space="preserve">
<g>
	<g id="toy-gun_00000092449613014835061330000016414184007742663595_">
		<path fill="#F8ABA1" d="M31.207-578.442c0,3.51-2.87,6.35-6.41,6.35s-6.41-2.84-6.41-6.35s2.87-6.35,6.41-6.35
			S31.207-581.952,31.207-578.442"/>
		<path fill="#F8ABA1" d="M417.137-562.882v12.96c0,1.23-1.01,2.23-2.25,2.23s-2.25-1-2.25-2.23v-11.95c0-0.22-0.18-0.4-0.41-0.4
			s-0.41,0.18-0.41,0.4v34.63c0,1.67-1.36,3.02-3.05,3.02c-1.68,0-3.05-1.35-3.05-3.02v-18.5c0-0.3-0.25-0.55-0.56-0.55
			s-0.56,0.25-0.56,0.55v18.5c0,1.67-1.36,3.02-3.05,3.02c-1.68,0-3.05-1.35-3.05-3.02v-34.78c0-0.22-0.18-0.4-0.41-0.4
			s-0.41,0.18-0.41,0.4v12.1c0,1.23-1.01,2.23-2.25,2.23s-2.25-1-2.25-2.23v-12.96c0-4.58,3.75-8.29,8.37-8.29h7.2
			C413.387-571.172,417.137-567.462,417.137-562.882"/>
		<path fill="#F8ABA1" d="M411.577-578.442c0,3.51-2.87,6.35-6.41,6.35s-6.41-2.84-6.41-6.35s2.87-6.35,6.41-6.35
			S411.577-581.952,411.577-578.442"/>
		<path fill="#F8ABA1" d="M66.027-562.882v12.96c0,1.23-1.01,2.23-2.25,2.23c-1.24,0-2.25-1-2.25-2.23v-11.95
			c0-0.22-0.18-0.4-0.41-0.4s-0.41,0.18-0.41,0.4v34.63c0,1.67-1.37,3.02-3.05,3.02s-3.05-1.35-3.05-3.02v-18.5
			c0-0.3-0.25-0.55-0.56-0.55s-0.56,0.25-0.56,0.55v18.5c0,1.67-1.37,3.02-3.05,3.02s-3.05-1.35-3.05-3.02v-34.78
			c0-0.22-0.18-0.4-0.41-0.4s-0.41,0.18-0.41,0.4v12.1c0,1.23-1.01,2.23-2.25,2.23s-2.25-1-2.25-2.23v-12.96
			c0-4.58,3.75-8.29,8.37-8.29h7.2C62.287-571.172,66.027-567.462,66.027-562.882"/>
		<path fill="#F8ABA1" d="M60.467-578.442c0,3.51-2.87,6.35-6.41,6.35s-6.41-2.84-6.41-6.35s2.87-6.35,6.41-6.35
			S60.467-581.952,60.467-578.442"/>
		<path fill="#F8ABA1" d="M446.397-562.882v12.96c0,1.23-1.01,2.23-2.25,2.23s-2.25-1-2.25-2.23v-11.95c0-0.22-0.18-0.4-0.41-0.4
			s-0.41,0.18-0.41,0.4v34.63c0,1.67-1.36,3.02-3.05,3.02c-1.68,0-3.05-1.35-3.05-3.02v-18.5c0-0.3-0.25-0.55-0.56-0.55
			s-0.56,0.25-0.56,0.55v18.5c0,1.67-1.36,3.02-3.05,3.02c-1.68,0-3.05-1.35-3.05-3.02v-34.78c0-0.22-0.18-0.4-0.41-0.4
			s-0.41,0.18-0.41,0.4v12.1c0,1.23-1.01,2.23-2.25,2.23s-2.25-1-2.25-2.23v-12.96c0-4.58,3.75-8.29,8.37-8.29h7.2
			C442.647-571.172,446.397-567.462,446.397-562.882"/>
		<path fill="#F8ABA1" d="M440.837-578.442c0,3.51-2.87,6.35-6.41,6.35s-6.41-2.84-6.41-6.35s2.87-6.35,6.41-6.35
			C437.967-584.792,440.837-581.952,440.837-578.442"/>
		<path fill="#F8ABA1" d="M95.287-562.882v12.96c0,1.23-1.01,2.23-2.25,2.23s-2.25-1-2.25-2.23v-11.95c0-0.22-0.18-0.4-0.41-0.4
			s-0.41,0.18-0.41,0.4v34.63c0,1.67-1.37,3.02-3.05,3.02s-3.05-1.35-3.05-3.02v-18.5c0-0.3-0.25-0.55-0.56-0.55
			s-0.56,0.25-0.56,0.55v18.5c0,1.67-1.36,3.02-3.05,3.02c-1.68,0-3.05-1.35-3.05-3.02v-34.78c0-0.22-0.18-0.4-0.41-0.4
			s-0.41,0.18-0.41,0.4v12.1c0,1.23-1.01,2.23-2.25,2.23s-2.25-1-2.25-2.23v-12.96c0-4.58,3.75-8.29,8.37-8.29h7.2
			C91.537-571.172,95.287-567.462,95.287-562.882"/>
		<path fill="#F8ABA1" d="M89.727-578.442c0,3.51-2.87,6.35-6.41,6.35s-6.41-2.84-6.41-6.35s2.87-6.35,6.41-6.35
			S89.727-581.952,89.727-578.442"/>
		<path fill="#F8ABA1" d="M475.657-562.882v12.96c0,1.23-1.01,2.23-2.25,2.23s-2.25-1-2.25-2.23v-11.95c0-0.22-0.18-0.4-0.41-0.4
			s-0.41,0.18-0.41,0.4v34.63c0,1.67-1.36,3.02-3.05,3.02c-1.68,0-3.05-1.35-3.05-3.02v-18.5c0-0.3-0.25-0.55-0.56-0.55
			s-0.56,0.25-0.56,0.55v18.5c0,1.67-1.36,3.02-3.05,3.02c-1.68,0-3.05-1.35-3.05-3.02v-34.78c0-0.22-0.18-0.4-0.41-0.4
			s-0.41,0.18-0.41,0.4v12.1c0,1.23-1.01,2.23-2.25,2.23s-2.25-1-2.25-2.23v-12.96c0-4.58,3.75-8.29,8.37-8.29h7.2
			C471.907-571.172,475.657-567.462,475.657-562.882"/>
		<path fill="#F8ABA1" d="M470.097-578.442c0,3.51-2.87,6.35-6.41,6.35s-6.41-2.84-6.41-6.35s2.87-6.35,6.41-6.35
			C467.217-584.792,470.097-581.952,470.097-578.442"/>
		<path fill="#F8ABA1" d="M124.547-562.882v12.96c0,1.23-1.01,2.23-2.25,2.23s-2.25-1-2.25-2.23v-11.95c0-0.22-0.18-0.4-0.41-0.4
			s-0.41,0.18-0.41,0.4v34.63c0,1.67-1.37,3.02-3.05,3.02s-3.05-1.35-3.05-3.02v-18.5c0-0.3-0.25-0.55-0.56-0.55
			s-0.56,0.25-0.56,0.55v18.5c0,1.67-1.36,3.02-3.05,3.02c-1.68,0-3.05-1.35-3.05-3.02v-34.78c0-0.22-0.18-0.4-0.41-0.4
			s-0.41,0.18-0.41,0.4v12.1c0,1.23-1.01,2.23-2.25,2.23s-2.25-1-2.25-2.23v-12.96c0-4.58,3.75-8.29,8.37-8.29h7.2
			C120.797-571.172,124.547-567.462,124.547-562.882"/>
		<path fill="#F8ABA1" d="M118.987-578.442c0,3.51-2.87,6.35-6.41,6.35s-6.41-2.84-6.41-6.35s2.87-6.35,6.41-6.35
			S118.987-581.952,118.987-578.442"/>
		<path fill="#F8ABA1" d="M504.917-562.882v12.96c0,1.23-1.01,2.23-2.25,2.23s-2.25-1-2.25-2.23v-11.95c0-0.22-0.18-0.4-0.41-0.4
			s-0.41,0.18-0.41,0.4v34.63c0,1.67-1.36,3.02-3.05,3.02c-1.68,0-3.05-1.35-3.05-3.02v-18.5c0-0.3-0.25-0.55-0.56-0.55
			s-0.56,0.25-0.56,0.55v18.5c0,1.67-1.36,3.02-3.05,3.02c-1.68,0-3.05-1.35-3.05-3.02v-34.78c0-0.22-0.18-0.4-0.41-0.4
			s-0.41,0.18-0.41,0.4v12.1c0,1.23-1.01,2.23-2.25,2.23s-2.25-1-2.25-2.23v-12.96c0-4.58,3.75-8.29,8.37-8.29h7.2
			C501.167-571.172,504.917-567.462,504.917-562.882"/>
		<path fill="#F8ABA1" d="M499.357-578.442c0,3.51-2.87,6.35-6.41,6.35s-6.41-2.84-6.41-6.35s2.87-6.35,6.41-6.35
			C496.477-584.792,499.357-581.952,499.357-578.442"/>
		<path fill="#F8ABA1" d="M153.807-562.882v12.96c0,1.23-1.01,2.23-2.25,2.23s-2.25-1-2.25-2.23v-11.95c0-0.22-0.18-0.4-0.41-0.4
			s-0.41,0.18-0.41,0.4v34.63c0,1.67-1.37,3.02-3.05,3.02c-1.68,0-3.05-1.35-3.05-3.02v-18.5c0-0.3-0.25-0.55-0.56-0.55
			s-0.56,0.25-0.56,0.55v18.5c0,1.67-1.36,3.02-3.05,3.02s-3.05-1.35-3.05-3.02v-34.78c0-0.22-0.18-0.4-0.41-0.4
			s-0.41,0.18-0.41,0.4v12.1c0,1.23-1.01,2.23-2.25,2.23c-1.24,0-2.25-1-2.25-2.23v-12.96c0-4.58,3.75-8.29,8.37-8.29h7.2
			C150.057-571.172,153.807-567.462,153.807-562.882"/>
		<path fill="#F8ABA1" d="M148.247-578.442c0,3.51-2.87,6.35-6.41,6.35s-6.41-2.84-6.41-6.35s2.87-6.35,6.41-6.35
			S148.247-581.952,148.247-578.442"/>
		<path fill="#F8ABA1" d="M534.177-562.882v12.96c0,1.23-1.01,2.23-2.25,2.23s-2.25-1-2.25-2.23v-11.95c0-0.22-0.18-0.4-0.41-0.4
			s-0.41,0.18-0.41,0.4v34.63c0,1.67-1.36,3.02-3.05,3.02c-1.68,0-3.05-1.35-3.05-3.02v-18.5c0-0.3-0.25-0.55-0.56-0.55
			s-0.56,0.25-0.56,0.55v18.5c0,1.67-1.36,3.02-3.05,3.02s-3.05-1.35-3.05-3.02v-34.78c0-0.22-0.18-0.4-0.41-0.4
			c-0.23,0-0.41,0.18-0.41,0.4v12.1c0,1.23-1.01,2.23-2.25,2.23c-1.24,0-2.25-1-2.25-2.23v-12.96c0-4.58,3.75-8.29,8.37-8.29h7.2
			C530.427-571.172,534.177-567.462,534.177-562.882"/>
		<path fill="#F8ABA1" d="M528.607-578.442c0,3.51-2.87,6.35-6.41,6.35s-6.41-2.84-6.41-6.35s2.87-6.35,6.41-6.35
			S528.607-581.952,528.607-578.442"/>
		<path fill="#F8ABA1" d="M183.067-562.882v12.96c0,1.23-1.01,2.23-2.25,2.23s-2.25-1-2.25-2.23v-11.95c0-0.22-0.18-0.4-0.41-0.4
			s-0.41,0.18-0.41,0.4v34.63c0,1.67-1.37,3.02-3.05,3.02c-1.68,0-3.05-1.35-3.05-3.02v-18.5c0-0.3-0.25-0.55-0.56-0.55
			s-0.56,0.25-0.56,0.55v18.5c0,1.67-1.37,3.02-3.05,3.02c-1.68,0-3.05-1.35-3.05-3.02v-34.78c0-0.22-0.18-0.4-0.41-0.4
			c-0.23,0-0.41,0.18-0.41,0.4v12.1c0,1.23-1.01,2.23-2.25,2.23s-2.25-1-2.25-2.23v-12.96c0-4.58,3.75-8.29,8.37-8.29h7.2
			C179.317-571.172,183.067-567.462,183.067-562.882"/>
		<path fill="#F8ABA1" d="M177.507-578.442c0,3.51-2.87,6.35-6.41,6.35c-3.54,0-6.41-2.84-6.41-6.35s2.87-6.35,6.41-6.35
			S177.507-581.952,177.507-578.442"/>
		<path fill="#F8ABA1" d="M563.427-562.882v12.96c0,1.23-1.01,2.23-2.25,2.23s-2.25-1-2.25-2.23v-11.95c0-0.22-0.18-0.4-0.41-0.4
			s-0.41,0.18-0.41,0.4v34.63c0,1.67-1.36,3.02-3.05,3.02c-1.68,0-3.05-1.35-3.05-3.02v-18.5c0-0.3-0.25-0.55-0.56-0.55
			s-0.56,0.25-0.56,0.55v18.5c0,1.67-1.36,3.02-3.05,3.02s-3.05-1.35-3.05-3.02v-34.78c0-0.22-0.18-0.4-0.41-0.4
			s-0.41,0.18-0.41,0.4v12.1c0,1.23-1.01,2.23-2.25,2.23s-2.25-1-2.25-2.23v-12.96c0-4.58,3.75-8.29,8.37-8.29h7.2
			C559.677-571.172,563.427-567.462,563.427-562.882"/>
		<path fill="#F8ABA1" d="M557.867-578.442c0,3.51-2.87,6.35-6.41,6.35s-6.41-2.84-6.41-6.35s2.87-6.35,6.41-6.35
			S557.867-581.952,557.867-578.442"/>
		<path fill="#F8ABA1" d="M212.327-562.882v12.96c0,1.23-1.01,2.23-2.25,2.23s-2.25-1-2.25-2.23v-11.95c0-0.22-0.18-0.4-0.41-0.4
			s-0.41,0.18-0.41,0.4v34.63c0,1.67-1.37,3.02-3.05,3.02c-1.68,0-3.05-1.35-3.05-3.02v-18.5c0-0.3-0.25-0.55-0.56-0.55
			s-0.56,0.25-0.56,0.55v18.5c0,1.67-1.37,3.02-3.05,3.02c-1.68,0-3.05-1.35-3.05-3.02v-34.78c0-0.22-0.18-0.4-0.41-0.4
			c-0.23,0-0.41,0.18-0.41,0.4v12.1c0,1.23-1.01,2.23-2.25,2.23s-2.25-1-2.25-2.23v-12.96c0-4.58,3.75-8.29,8.37-8.29h7.2
			C208.577-571.172,212.327-567.462,212.327-562.882"/>
		<path fill="#F8ABA1" d="M206.767-578.442c0,3.51-2.87,6.35-6.41,6.35c-3.54,0-6.41-2.84-6.41-6.35s2.87-6.35,6.41-6.35
			C203.897-584.792,206.767-581.952,206.767-578.442"/>
		<path fill="#F8ABA1" d="M592.687-562.882v12.96c0,1.23-1.01,2.23-2.25,2.23s-2.25-1-2.25-2.23v-11.95c0-0.22-0.18-0.4-0.41-0.4
			s-0.41,0.18-0.41,0.4v34.63c0,1.67-1.36,3.02-3.05,3.02c-1.68,0-3.05-1.35-3.05-3.02v-18.5c0-0.3-0.25-0.55-0.56-0.55
			s-0.56,0.25-0.56,0.55v18.5c0,1.67-1.36,3.02-3.05,3.02s-3.05-1.35-3.05-3.02v-34.78c0-0.22-0.18-0.4-0.41-0.4
			s-0.41,0.18-0.41,0.4v12.1c0,1.23-1.01,2.23-2.25,2.23s-2.25-1-2.25-2.23v-12.96c0-4.58,3.75-8.29,8.37-8.29h7.2
			C588.937-571.172,592.687-567.462,592.687-562.882"/>
		<path fill="#F8ABA1" d="M587.127-578.442c0,3.51-2.87,6.35-6.41,6.35s-6.41-2.84-6.41-6.35s2.87-6.35,6.41-6.35
			S587.127-581.952,587.127-578.442"/>
		<path fill="#F8ABA1" d="M241.587-562.882v12.96c0,1.23-1.01,2.23-2.25,2.23s-2.25-1-2.25-2.23v-11.95c0-0.22-0.18-0.4-0.41-0.4
			s-0.41,0.18-0.41,0.4v34.63c0,1.67-1.37,3.02-3.05,3.02c-1.68,0-3.05-1.35-3.05-3.02v-18.5c0-0.3-0.25-0.55-0.56-0.55
			s-0.56,0.25-0.56,0.55v18.5c0,1.67-1.37,3.02-3.05,3.02c-1.68,0-3.05-1.35-3.05-3.02v-34.78c0-0.22-0.18-0.4-0.41-0.4
			c-0.23,0-0.41,0.18-0.41,0.4v12.1c0,1.23-1.01,2.23-2.25,2.23s-2.25-1-2.25-2.23v-12.96c0-4.58,3.75-8.29,8.37-8.29h7.2
			C237.837-571.172,241.587-567.462,241.587-562.882"/>
		<path fill="#F8ABA1" d="M236.027-578.442c0,3.51-2.87,6.35-6.41,6.35c-3.54,0-6.41-2.84-6.41-6.35s2.87-6.35,6.41-6.35
			C233.147-584.792,236.027-581.952,236.027-578.442"/>
		<path fill="#F8ABA1" d="M621.947-562.882v12.96c0,1.23-1.01,2.23-2.25,2.23s-2.25-1-2.25-2.23v-11.95c0-0.22-0.18-0.4-0.41-0.4
			s-0.41,0.18-0.41,0.4v34.63c0,1.67-1.36,3.02-3.05,3.02c-1.68,0-3.05-1.35-3.05-3.02v-18.5c0-0.3-0.25-0.55-0.56-0.55
			s-0.56,0.25-0.56,0.55v18.5c0,1.67-1.36,3.02-3.05,3.02s-3.05-1.35-3.05-3.02v-34.78c0-0.22-0.18-0.4-0.41-0.4
			s-0.41,0.18-0.41,0.4v12.1c0,1.23-1.01,2.23-2.25,2.23s-2.25-1-2.25-2.23v-12.96c0-4.58,3.75-8.29,8.37-8.29h7.2
			C618.197-571.172,621.947-567.462,621.947-562.882"/>
		<path fill="#F8ABA1" d="M616.387-578.442c0,3.51-2.87,6.35-6.41,6.35s-6.41-2.84-6.41-6.35s2.87-6.35,6.41-6.35
			C613.517-584.792,616.387-581.952,616.387-578.442"/>
		<path fill="#F8ABA1" d="M270.847-562.882v12.96c0,1.23-1.01,2.23-2.25,2.23s-2.25-1-2.25-2.23v-11.95c0-0.22-0.18-0.4-0.41-0.4
			s-0.41,0.18-0.41,0.4v34.63c0,1.67-1.37,3.02-3.05,3.02s-3.05-1.35-3.05-3.02v-18.5c0-0.3-0.25-0.55-0.56-0.55
			s-0.56,0.25-0.56,0.55v18.5c0,1.67-1.37,3.02-3.05,3.02c-1.68,0-3.05-1.35-3.05-3.02v-34.78c0-0.22-0.18-0.4-0.41-0.4
			c-0.23,0-0.41,0.18-0.41,0.4v12.1c0,1.23-1.01,2.23-2.25,2.23s-2.25-1-2.25-2.23v-12.96c0-4.58,3.75-8.29,8.37-8.29h7.2
			C267.097-571.172,270.847-567.462,270.847-562.882"/>
		<path fill="#F8ABA1" d="M265.277-578.442c0,3.51-2.87,6.35-6.41,6.35s-6.41-2.84-6.41-6.35s2.87-6.35,6.41-6.35
			C262.407-584.792,265.277-581.952,265.277-578.442"/>
		<path fill="#F8ABA1" d="M651.207-562.882v12.96c0,1.23-1.01,2.23-2.25,2.23s-2.25-1-2.25-2.23v-11.95c0-0.22-0.18-0.4-0.41-0.4
			s-0.41,0.18-0.41,0.4v34.63c0,1.67-1.36,3.02-3.05,3.02c-1.68,0-3.05-1.35-3.05-3.02v-18.5c0-0.3-0.25-0.55-0.56-0.55
			s-0.56,0.25-0.56,0.55v18.5c0,1.67-1.36,3.02-3.05,3.02s-3.05-1.35-3.05-3.02v-34.78c0-0.22-0.18-0.4-0.41-0.4
			s-0.41,0.18-0.41,0.4v12.1c0,1.23-1.01,2.23-2.25,2.23s-2.25-1-2.25-2.23v-12.96c0-4.58,3.75-8.29,8.37-8.29h7.2
			C647.457-571.172,651.207-567.462,651.207-562.882"/>
		<path fill="#F8ABA1" d="M645.647-578.442c0,3.51-2.87,6.35-6.41,6.35s-6.41-2.84-6.41-6.35s2.87-6.35,6.41-6.35
			S645.647-581.952,645.647-578.442"/>
		<path fill="#F8ABA1" d="M300.097-562.882v12.96c0,1.23-1.01,2.23-2.25,2.23s-2.25-1-2.25-2.23v-11.95c0-0.22-0.18-0.4-0.41-0.4
			s-0.41,0.18-0.41,0.4v34.63c0,1.67-1.36,3.02-3.05,3.02c-1.68,0-3.05-1.35-3.05-3.02v-18.5c0-0.3-0.25-0.55-0.56-0.55
			s-0.56,0.25-0.56,0.55v18.5c0,1.67-1.36,3.02-3.05,3.02c-1.68,0-3.05-1.35-3.05-3.02v-34.78c0-0.22-0.18-0.4-0.41-0.4
			s-0.41,0.18-0.41,0.4v12.1c0,1.23-1.01,2.23-2.25,2.23s-2.25-1-2.25-2.23v-12.96c0-4.58,3.75-8.29,8.37-8.29h7.2
			C296.357-571.172,300.097-567.462,300.097-562.882"/>
		<path fill="#F8ABA1" d="M294.537-578.442c0,3.51-2.87,6.35-6.41,6.35s-6.41-2.84-6.41-6.35s2.87-6.35,6.41-6.35
			S294.537-581.952,294.537-578.442"/>
		<path fill="#F8ABA1" d="M680.467-562.882v12.96c0,1.23-1.01,2.23-2.25,2.23s-2.25-1-2.25-2.23v-11.95c0-0.22-0.18-0.4-0.41-0.4
			s-0.41,0.18-0.41,0.4v34.63c0,1.67-1.36,3.02-3.05,3.02c-1.68,0-3.05-1.35-3.05-3.02v-18.5c0-0.3-0.25-0.55-0.56-0.55
			s-0.56,0.25-0.56,0.55v18.5c0,1.67-1.36,3.02-3.05,3.02s-3.05-1.35-3.05-3.02v-34.78c0-0.22-0.18-0.4-0.41-0.4
			s-0.41,0.18-0.41,0.4v12.1c0,1.23-1.01,2.23-2.25,2.23s-2.25-1-2.25-2.23v-12.96c0-4.58,3.75-8.29,8.37-8.29h7.2
			C676.717-571.172,680.467-567.462,680.467-562.882"/>
		<path fill="#F8ABA1" d="M674.907-578.442c0,3.51-2.87,6.35-6.41,6.35s-6.41-2.84-6.41-6.35s2.87-6.35,6.41-6.35
			S674.907-581.952,674.907-578.442"/>
		<path fill="#F8ABA1" d="M329.357-562.882v12.96c0,1.23-1.01,2.23-2.25,2.23s-2.25-1-2.25-2.23v-11.95c0-0.22-0.18-0.4-0.41-0.4
			s-0.41,0.18-0.41,0.4v34.63c0,1.67-1.36,3.02-3.05,3.02c-1.68,0-3.05-1.35-3.05-3.02v-18.5c0-0.3-0.25-0.55-0.56-0.55
			s-0.56,0.25-0.56,0.55v18.5c0,1.67-1.36,3.02-3.05,3.02c-1.68,0-3.05-1.35-3.05-3.02v-34.78c0-0.22-0.18-0.4-0.41-0.4
			s-0.41,0.18-0.41,0.4v12.1c0,1.23-1.01,2.23-2.25,2.23s-2.25-1-2.25-2.23v-12.96c0-4.58,3.75-8.29,8.37-8.29h7.2
			C325.607-571.172,329.357-567.462,329.357-562.882"/>
		<path fill="#F8ABA1" d="M323.797-578.442c0,3.51-2.87,6.35-6.41,6.35s-6.41-2.84-6.41-6.35s2.87-6.35,6.41-6.35
			S323.797-581.952,323.797-578.442"/>
		<path fill="#F8ABA1" d="M709.727-562.882v12.96c0,1.23-1.01,2.23-2.25,2.23s-2.25-1-2.25-2.23v-11.95c0-0.22-0.18-0.4-0.41-0.4
			s-0.41,0.18-0.41,0.4v34.63c0,1.67-1.36,3.02-3.05,3.02c-1.68,0-3.05-1.35-3.05-3.02v-18.5c0-0.3-0.25-0.55-0.56-0.55
			s-0.56,0.25-0.56,0.55v18.5c0,1.67-1.36,3.02-3.05,3.02s-3.05-1.35-3.05-3.02v-34.78c0-0.22-0.18-0.4-0.41-0.4
			s-0.41,0.18-0.41,0.4v12.1c0,1.23-1.01,2.23-2.25,2.23s-2.25-1-2.25-2.23v-12.96c0-4.58,3.75-8.29,8.37-8.29h7.2
			C705.977-571.172,709.727-567.462,709.727-562.882"/>
		<path fill="#F8ABA1" d="M704.167-578.442c0,3.51-2.87,6.35-6.41,6.35s-6.41-2.84-6.41-6.35s2.87-6.35,6.41-6.35
			C701.287-584.792,704.167-581.952,704.167-578.442"/>
		<path fill="#F8ABA1" d="M797.497-562.882v12.96c0,1.23-1.01,2.23-2.25,2.23s-2.25-1-2.25-2.23v-11.95c0-0.22-0.18-0.4-0.41-0.4
			s-0.41,0.18-0.41,0.4v34.63c0,1.67-1.36,3.02-3.05,3.02c-1.68,0-3.05-1.35-3.05-3.02v-18.5c0-0.3-0.25-0.55-0.56-0.55
			s-0.56,0.25-0.56,0.55v18.5c0,1.67-1.36,3.02-3.05,3.02s-3.05-1.35-3.05-3.02v-34.78c0-0.22-0.18-0.4-0.41-0.4
			s-0.41,0.18-0.41,0.4v12.1c0,1.23-1.01,2.23-2.25,2.23s-2.25-1-2.25-2.23v-12.96c0-4.58,3.75-8.29,8.37-8.29h7.2
			C793.757-571.172,797.497-567.462,797.497-562.882"/>
		<path fill="#F8ABA1" d="M791.937-578.442c0,3.51-2.87,6.35-6.41,6.35s-6.41-2.84-6.41-6.35s2.87-6.35,6.41-6.35
			S791.937-581.952,791.937-578.442"/>
		<path fill="#F8ABA1" d="M358.617-562.882v12.96c0,1.23-1.01,2.23-2.25,2.23s-2.25-1-2.25-2.23v-11.95c0-0.22-0.18-0.4-0.41-0.4
			s-0.41,0.18-0.41,0.4v34.63c0,1.67-1.36,3.02-3.05,3.02c-1.68,0-3.05-1.35-3.05-3.02v-18.5c0-0.3-0.25-0.55-0.56-0.55
			s-0.56,0.25-0.56,0.55v18.5c0,1.67-1.36,3.02-3.05,3.02c-1.68,0-3.05-1.35-3.05-3.02v-34.78c0-0.22-0.18-0.4-0.41-0.4
			s-0.41,0.18-0.41,0.4v12.1c0,1.23-1.01,2.23-2.25,2.23s-2.25-1-2.25-2.23v-12.96c0-4.58,3.75-8.29,8.37-8.29h7.2
			C354.867-571.172,358.617-567.462,358.617-562.882"/>
		<path fill="#F8ABA1" d="M353.057-578.442c0,3.51-2.87,6.35-6.41,6.35s-6.41-2.84-6.41-6.35s2.87-6.35,6.41-6.35
			C350.187-584.792,353.057-581.952,353.057-578.442"/>
		<path fill="#F8ABA1" d="M738.987-562.882v12.96c0,1.23-1.01,2.23-2.25,2.23s-2.25-1-2.25-2.23v-11.95c0-0.22-0.18-0.4-0.41-0.4
			s-0.41,0.18-0.41,0.4v34.63c0,1.67-1.36,3.02-3.05,3.02c-1.68,0-3.05-1.35-3.05-3.02v-18.5c0-0.3-0.25-0.55-0.56-0.55
			s-0.56,0.25-0.56,0.55v18.5c0,1.67-1.36,3.02-3.05,3.02s-3.05-1.35-3.05-3.02v-34.78c0-0.22-0.18-0.4-0.41-0.4
			s-0.41,0.18-0.41,0.4v12.1c0,1.23-1.01,2.23-2.25,2.23s-2.25-1-2.25-2.23v-12.96c0-4.58,3.75-8.29,8.37-8.29h7.2
			C735.237-571.172,738.987-567.462,738.987-562.882"/>
		<path fill="#F8ABA1" d="M733.427-578.442c0,3.51-2.87,6.35-6.41,6.35s-6.41-2.84-6.41-6.35s2.87-6.35,6.41-6.35
			C730.547-584.792,733.427-581.952,733.427-578.442"/>
		<path fill="#F8ABA1" d="M826.757-562.882v12.96c0,1.23-1.01,2.23-2.25,2.23s-2.25-1-2.25-2.23v-11.95c0-0.22-0.18-0.4-0.41-0.4
			s-0.41,0.18-0.41,0.4v34.63c0,1.67-1.36,3.02-3.05,3.02c-1.68,0-3.05-1.35-3.05-3.02v-18.5c0-0.3-0.25-0.55-0.56-0.55
			s-0.56,0.25-0.56,0.55v18.5c0,1.67-1.36,3.02-3.05,3.02s-3.05-1.35-3.05-3.02v-34.78c0-0.22-0.18-0.4-0.41-0.4
			s-0.41,0.18-0.41,0.4v12.1c0,1.23-1.01,2.23-2.25,2.23s-2.25-1-2.25-2.23v-12.96c0-4.58,3.75-8.29,8.37-8.29h7.2
			C823.007-571.172,826.757-567.462,826.757-562.882"/>
		<path fill="#F8ABA1" d="M821.197-578.442c0,3.51-2.87,6.35-6.41,6.35s-6.41-2.84-6.41-6.35s2.87-6.35,6.41-6.35
			C818.327-584.792,821.197-581.952,821.197-578.442"/>
		<path fill="#F8ABA1" d="M387.877-562.882v12.96c0,1.23-1.01,2.23-2.25,2.23s-2.25-1-2.25-2.23v-11.95c0-0.22-0.18-0.4-0.41-0.4
			s-0.41,0.18-0.41,0.4v34.63c0,1.67-1.36,3.02-3.05,3.02c-1.68,0-3.05-1.35-3.05-3.02v-18.5c0-0.3-0.25-0.55-0.56-0.55
			s-0.56,0.25-0.56,0.55v18.5c0,1.67-1.36,3.02-3.05,3.02c-1.68,0-3.05-1.35-3.05-3.02v-34.78c0-0.22-0.18-0.4-0.41-0.4
			s-0.41,0.18-0.41,0.4v12.1c0,1.23-1.01,2.23-2.25,2.23s-2.25-1-2.25-2.23v-12.96c0-4.58,3.75-8.29,8.37-8.29h7.2
			C384.127-571.172,387.877-567.462,387.877-562.882"/>
		<path fill="#F8ABA1" d="M382.317-578.442c0,3.51-2.87,6.35-6.41,6.35s-6.41-2.84-6.41-6.35s2.87-6.35,6.41-6.35
			S382.317-581.952,382.317-578.442"/>
		<path fill="#F8ABA1" d="M768.247-562.882v12.96c0,1.23-1.01,2.23-2.25,2.23s-2.25-1-2.25-2.23v-11.95c0-0.22-0.18-0.4-0.41-0.4
			s-0.41,0.18-0.41,0.4v34.63c0,1.67-1.36,3.02-3.05,3.02c-1.68,0-3.05-1.35-3.05-3.02v-18.5c0-0.3-0.25-0.55-0.56-0.55
			s-0.56,0.25-0.56,0.55v18.5c0,1.67-1.36,3.02-3.05,3.02s-3.05-1.35-3.05-3.02v-34.78c0-0.22-0.18-0.4-0.41-0.4
			s-0.41,0.18-0.41,0.4v12.1c0,1.23-1.01,2.23-2.25,2.23s-2.25-1-2.25-2.23v-12.96c0-4.58,3.75-8.29,8.37-8.29h7.2
			C764.497-571.172,768.247-567.462,768.247-562.882"/>
		<path fill="#F8ABA1" d="M762.677-578.442c0,3.51-2.87,6.35-6.41,6.35s-6.41-2.84-6.41-6.35s2.87-6.35,6.41-6.35
			S762.677-581.952,762.677-578.442"/>
		<path fill="#F8ABA1" d="M856.017-562.882v12.96c0,1.23-1.01,2.23-2.25,2.23s-2.25-1-2.25-2.23v-11.95c0-0.22-0.18-0.4-0.41-0.4
			s-0.41,0.18-0.41,0.4v34.63c0,1.67-1.36,3.02-3.05,3.02c-1.68,0-3.05-1.35-3.05-3.02v-18.5c0-0.3-0.25-0.55-0.56-0.55
			s-0.56,0.25-0.56,0.55v18.5c0,1.67-1.36,3.02-3.05,3.02s-3.05-1.35-3.05-3.02v-34.78c0-0.22-0.18-0.4-0.41-0.4
			s-0.41,0.18-0.41,0.4v12.1c0,1.23-1.01,2.23-2.25,2.23s-2.25-1-2.25-2.23v-12.96c0-4.58,3.75-8.29,8.37-8.29h7.2
			C852.267-571.172,856.017-567.462,856.017-562.882"/>
		<path fill="#F8ABA1" d="M850.457-578.442c0,3.51-2.87,6.35-6.41,6.35s-6.41-2.84-6.41-6.35s2.87-6.35,6.41-6.35
			S850.457-581.952,850.457-578.442"/>
		<path fill="#F8ABA1" d="M885.277-562.882v12.96c0,1.23-1.01,2.23-2.25,2.23s-2.25-1-2.25-2.23v-11.95c0-0.22-0.18-0.4-0.41-0.4
			s-0.41,0.18-0.41,0.4v34.63c0,1.67-1.36,3.02-3.05,3.02c-1.68,0-3.05-1.35-3.05-3.02v-18.5c0-0.3-0.25-0.55-0.56-0.55
			s-0.56,0.25-0.56,0.55v18.5c0,1.67-1.36,3.02-3.05,3.02s-3.05-1.35-3.05-3.02v-34.78c0-0.22-0.18-0.4-0.41-0.4
			s-0.41,0.18-0.41,0.4v12.1c0,1.23-1.01,2.23-2.25,2.23s-2.25-1-2.25-2.23v-12.96c0-4.58,3.75-8.29,8.37-8.29h7.2
			C881.527-571.172,885.277-567.462,885.277-562.882"/>
		<path fill="#F8ABA1" d="M879.717-578.442c0,3.51-2.87,6.35-6.41,6.35s-6.41-2.84-6.41-6.35s2.87-6.35,6.41-6.35
			S879.717-581.952,879.717-578.442"/>
		<path fill="#F8ABA1" d="M35.747,109.14v12.41c0,1.18-0.96,2.13-2.15,2.13c-1.19,0-2.15-0.95-2.15-2.13v-11.44
			c0-0.21-0.18-0.39-0.39-0.39c-0.22,0-0.39,0.17-0.39,0.39v33.15c0,1.6-1.31,2.89-2.92,2.89s-2.92-1.29-2.92-2.89v-17.71
			c0-0.29-0.24-0.53-0.53-0.53s-0.53,0.24-0.53,0.53v17.71c0,1.6-1.31,2.89-2.92,2.89s-2.92-1.29-2.92-2.89v-33.29
			c0-0.21-0.18-0.39-0.39-0.39c-0.21,0-0.39,0.17-0.39,0.39v11.58c0,1.18-0.97,2.13-2.15,2.13s-2.15-0.95-2.15-2.13v-12.41
			c0-4.38,3.59-7.93,8.01-7.93h6.9C32.167,101.21,35.747,104.76,35.747,109.14"/>
		<path fill="#F8ABA1" d="M30.427,94.25c0,3.36-2.75,6.08-6.14,6.08s-6.14-2.72-6.14-6.08s2.75-6.08,6.14-6.08
			S30.427,90.89,30.427,94.25"/>
		<path fill="#F8ABA1" d="M63.757,109.14v12.41c0,1.18-0.96,2.13-2.15,2.13c-1.19,0-2.15-0.95-2.15-2.13v-11.44
			c0-0.21-0.18-0.39-0.39-0.39s-0.39,0.17-0.39,0.39v33.15c0,1.6-1.31,2.89-2.92,2.89s-2.92-1.29-2.92-2.89v-17.71
			c0-0.29-0.24-0.53-0.53-0.53c-0.29,0-0.53,0.24-0.53,0.53v17.71c0,1.6-1.31,2.89-2.92,2.89s-2.93-1.3-2.93-2.89v-33.29
			c0-0.21-0.18-0.39-0.39-0.39s-0.39,0.17-0.39,0.39v11.58c0,1.18-0.97,2.13-2.15,2.13s-2.15-0.95-2.15-2.13v-12.41
			c0-4.38,3.59-7.93,8.01-7.93h6.9C60.167,101.21,63.757,104.76,63.757,109.14"/>
		<path fill="#F8ABA1" d="M58.437,94.25c0,3.36-2.75,6.08-6.14,6.08s-6.14-2.72-6.14-6.08s2.75-6.08,6.14-6.08
			S58.437,90.89,58.437,94.25"/>
		<path fill="#F8ABA1" d="M91.767,109.14v12.41c0,1.18-0.96,2.13-2.15,2.13s-2.15-0.95-2.15-2.13v-11.44c0-0.21-0.18-0.39-0.39-0.39
			c-0.22,0-0.39,0.17-0.39,0.39v33.15c0,1.6-1.31,2.89-2.92,2.89s-2.92-1.29-2.92-2.89v-17.71c0-0.29-0.24-0.53-0.53-0.53
			s-0.53,0.24-0.53,0.53v17.71c0,1.6-1.31,2.89-2.92,2.89s-2.94-1.3-2.94-2.89v-33.29c0-0.21-0.18-0.39-0.39-0.39
			c-0.22,0-0.39,0.17-0.39,0.39v11.58c0,1.18-0.96,2.13-2.15,2.13s-2.15-0.95-2.15-2.13v-12.41c0-4.38,3.59-7.93,8.01-7.93h6.9
			C88.177,101.21,91.767,104.76,91.767,109.14"/>
		<path fill="#F8ABA1" d="M86.437,94.25c0,3.36-2.75,6.08-6.14,6.08s-6.14-2.72-6.14-6.08s2.75-6.08,6.14-6.08
			C83.697,88.17,86.437,90.89,86.437,94.25"/>
		<path fill="#F8ABA1" d="M119.767,109.14v12.41c0,1.18-0.96,2.13-2.15,2.13s-2.15-0.95-2.15-2.13v-11.44
			c0-0.21-0.18-0.39-0.39-0.39c-0.22,0-0.39,0.17-0.39,0.39v33.15c0,1.6-1.31,2.89-2.92,2.89s-2.92-1.29-2.92-2.89v-17.71
			c0-0.29-0.24-0.53-0.53-0.53s-0.53,0.24-0.53,0.53v17.71c0,1.6-1.31,2.89-2.92,2.89s-2.92-1.29-2.92-2.89v-33.29
			c0-0.21-0.18-0.39-0.39-0.39c-0.22,0-0.39,0.17-0.39,0.39v11.58c0,1.18-0.96,2.13-2.15,2.13s-2.15-0.95-2.15-2.13v-12.41
			c0-4.38,3.59-7.93,8.01-7.93h6.9C116.187,101.21,119.767,104.76,119.767,109.14"/>
		<path fill="#F8ABA1" d="M114.447,94.25c0,3.36-2.75,6.08-6.14,6.08s-6.14-2.72-6.14-6.08s2.75-6.08,6.14-6.08
			S114.447,90.89,114.447,94.25"/>
		<path fill="#F8ABA1" d="M147.777,109.14v12.41c0,1.18-0.96,2.13-2.15,2.13c-1.19,0-2.15-0.95-2.15-2.13v-11.44
			c0-0.21-0.18-0.39-0.39-0.39s-0.39,0.17-0.39,0.39v33.15c0,1.6-1.31,2.89-2.92,2.89s-2.92-1.29-2.92-2.89v-17.71
			c0-0.29-0.24-0.53-0.53-0.53s-0.53,0.24-0.53,0.53v17.71c0,1.6-1.31,2.89-2.92,2.89s-2.92-1.29-2.92-2.89v-33.29
			c0-0.21-0.18-0.39-0.39-0.39c-0.22,0-0.39,0.17-0.39,0.39v11.58c0,1.18-0.96,2.13-2.15,2.13s-2.15-0.95-2.15-2.13v-12.41
			c0-4.38,3.59-7.93,8.01-7.93h6.9C144.187,101.21,147.777,104.76,147.777,109.14"/>
		<path fill="#F8ABA1" d="M142.457,94.25c0,3.36-2.75,6.08-6.14,6.08s-6.14-2.72-6.14-6.08s2.75-6.08,6.14-6.08
			S142.457,90.89,142.457,94.25"/>
		<path fill="#F8ABA1" d="M175.787,109.14v12.41c0,1.18-0.96,2.13-2.15,2.13c-1.19,0-2.15-0.95-2.15-2.13v-11.44
			c0-0.21-0.18-0.39-0.39-0.39s-0.39,0.17-0.39,0.39v33.15c0,1.6-1.31,2.89-2.92,2.89s-2.92-1.29-2.92-2.89v-17.71
			c0-0.29-0.24-0.53-0.53-0.53s-0.53,0.24-0.53,0.53v17.71c0,1.6-1.31,2.89-2.92,2.89s-2.92-1.29-2.92-2.89v-33.29
			c0-0.21-0.18-0.39-0.39-0.39c-0.22,0-0.39,0.17-0.39,0.39v11.58c0,1.18-0.96,2.13-2.15,2.13c-1.19,0-2.15-0.95-2.15-2.13v-12.41
			c0-4.38,3.59-7.93,8.01-7.93h6.9C172.197,101.21,175.787,104.76,175.787,109.14"/>
		<path fill="#F8ABA1" d="M170.457,94.25c0,3.36-2.75,6.08-6.14,6.08s-6.14-2.72-6.14-6.08s2.75-6.08,6.14-6.08
			S170.457,90.89,170.457,94.25"/>
		<path fill="#F8ABA1" d="M203.787,109.14v12.41c0,1.18-0.96,2.13-2.15,2.13c-1.19,0-2.15-0.95-2.15-2.13v-11.44
			c0-0.21-0.18-0.39-0.39-0.39s-0.39,0.17-0.39,0.39v33.15c0,1.6-1.31,2.89-2.92,2.89s-2.92-1.29-2.92-2.89v-17.71
			c0-0.29-0.24-0.53-0.53-0.53s-0.53,0.24-0.53,0.53v17.71c0,1.6-1.31,2.89-2.92,2.89s-2.92-1.29-2.92-2.89v-33.29
			c0-0.21-0.18-0.39-0.39-0.39c-0.22,0-0.39,0.17-0.39,0.39v11.58c0,1.18-0.96,2.13-2.15,2.13c-1.19,0-2.15-0.95-2.15-2.13v-12.41
			c0-4.38,3.59-7.93,8.01-7.93h6.9C200.197,101.21,203.787,104.76,203.787,109.14"/>
		<path fill="#F8ABA1" d="M198.467,94.25c0,3.36-2.75,6.08-6.14,6.08s-6.14-2.72-6.14-6.08s2.75-6.08,6.14-6.08
			S198.467,90.89,198.467,94.25"/>
		<path fill="#F8ABA1" d="M231.797,109.14v12.41c0,1.18-0.96,2.13-2.15,2.13c-1.19,0-2.15-0.95-2.15-2.13v-11.44
			c0-0.21-0.18-0.39-0.39-0.39s-0.39,0.17-0.39,0.39v33.15c0,1.6-1.31,2.89-2.92,2.89s-2.92-1.29-2.92-2.89v-17.71
			c0-0.29-0.24-0.53-0.53-0.53s-0.53,0.24-0.53,0.53v17.71c0,1.6-1.31,2.89-2.92,2.89s-2.92-1.29-2.92-2.89v-33.29
			c0-0.21-0.18-0.39-0.39-0.39c-0.22,0-0.39,0.17-0.39,0.39v11.58c0,1.18-0.96,2.13-2.15,2.13c-1.19,0-2.15-0.95-2.15-2.13v-12.41
			c0-4.38,3.59-7.93,8.01-7.93h6.9C228.207,101.21,231.797,104.76,231.797,109.14"/>
		<path fill="#F8ABA1" d="M226.477,94.25c0,3.36-2.75,6.08-6.14,6.08s-6.14-2.72-6.14-6.08s2.75-6.08,6.14-6.08
			S226.477,90.89,226.477,94.25"/>
		<path fill="#F8ABA1" d="M259.807,109.14v12.41c0,1.18-0.96,2.13-2.15,2.13s-2.15-0.95-2.15-2.13v-11.44
			c0-0.21-0.18-0.39-0.39-0.39s-0.39,0.17-0.39,0.39v33.15c0,1.6-1.31,2.89-2.92,2.89s-2.92-1.29-2.92-2.89v-17.71
			c0-0.29-0.24-0.53-0.53-0.53s-0.53,0.24-0.53,0.53v17.71c0,1.6-1.31,2.89-2.92,2.89s-2.92-1.29-2.92-2.89v-33.29
			c0-0.21-0.18-0.39-0.39-0.39c-0.22,0-0.39,0.17-0.39,0.39v11.58c0,1.18-0.96,2.13-2.15,2.13c-1.19,0-2.15-0.95-2.15-2.13v-12.41
			c0-4.38,3.59-7.93,8.01-7.93h6.9C256.217,101.21,259.807,104.76,259.807,109.14"/>
		<path fill="#F8ABA1" d="M254.477,94.25c0,3.36-2.75,6.08-6.14,6.08s-6.14-2.72-6.14-6.08s2.75-6.08,6.14-6.08
			S254.477,90.89,254.477,94.25"/>
		<path fill="#F8ABA1" d="M287.807,109.14v12.41c0,1.18-0.96,2.13-2.15,2.13s-2.15-0.95-2.15-2.13v-11.44
			c0-0.21-0.18-0.39-0.39-0.39s-0.39,0.17-0.39,0.39v33.15c0,1.6-1.31,2.89-2.92,2.89s-2.92-1.29-2.92-2.89v-17.71
			c0-0.29-0.24-0.53-0.53-0.53c-0.3,0-0.53,0.24-0.53,0.53v17.71c0,1.6-1.31,2.89-2.92,2.89s-2.92-1.29-2.92-2.89v-33.29
			c0-0.21-0.17-0.39-0.39-0.39s-0.39,0.17-0.39,0.39v11.58c0,1.18-0.96,2.13-2.15,2.13s-2.15-0.95-2.15-2.13v-12.41
			c0-4.38,3.59-7.93,8.02-7.93h6.9C284.217,101.21,287.807,104.76,287.807,109.14"/>
		<path fill="#F8ABA1" d="M282.487,94.25c0,3.36-2.75,6.08-6.14,6.08s-6.14-2.72-6.14-6.08s2.75-6.08,6.14-6.08
			S282.487,90.89,282.487,94.25"/>
		<path fill="#F8ABA1" d="M315.817,109.14v12.41c0,1.18-0.96,2.13-2.15,2.13s-2.15-0.95-2.15-2.13v-11.44
			c0-0.21-0.18-0.39-0.39-0.39s-0.39,0.17-0.39,0.39v33.15c0,1.6-1.31,2.89-2.92,2.89s-2.92-1.29-2.92-2.89v-17.71
			c0-0.29-0.24-0.53-0.53-0.53c-0.3,0-0.53,0.24-0.53,0.53v17.71c0,1.6-1.31,2.89-2.92,2.89s-2.92-1.29-2.92-2.89v-33.29
			c0-0.21-0.17-0.39-0.39-0.39s-0.39,0.17-0.39,0.39v11.58c0,1.18-0.96,2.13-2.15,2.13s-2.15-0.95-2.15-2.13v-12.41
			c0-4.38,3.59-7.93,8.02-7.93h6.9C312.227,101.21,315.817,104.76,315.817,109.14"/>
		<path fill="#F8ABA1" d="M310.487,94.25c0,3.36-2.75,6.08-6.14,6.08s-6.14-2.72-6.14-6.08s2.75-6.08,6.14-6.08
			C307.747,88.17,310.487,90.89,310.487,94.25"/>
		<path fill="#F8ABA1" d="M343.817,109.14v12.41c0,1.18-0.96,2.13-2.15,2.13s-2.15-0.95-2.15-2.13v-11.44
			c0-0.21-0.18-0.39-0.39-0.39s-0.39,0.17-0.39,0.39v33.15c0,1.6-1.31,2.89-2.92,2.89s-2.92-1.29-2.92-2.89v-17.71
			c0-0.29-0.24-0.53-0.53-0.53c-0.3,0-0.53,0.24-0.53,0.53v17.71c0,1.6-1.31,2.89-2.92,2.89s-2.92-1.29-2.92-2.89v-33.29
			c0-0.21-0.18-0.39-0.39-0.39s-0.39,0.17-0.39,0.39v11.58c0,1.18-0.96,2.13-2.15,2.13s-2.15-0.95-2.15-2.13v-12.41
			c0-4.38,3.59-7.93,8.02-7.93h6.9C340.237,101.21,343.817,104.76,343.817,109.14"/>
		<path fill="#F8ABA1" d="M338.497,94.25c0,3.36-2.75,6.08-6.14,6.08s-6.14-2.72-6.14-6.08s2.75-6.08,6.14-6.08
			S338.497,90.89,338.497,94.25"/>
		<path fill="#F8ABA1" d="M371.827,109.14v12.41c0,1.18-0.96,2.13-2.15,2.13s-2.15-0.95-2.15-2.13v-11.44
			c0-0.21-0.18-0.39-0.39-0.39s-0.39,0.17-0.39,0.39v33.15c0,1.6-1.31,2.89-2.92,2.89s-2.92-1.29-2.92-2.89v-17.71
			c0-0.29-0.24-0.53-0.53-0.53c-0.3,0-0.53,0.24-0.53,0.53v17.71c0,1.6-1.31,2.89-2.92,2.89s-2.92-1.29-2.92-2.89v-33.29
			c0-0.21-0.18-0.39-0.39-0.39s-0.39,0.17-0.39,0.39v11.58c0,1.18-0.96,2.13-2.15,2.13s-2.15-0.95-2.15-2.13v-12.41
			c0-4.38,3.59-7.93,8.02-7.93h6.9C368.237,101.21,371.827,104.76,371.827,109.14"/>
		<path fill="#F8ABA1" d="M366.507,94.25c0,3.36-2.75,6.08-6.14,6.08s-6.14-2.72-6.14-6.08s2.75-6.08,6.14-6.08
			S366.507,90.89,366.507,94.25"/>
		<path fill="#F8ABA1" d="M36.777-562.882v12.96c0,1.23-1.01,2.23-2.25,2.23c-1.24,0-2.25-1-2.25-2.23v-11.95
			c0-0.22-0.18-0.4-0.41-0.4s-0.41,0.18-0.41,0.4v34.63c0,1.67-1.36,3.02-3.05,3.02c-1.68,0-3.05-1.35-3.05-3.02v-18.5
			c0-0.3-0.25-0.55-0.56-0.55s-0.56,0.25-0.56,0.55v18.5c0,1.67-1.36,3.02-3.05,3.02s-3.05-1.35-3.05-3.02v-34.78
			c0-0.22-0.18-0.4-0.41-0.4s-0.41,0.18-0.41,0.4v12.1c0,1.23-1.01,2.23-2.25,2.23s-2.25-1-2.25-2.23v-12.96
			c0-4.58,3.75-8.29,8.37-8.29h7.2C33.027-571.172,36.777-567.462,36.777-562.882"/>
	</g>
	<g id="armed_00000162341553874291851550000008244169239626869948_">
		<path id="mobile_00000017494263495472123240000008491709675238303893_" fill="#B1B3B6" d="M35.747,46.51v12.41
			c0,1.18-0.96,2.13-2.15,2.13c-1.19,0-2.15-0.95-2.15-2.13V47.48c0-0.21-0.18-0.39-0.39-0.39c-0.22,0-0.39,0.17-0.39,0.39v33.15
			c0,1.6-1.31,2.89-2.92,2.89s-2.92-1.29-2.92-2.89V62.92c0-0.29-0.24-0.53-0.53-0.53s-0.53,0.24-0.53,0.53v17.71
			c0,1.6-1.31,2.89-2.92,2.89s-2.92-1.29-2.92-2.89V47.34c0-0.21-0.18-0.39-0.39-0.39c-0.21,0-0.39,0.17-0.39,0.39v11.58
			c0,1.18-0.97,2.13-2.15,2.13s-2.17-0.95-2.17-2.13V46.51c0-4.38,3.59-7.93,8.01-7.93h6.9C32.167,38.58,35.747,42.13,35.747,46.51"
			/>
		<path id="mobile_00000105420062864209313550000006300101620399928497_" fill="#B1B3B6" d="M30.427,31.62
			c0,3.36-2.75,6.08-6.14,6.08s-6.14-2.72-6.14-6.08s2.75-6.08,6.14-6.08S30.427,28.26,30.427,31.62"/>
		<path id="mobile_00000081643228092515549800000001076016802885874596_" fill="#B1B3B6" d="M63.757,46.51v12.41
			c0,1.18-0.96,2.13-2.15,2.13c-1.19,0-2.15-0.95-2.15-2.13V47.48c0-0.21-0.18-0.39-0.39-0.39s-0.39,0.17-0.39,0.39v33.15
			c0,1.6-1.31,2.89-2.92,2.89s-2.92-1.29-2.92-2.89V62.92c0-0.29-0.24-0.53-0.53-0.53c-0.29,0-0.53,0.24-0.53,0.53v17.71
			c0,1.6-1.31,2.89-2.92,2.89s-2.93-1.29-2.93-2.89V47.34c0-0.21-0.18-0.39-0.39-0.39s-0.39,0.17-0.39,0.39v11.58
			c0,1.18-0.97,2.13-2.15,2.13s-2.15-0.95-2.15-2.13V46.51c0-4.38,3.59-7.93,8.01-7.93h6.9C60.167,38.58,63.757,42.13,63.757,46.51"
			/>
		<path id="mobile_00000126289181636664161130000000150084724436910775_" fill="#B1B3B6" d="M58.437,31.62
			c0,3.36-2.75,6.08-6.14,6.08s-6.14-2.72-6.14-6.08s2.75-6.08,6.14-6.08S58.437,28.26,58.437,31.62"/>
		<path id="mobile_00000021838775009328501460000008999249385207729593_" fill="#B1B3B6" d="M91.767,46.51v12.41
			c0,1.18-0.96,2.13-2.15,2.13s-2.15-0.95-2.15-2.13V47.48c0-0.21-0.18-0.39-0.39-0.39c-0.22,0-0.39,0.17-0.39,0.39v33.15
			c0,1.6-1.31,2.89-2.92,2.89s-2.92-1.29-2.92-2.89V62.92c0-0.29-0.24-0.53-0.53-0.53s-0.53,0.24-0.53,0.53v17.71
			c0,1.6-1.31,2.89-2.92,2.89s-2.94-1.29-2.94-2.89V47.34c0-0.21-0.18-0.39-0.39-0.39c-0.22,0-0.39,0.17-0.39,0.39v11.58
			c0,1.18-0.96,2.13-2.15,2.13s-2.15-0.95-2.15-2.13V46.51c0-4.38,3.59-7.93,8.01-7.93h6.9C88.177,38.58,91.767,42.13,91.767,46.51"
			/>
		<path id="mobile_00000090267144567606814760000015038795690190460606_" fill="#B1B3B6" d="M86.437,31.62
			c0,3.36-2.75,6.08-6.14,6.08s-6.14-2.72-6.14-6.08s2.75-6.08,6.14-6.08C83.697,25.54,86.437,28.26,86.437,31.62"/>
		<path id="mobile_00000083779923766028710450000017650364637910157489_" fill="#B1B3B6" d="M119.767,46.51v12.41
			c0,1.18-0.96,2.13-2.15,2.13s-2.15-0.95-2.15-2.13V47.48c0-0.21-0.18-0.39-0.39-0.39c-0.22,0-0.39,0.17-0.39,0.39v33.15
			c0,1.6-1.31,2.89-2.92,2.89s-2.92-1.29-2.92-2.89V62.92c0-0.29-0.24-0.53-0.53-0.53s-0.53,0.24-0.53,0.53v17.71
			c0,1.6-1.31,2.89-2.92,2.89s-2.92-1.29-2.92-2.89V47.34c0-0.21-0.18-0.39-0.39-0.39c-0.22,0-0.39,0.17-0.39,0.39v11.58
			c0,1.18-0.96,2.13-2.15,2.13s-2.15-0.95-2.15-2.13V46.51c0-4.38,3.59-7.93,8.01-7.93h6.9
			C116.187,38.58,119.767,42.13,119.767,46.51"/>
		<path id="mobile_00000026851613351889838730000005473770779758985868_" fill="#B1B3B6" d="M114.447,31.62
			c0,3.36-2.75,6.08-6.14,6.08s-6.14-2.72-6.14-6.08s2.75-6.08,6.14-6.08S114.447,28.26,114.447,31.62"/>
		<path id="mobile_00000128462554481693975210000002583409214098132157_" fill="#B1B3B6" d="M147.777,46.51v12.41
			c0,1.18-0.96,2.13-2.15,2.13c-1.19,0-2.15-0.95-2.15-2.13V47.48c0-0.21-0.18-0.39-0.39-0.39s-0.39,0.17-0.39,0.39v33.15
			c0,1.6-1.31,2.89-2.92,2.89s-2.92-1.29-2.92-2.89V62.92c0-0.29-0.24-0.53-0.53-0.53s-0.53,0.24-0.53,0.53v17.71
			c0,1.6-1.31,2.89-2.92,2.89s-2.92-1.29-2.92-2.89V47.34c0-0.21-0.18-0.39-0.39-0.39c-0.22,0-0.39,0.17-0.39,0.39v11.58
			c0,1.18-0.96,2.13-2.15,2.13s-2.15-0.95-2.15-2.13V46.51c0-4.38,3.59-7.93,8.01-7.93h6.9
			C144.187,38.58,147.777,42.13,147.777,46.51"/>
		<path id="mobile_00000181066218798422695490000003082540348995658679_" fill="#B1B3B6" d="M142.457,31.62
			c0,3.36-2.75,6.08-6.14,6.08s-6.14-2.72-6.14-6.08s2.75-6.08,6.14-6.08S142.457,28.26,142.457,31.62"/>
		<path id="mobile_00000000213441792375984490000005053859552150418315_" fill="#B1B3B6" d="M175.787,46.51v12.41
			c0,1.18-0.96,2.13-2.15,2.13c-1.19,0-2.15-0.95-2.15-2.13V47.48c0-0.21-0.18-0.39-0.39-0.39s-0.39,0.17-0.39,0.39v33.15
			c0,1.6-1.31,2.89-2.92,2.89s-2.92-1.29-2.92-2.89V62.92c0-0.29-0.24-0.53-0.53-0.53s-0.53,0.24-0.53,0.53v17.71
			c0,1.6-1.31,2.89-2.92,2.89s-2.92-1.29-2.92-2.89V47.34c0-0.21-0.18-0.39-0.39-0.39c-0.22,0-0.39,0.17-0.39,0.39v11.58
			c0,1.18-0.96,2.13-2.15,2.13c-1.19,0-2.15-0.95-2.15-2.13V46.51c0-4.38,3.59-7.93,8.01-7.93h6.9
			C172.197,38.58,175.787,42.13,175.787,46.51"/>
		<path id="mobile_00000107577658197022884890000016176930102565337762_" fill="#B1B3B6" d="M170.457,31.62
			c0,3.36-2.75,6.08-6.14,6.08s-6.14-2.72-6.14-6.08s2.75-6.08,6.14-6.08S170.457,28.26,170.457,31.62"/>
		<path id="mobile_00000087387726886580242300000004859413126124663222_" fill="#B1B3B6" d="M203.787,46.51v12.41
			c0,1.18-0.96,2.13-2.15,2.13c-1.19,0-2.15-0.95-2.15-2.13V47.48c0-0.21-0.18-0.39-0.39-0.39s-0.39,0.17-0.39,0.39v33.15
			c0,1.6-1.31,2.89-2.92,2.89s-2.92-1.29-2.92-2.89V62.92c0-0.29-0.24-0.53-0.53-0.53s-0.53,0.24-0.53,0.53v17.71
			c0,1.6-1.31,2.89-2.92,2.89s-2.92-1.29-2.92-2.89V47.34c0-0.21-0.18-0.39-0.39-0.39c-0.22,0-0.39,0.17-0.39,0.39v11.58
			c0,1.18-0.96,2.13-2.15,2.13c-1.19,0-2.15-0.95-2.15-2.13V46.51c0-4.38,3.59-7.93,8.01-7.93h6.9
			C200.197,38.58,203.787,42.13,203.787,46.51"/>
		<path id="mobile_00000069384865350951867610000016236202670430944401_" fill="#B1B3B6" d="M198.467,31.62
			c0,3.36-2.75,6.08-6.14,6.08s-6.14-2.72-6.14-6.08s2.75-6.08,6.14-6.08S198.467,28.26,198.467,31.62"/>
		<path id="mobile_00000013911363693536877410000005177850517712979380_" fill="#B1B3B6" d="M231.797,46.51v12.41
			c0,1.18-0.96,2.13-2.15,2.13c-1.19,0-2.15-0.95-2.15-2.13V47.48c0-0.21-0.18-0.39-0.39-0.39s-0.39,0.17-0.39,0.39v33.15
			c0,1.6-1.31,2.89-2.92,2.89s-2.92-1.29-2.92-2.89V62.92c0-0.29-0.24-0.53-0.53-0.53s-0.53,0.24-0.53,0.53v17.71
			c0,1.6-1.31,2.89-2.92,2.89s-2.92-1.29-2.92-2.89V47.34c0-0.21-0.18-0.39-0.39-0.39c-0.22,0-0.39,0.17-0.39,0.39v11.58
			c0,1.18-0.96,2.13-2.15,2.13c-1.19,0-2.15-0.95-2.15-2.13V46.51c0-4.38,3.59-7.93,8.01-7.93h6.9
			C228.207,38.58,231.797,42.13,231.797,46.51"/>
		<path id="mobile_00000120554942599731182460000003999305830131210375_" fill="#B1B3B6" d="M226.477,31.62
			c0,3.36-2.75,6.08-6.14,6.08s-6.14-2.72-6.14-6.08s2.75-6.08,6.14-6.08S226.477,28.26,226.477,31.62"/>
		<path id="mobile_00000082343743735836772070000004567469058988665002_" fill="#B1B3B6" d="M259.807,46.51v12.41
			c0,1.18-0.96,2.13-2.15,2.13s-2.15-0.95-2.15-2.13V47.48c0-0.21-0.18-0.39-0.39-0.39s-0.39,0.17-0.39,0.39v33.15
			c0,1.6-1.31,2.89-2.92,2.89s-2.92-1.29-2.92-2.89V62.92c0-0.29-0.24-0.53-0.53-0.53s-0.53,0.24-0.53,0.53v17.71
			c0,1.6-1.31,2.89-2.92,2.89s-2.92-1.29-2.92-2.89V47.34c0-0.21-0.18-0.39-0.39-0.39c-0.22,0-0.39,0.17-0.39,0.39v11.58
			c0,1.18-0.96,2.13-2.15,2.13c-1.19,0-2.15-0.95-2.15-2.13V46.51c0-4.38,3.59-7.93,8.01-7.93h6.9
			C256.217,38.58,259.807,42.13,259.807,46.51"/>
		<path id="mobile_00000051368567061705341790000015116683587210333606_" fill="#B1B3B6" d="M254.477,31.62
			c0,3.36-2.75,6.08-6.14,6.08s-6.14-2.72-6.14-6.08s2.75-6.08,6.14-6.08S254.477,28.26,254.477,31.62"/>
		<path id="mobile_00000083768190178213854120000007752886948183835046_" fill="#B1B3B6" d="M287.807,46.51v12.41
			c0,1.18-0.96,2.13-2.15,2.13s-2.15-0.95-2.15-2.13V47.48c0-0.21-0.18-0.39-0.39-0.39s-0.39,0.17-0.39,0.39v33.15
			c0,1.6-1.31,2.89-2.92,2.89s-2.92-1.29-2.92-2.89V62.92c0-0.29-0.24-0.53-0.53-0.53c-0.3,0-0.53,0.24-0.53,0.53v17.71
			c0,1.6-1.31,2.89-2.92,2.89s-2.92-1.29-2.92-2.89V47.34c0-0.21-0.17-0.39-0.39-0.39s-0.39,0.17-0.39,0.39v11.58
			c0,1.18-0.96,2.13-2.15,2.13s-2.15-0.95-2.15-2.13V46.51c0-4.38,3.59-7.93,8.02-7.93h6.9
			C284.217,38.58,287.807,42.13,287.807,46.51"/>
		<path id="mobile_00000096777262317257049480000009548611622664821633_" fill="#B1B3B6" d="M282.487,31.62
			c0,3.36-2.75,6.08-6.14,6.08s-6.14-2.72-6.14-6.08s2.75-6.08,6.14-6.08S282.487,28.26,282.487,31.62"/>
		<path id="mobile_00000098902567872578788310000001698239926458665626_" fill="#B1B3B6" d="M315.817,46.51v12.41
			c0,1.18-0.96,2.13-2.15,2.13s-2.15-0.95-2.15-2.13V47.48c0-0.21-0.18-0.39-0.39-0.39s-0.39,0.17-0.39,0.39v33.15
			c0,1.6-1.31,2.89-2.92,2.89s-2.92-1.29-2.92-2.89V62.92c0-0.29-0.24-0.53-0.53-0.53c-0.3,0-0.53,0.24-0.53,0.53v17.71
			c0,1.6-1.31,2.89-2.92,2.89s-2.92-1.29-2.92-2.89V47.34c0-0.21-0.17-0.39-0.39-0.39s-0.39,0.17-0.39,0.39v11.58
			c0,1.18-0.96,2.13-2.15,2.13s-2.15-0.95-2.15-2.13V46.51c0-4.38,3.59-7.93,8.02-7.93h6.9
			C312.227,38.58,315.817,42.13,315.817,46.51"/>
		<path id="mobile_00000108998664848210600500000008034932544622952840_" fill="#B1B3B6" d="M310.487,31.62
			c0,3.36-2.75,6.08-6.14,6.08s-6.14-2.72-6.14-6.08s2.75-6.08,6.14-6.08C307.747,25.54,310.487,28.26,310.487,31.62"/>
		<path id="mobile_00000033329076688476824020000016951228442853436843_" fill="#B1B3B6" d="M343.817,46.51v12.41
			c0,1.18-0.96,2.13-2.15,2.13s-2.15-0.95-2.15-2.13V47.48c0-0.21-0.18-0.39-0.39-0.39s-0.39,0.17-0.39,0.39v33.15
			c0,1.6-1.31,2.89-2.92,2.89s-2.92-1.29-2.92-2.89V62.92c0-0.29-0.24-0.53-0.53-0.53c-0.3,0-0.53,0.24-0.53,0.53v17.71
			c0,1.6-1.31,2.89-2.92,2.89s-2.92-1.29-2.92-2.89V47.34c0-0.21-0.18-0.39-0.39-0.39s-0.39,0.17-0.39,0.39v11.58
			c0,1.18-0.96,2.13-2.15,2.13s-2.15-0.95-2.15-2.13V46.51c0-4.38,3.59-7.93,8.02-7.93h6.9
			C340.237,38.58,343.817,42.13,343.817,46.51"/>
		<path id="mobile_00000092420595410641135210000005188458527436256389_" fill="#B1B3B6" d="M338.497,31.62
			c0,3.36-2.75,6.08-6.14,6.08s-6.14-2.72-6.14-6.08s2.75-6.08,6.14-6.08S338.497,28.26,338.497,31.62"/>
		<path id="mobile_00000056419222530925835580000004643174735001885349_" fill="#B1B3B6" d="M371.827,46.51v12.41
			c0,1.18-0.96,2.13-2.15,2.13s-2.15-0.95-2.15-2.13V47.48c0-0.21-0.18-0.39-0.39-0.39s-0.39,0.17-0.39,0.39v33.15
			c0,1.6-1.31,2.89-2.92,2.89s-2.92-1.29-2.92-2.89V62.92c0-0.29-0.24-0.53-0.53-0.53c-0.3,0-0.53,0.24-0.53,0.53v17.71
			c0,1.6-1.31,2.89-2.92,2.89s-2.92-1.29-2.92-2.89V47.34c0-0.21-0.18-0.39-0.39-0.39s-0.39,0.17-0.39,0.39v11.58
			c0,1.18-0.96,2.13-2.15,2.13s-2.15-0.95-2.15-2.13V46.51c0-4.38,3.59-7.93,8.02-7.93h6.9
			C368.237,38.58,371.827,42.13,371.827,46.51"/>
		<path id="mobile_00000037670282423928989940000013614943313614100624_" fill="#B1B3B6" d="M366.507,31.62
			c0,3.36-2.75,6.08-6.14,6.08s-6.14-2.72-6.14-6.08s2.75-6.08,6.14-6.08S366.507,28.26,366.507,31.62"/>
	</g>
</g>
<style>
#g-illustration-mobile-interactive-img rect, #g-illustration-mobile-interactive-img circle, #g-illustration-mobile-interactive-img path, #g-illustration-mobile-interactive-img line, #g-illustration-mobile-interactive-img polyline, #g-illustration-mobile-interactive-img polygon { vector-effect: non-scaling-stroke; }
</style>
</svg>

