<?xml version="1.0" encoding="utf-8"?>
<!-- Generator: Adobe Illustrator 26.4.1, SVG Export Plug-In . SVG Version: 6.00 Build 0)  -->
<svg version="1.2" baseProfile="tiny" id="g-joel_illustration2-laptop-interactive-img" xmlns="http://www.w3.org/2000/svg" xmlns:xlink="http://www.w3.org/1999/xlink"
	 x="0px" y="0px" viewBox="0 0 925.942 636.639" overflow="visible" xml:space="preserve">
<g>
	<g id="toy-gun_00000124120429830299453440000008080229111488891570_">
		<path fill="#F8ABA1" d="M40.361,95.027c0,3.51-2.87,6.35-6.41,6.35c-3.54,0-6.41-2.84-6.41-6.35s2.87-6.35,6.41-6.35
			C37.491,88.677,40.361,91.517,40.361,95.027"/>
		<path fill="#F8ABA1" d="M426.291,110.587v12.96c0,1.23-1.01,2.23-2.25,2.23s-2.25-1-2.25-2.23v-11.95c0-0.22-0.18-0.4-0.41-0.4
			s-0.41,0.18-0.41,0.4v34.63c0,1.67-1.36,3.02-3.05,3.02c-1.68,0-3.05-1.35-3.05-3.02v-18.5c0-0.3-0.25-0.55-0.56-0.55
			s-0.56,0.25-0.56,0.55v18.5c0,1.67-1.36,3.02-3.05,3.02c-1.68,0-3.05-1.35-3.05-3.02v-34.78c0-0.22-0.18-0.4-0.41-0.4
			s-0.41,0.18-0.41,0.4v12.1c0,1.23-1.01,2.23-2.25,2.23s-2.25-1-2.25-2.23v-12.96c0-4.58,3.75-8.29,8.37-8.29h7.2
			C422.541,102.297,426.291,106.007,426.291,110.587"/>
		<path fill="#F8ABA1" d="M420.731,95.027c0,3.51-2.87,6.35-6.41,6.35s-6.41-2.84-6.41-6.35s2.87-6.35,6.41-6.35
			S420.731,91.517,420.731,95.027"/>
		<path fill="#F8ABA1" d="M75.181,110.587v12.96c0,1.23-1.01,2.23-2.25,2.23c-1.24,0-2.25-1-2.25-2.23v-11.95
			c0-0.22-0.18-0.4-0.41-0.4c-0.23,0-0.41,0.18-0.41,0.4v34.63c0,1.67-1.37,3.02-3.05,3.02s-3.05-1.35-3.05-3.02v-18.5
			c0-0.3-0.25-0.55-0.56-0.55s-0.56,0.25-0.56,0.55v18.5c0,1.67-1.37,3.02-3.05,3.02s-3.05-1.35-3.05-3.02v-34.78
			c0-0.22-0.18-0.4-0.41-0.4s-0.41,0.18-0.41,0.4v12.1c0,1.23-1.01,2.23-2.25,2.23s-2.25-1-2.25-2.23v-12.96
			c0-4.58,3.75-8.29,8.37-8.29h7.2C71.441,102.297,75.181,106.007,75.181,110.587"/>
		<path fill="#F8ABA1" d="M69.621,95.027c0,3.51-2.87,6.35-6.41,6.35c-3.54,0-6.41-2.84-6.41-6.35s2.87-6.35,6.41-6.35
			C66.751,88.677,69.621,91.517,69.621,95.027"/>
		<path fill="#F8ABA1" d="M455.551,110.587v12.96c0,1.23-1.01,2.23-2.25,2.23s-2.25-1-2.25-2.23v-11.95c0-0.22-0.18-0.4-0.41-0.4
			s-0.41,0.18-0.41,0.4v34.63c0,1.67-1.36,3.02-3.05,3.02c-1.68,0-3.05-1.35-3.05-3.02v-18.5c0-0.3-0.25-0.55-0.56-0.55
			s-0.56,0.25-0.56,0.55v18.5c0,1.67-1.36,3.02-3.05,3.02c-1.68,0-3.05-1.35-3.05-3.02v-34.78c0-0.22-0.18-0.4-0.41-0.4
			s-0.41,0.18-0.41,0.4v12.1c0,1.23-1.01,2.23-2.25,2.23s-2.25-1-2.25-2.23v-12.96c0-4.58,3.75-8.29,8.37-8.29h7.2
			C451.801,102.297,455.551,106.007,455.551,110.587"/>
		<path fill="#F8ABA1" d="M449.991,95.027c0,3.51-2.87,6.35-6.41,6.35s-6.41-2.84-6.41-6.35s2.87-6.35,6.41-6.35
			C447.121,88.677,449.991,91.517,449.991,95.027"/>
		<path fill="#F8ABA1" d="M104.441,110.587v12.96c0,1.23-1.01,2.23-2.25,2.23s-2.25-1-2.25-2.23v-11.95c0-0.22-0.18-0.4-0.41-0.4
			s-0.41,0.18-0.41,0.4v34.63c0,1.67-1.37,3.02-3.05,3.02s-3.05-1.35-3.05-3.02v-18.5c0-0.3-0.25-0.55-0.56-0.55
			s-0.56,0.25-0.56,0.55v18.5c0,1.67-1.36,3.02-3.05,3.02c-1.68,0-3.05-1.35-3.05-3.02v-34.78c0-0.22-0.18-0.4-0.41-0.4
			s-0.41,0.18-0.41,0.4v12.1c0,1.23-1.01,2.23-2.25,2.23s-2.25-1-2.25-2.23v-12.96c0-4.58,3.75-8.29,8.37-8.29h7.2
			C100.691,102.297,104.441,106.007,104.441,110.587"/>
		<path fill="#F8ABA1" d="M98.881,95.027c0,3.51-2.87,6.35-6.41,6.35s-6.41-2.84-6.41-6.35s2.87-6.35,6.41-6.35
			S98.881,91.517,98.881,95.027"/>
		<path fill="#F8ABA1" d="M484.811,110.587v12.96c0,1.23-1.01,2.23-2.25,2.23s-2.25-1-2.25-2.23v-11.95c0-0.22-0.18-0.4-0.41-0.4
			s-0.41,0.18-0.41,0.4v34.63c0,1.67-1.36,3.02-3.05,3.02c-1.68,0-3.05-1.35-3.05-3.02v-18.5c0-0.3-0.25-0.55-0.56-0.55
			s-0.56,0.25-0.56,0.55v18.5c0,1.67-1.36,3.02-3.05,3.02c-1.68,0-3.05-1.35-3.05-3.02v-34.78c0-0.22-0.18-0.4-0.41-0.4
			s-0.41,0.18-0.41,0.4v12.1c0,1.23-1.01,2.23-2.25,2.23s-2.25-1-2.25-2.23v-12.96c0-4.58,3.75-8.29,8.37-8.29h7.2
			C481.061,102.297,484.811,106.007,484.811,110.587"/>
		<path fill="#F8ABA1" d="M479.251,95.027c0,3.51-2.87,6.35-6.41,6.35s-6.41-2.84-6.41-6.35s2.87-6.35,6.41-6.35
			C476.371,88.677,479.251,91.517,479.251,95.027"/>
		<path fill="#F8ABA1" d="M133.701,110.587v12.96c0,1.23-1.01,2.23-2.25,2.23c-1.24,0-2.25-1-2.25-2.23v-11.95
			c0-0.22-0.18-0.4-0.41-0.4c-0.23,0-0.41,0.18-0.41,0.4v34.63c0,1.67-1.37,3.02-3.05,3.02s-3.05-1.35-3.05-3.02v-18.5
			c0-0.3-0.25-0.55-0.56-0.55s-0.56,0.25-0.56,0.55v18.5c0,1.67-1.36,3.02-3.05,3.02c-1.68,0-3.05-1.35-3.05-3.02v-34.78
			c0-0.22-0.18-0.4-0.41-0.4s-0.41,0.18-0.41,0.4v12.1c0,1.23-1.01,2.23-2.25,2.23s-2.25-1-2.25-2.23v-12.96
			c0-4.58,3.75-8.29,8.37-8.29h7.2C129.951,102.297,133.701,106.007,133.701,110.587"/>
		<path fill="#F8ABA1" d="M128.141,95.027c0,3.51-2.87,6.35-6.41,6.35s-6.41-2.84-6.41-6.35s2.87-6.35,6.41-6.35
			S128.141,91.517,128.141,95.027"/>
		<path fill="#F8ABA1" d="M514.071,110.587v12.96c0,1.23-1.01,2.23-2.25,2.23s-2.25-1-2.25-2.23v-11.95c0-0.22-0.18-0.4-0.41-0.4
			s-0.41,0.18-0.41,0.4v34.63c0,1.67-1.36,3.02-3.05,3.02c-1.68,0-3.05-1.35-3.05-3.02v-18.5c0-0.3-0.25-0.55-0.56-0.55
			s-0.56,0.25-0.56,0.55v18.5c0,1.67-1.36,3.02-3.05,3.02c-1.68,0-3.05-1.35-3.05-3.02v-34.78c0-0.22-0.18-0.4-0.41-0.4
			s-0.41,0.18-0.41,0.4v12.1c0,1.23-1.01,2.23-2.25,2.23s-2.25-1-2.25-2.23v-12.96c0-4.58,3.75-8.29,8.37-8.29h7.2
			C510.321,102.297,514.071,106.007,514.071,110.587"/>
		<path fill="#F8ABA1" d="M508.511,95.027c0,3.51-2.87,6.35-6.41,6.35s-6.41-2.84-6.41-6.35s2.87-6.35,6.41-6.35
			C505.631,88.677,508.511,91.517,508.511,95.027"/>
		<path fill="#F8ABA1" d="M162.961,110.587v12.96c0,1.23-1.01,2.23-2.25,2.23s-2.25-1-2.25-2.23v-11.95c0-0.22-0.18-0.4-0.41-0.4
			s-0.41,0.18-0.41,0.4v34.63c0,1.67-1.37,3.02-3.05,3.02c-1.68,0-3.05-1.35-3.05-3.02v-18.5c0-0.3-0.25-0.55-0.56-0.55
			s-0.56,0.25-0.56,0.55v18.5c0,1.67-1.36,3.02-3.05,3.02s-3.05-1.35-3.05-3.02v-34.78c0-0.22-0.18-0.4-0.41-0.4
			s-0.41,0.18-0.41,0.4v12.1c0,1.23-1.01,2.23-2.25,2.23s-2.25-1-2.25-2.23v-12.96c0-4.58,3.75-8.29,8.37-8.29h7.2
			C159.211,102.297,162.961,106.007,162.961,110.587"/>
		<path fill="#F8ABA1" d="M157.401,95.027c0,3.51-2.87,6.35-6.41,6.35s-6.41-2.84-6.41-6.35s2.87-6.35,6.41-6.35
			S157.401,91.517,157.401,95.027"/>
		<path fill="#F8ABA1" d="M543.331,110.587v12.96c0,1.23-1.01,2.23-2.25,2.23s-2.25-1-2.25-2.23v-11.95c0-0.22-0.18-0.4-0.41-0.4
			s-0.41,0.18-0.41,0.4v34.63c0,1.67-1.36,3.02-3.05,3.02c-1.68,0-3.05-1.35-3.05-3.02v-18.5c0-0.3-0.25-0.55-0.56-0.55
			s-0.56,0.25-0.56,0.55v18.5c0,1.67-1.36,3.02-3.05,3.02s-3.05-1.35-3.05-3.02v-34.78c0-0.22-0.18-0.4-0.41-0.4
			c-0.23,0-0.41,0.18-0.41,0.4v12.1c0,1.23-1.01,2.23-2.25,2.23s-2.25-1-2.25-2.23v-12.96c0-4.58,3.75-8.29,8.37-8.29h7.2
			C539.581,102.297,543.331,106.007,543.331,110.587"/>
		<path fill="#F8ABA1" d="M537.761,95.027c0,3.51-2.87,6.35-6.41,6.35s-6.41-2.84-6.41-6.35s2.87-6.35,6.41-6.35
			S537.761,91.517,537.761,95.027"/>
		<path fill="#F8ABA1" d="M192.221,110.587v12.96c0,1.23-1.01,2.23-2.25,2.23s-2.25-1-2.25-2.23v-11.95c0-0.22-0.18-0.4-0.41-0.4
			s-0.41,0.18-0.41,0.4v34.63c0,1.67-1.37,3.02-3.05,3.02c-1.68,0-3.05-1.35-3.05-3.02v-18.5c0-0.3-0.25-0.55-0.56-0.55
			s-0.56,0.25-0.56,0.55v18.5c0,1.67-1.37,3.02-3.05,3.02c-1.68,0-3.05-1.35-3.05-3.02v-34.78c0-0.22-0.18-0.4-0.41-0.4
			c-0.23,0-0.41,0.18-0.41,0.4v12.1c0,1.23-1.01,2.23-2.25,2.23s-2.25-1-2.25-2.23v-12.96c0-4.58,3.75-8.29,8.37-8.29h7.2
			C188.471,102.297,192.221,106.007,192.221,110.587"/>
		<path fill="#F8ABA1" d="M186.661,95.027c0,3.51-2.87,6.35-6.41,6.35c-3.54,0-6.41-2.84-6.41-6.35s2.87-6.35,6.41-6.35
			S186.661,91.517,186.661,95.027"/>
		<path fill="#F8ABA1" d="M572.581,110.587v12.96c0,1.23-1.01,2.23-2.25,2.23s-2.25-1-2.25-2.23v-11.95c0-0.22-0.18-0.4-0.41-0.4
			s-0.41,0.18-0.41,0.4v34.63c0,1.67-1.36,3.02-3.05,3.02c-1.68,0-3.05-1.35-3.05-3.02v-18.5c0-0.3-0.25-0.55-0.56-0.55
			s-0.56,0.25-0.56,0.55v18.5c0,1.67-1.36,3.02-3.05,3.02s-3.05-1.35-3.05-3.02v-34.78c0-0.22-0.18-0.4-0.41-0.4
			s-0.41,0.18-0.41,0.4v12.1c0,1.23-1.01,2.23-2.25,2.23s-2.25-1-2.25-2.23v-12.96c0-4.58,3.75-8.29,8.37-8.29h7.2
			C568.831,102.297,572.581,106.007,572.581,110.587"/>
		<path fill="#F8ABA1" d="M567.021,95.027c0,3.51-2.87,6.35-6.41,6.35s-6.41-2.84-6.41-6.35s2.87-6.35,6.41-6.35
			S567.021,91.517,567.021,95.027"/>
		<path fill="#F8ABA1" d="M221.481,110.587v12.96c0,1.23-1.01,2.23-2.25,2.23s-2.25-1-2.25-2.23v-11.95c0-0.22-0.18-0.4-0.41-0.4
			s-0.41,0.18-0.41,0.4v34.63c0,1.67-1.37,3.02-3.05,3.02c-1.68,0-3.05-1.35-3.05-3.02v-18.5c0-0.3-0.25-0.55-0.56-0.55
			s-0.56,0.25-0.56,0.55v18.5c0,1.67-1.37,3.02-3.05,3.02c-1.68,0-3.05-1.35-3.05-3.02v-34.78c0-0.22-0.18-0.4-0.41-0.4
			c-0.23,0-0.41,0.18-0.41,0.4v12.1c0,1.23-1.01,2.23-2.25,2.23s-2.25-1-2.25-2.23v-12.96c0-4.58,3.75-8.29,8.37-8.29h7.2
			C217.731,102.297,221.481,106.007,221.481,110.587"/>
		<path fill="#F8ABA1" d="M215.921,95.027c0,3.51-2.87,6.35-6.41,6.35c-3.54,0-6.41-2.84-6.41-6.35s2.87-6.35,6.41-6.35
			C213.051,88.677,215.921,91.517,215.921,95.027"/>
		<path fill="#F8ABA1" d="M601.841,110.587v12.96c0,1.23-1.01,2.23-2.25,2.23s-2.25-1-2.25-2.23v-11.95c0-0.22-0.18-0.4-0.41-0.4
			s-0.41,0.18-0.41,0.4v34.63c0,1.67-1.36,3.02-3.05,3.02c-1.68,0-3.05-1.35-3.05-3.02v-18.5c0-0.3-0.25-0.55-0.56-0.55
			s-0.56,0.25-0.56,0.55v18.5c0,1.67-1.36,3.02-3.05,3.02s-3.05-1.35-3.05-3.02v-34.78c0-0.22-0.18-0.4-0.41-0.4
			s-0.41,0.18-0.41,0.4v12.1c0,1.23-1.01,2.23-2.25,2.23s-2.25-1-2.25-2.23v-12.96c0-4.58,3.75-8.29,8.37-8.29h7.2
			C598.091,102.297,601.841,106.007,601.841,110.587"/>
		<path fill="#F8ABA1" d="M596.281,95.027c0,3.51-2.87,6.35-6.41,6.35s-6.41-2.84-6.41-6.35s2.87-6.35,6.41-6.35
			S596.281,91.517,596.281,95.027"/>
		<path fill="#F8ABA1" d="M250.741,110.587v12.96c0,1.23-1.01,2.23-2.25,2.23s-2.25-1-2.25-2.23v-11.95c0-0.22-0.18-0.4-0.41-0.4
			s-0.41,0.18-0.41,0.4v34.63c0,1.67-1.37,3.02-3.05,3.02c-1.68,0-3.05-1.35-3.05-3.02v-18.5c0-0.3-0.25-0.55-0.56-0.55
			s-0.56,0.25-0.56,0.55v18.5c0,1.67-1.37,3.02-3.05,3.02c-1.68,0-3.05-1.35-3.05-3.02v-34.78c0-0.22-0.18-0.4-0.41-0.4
			c-0.23,0-0.41,0.18-0.41,0.4v12.1c0,1.23-1.01,2.23-2.25,2.23s-2.25-1-2.25-2.23v-12.96c0-4.58,3.75-8.29,8.37-8.29h7.2
			C246.991,102.297,250.741,106.007,250.741,110.587"/>
		<path fill="#F8ABA1" d="M245.181,95.027c0,3.51-2.87,6.35-6.41,6.35c-3.54,0-6.41-2.84-6.41-6.35s2.87-6.35,6.41-6.35
			C242.301,88.677,245.181,91.517,245.181,95.027"/>
		<path fill="#F8ABA1" d="M631.101,110.587v12.96c0,1.23-1.01,2.23-2.25,2.23s-2.25-1-2.25-2.23v-11.95c0-0.22-0.18-0.4-0.41-0.4
			s-0.41,0.18-0.41,0.4v34.63c0,1.67-1.36,3.02-3.05,3.02c-1.68,0-3.05-1.35-3.05-3.02v-18.5c0-0.3-0.25-0.55-0.56-0.55
			s-0.56,0.25-0.56,0.55v18.5c0,1.67-1.36,3.02-3.05,3.02s-3.05-1.35-3.05-3.02v-34.78c0-0.22-0.18-0.4-0.41-0.4
			s-0.41,0.18-0.41,0.4v12.1c0,1.23-1.01,2.23-2.25,2.23s-2.25-1-2.25-2.23v-12.96c0-4.58,3.75-8.29,8.37-8.29h7.2
			C627.351,102.297,631.101,106.007,631.101,110.587"/>
		<path fill="#F8ABA1" d="M625.541,95.027c0,3.51-2.87,6.35-6.41,6.35s-6.41-2.84-6.41-6.35s2.87-6.35,6.41-6.35
			C622.671,88.677,625.541,91.517,625.541,95.027"/>
		<path fill="#F8ABA1" d="M280.001,110.587v12.96c0,1.23-1.01,2.23-2.25,2.23s-2.25-1-2.25-2.23v-11.95c0-0.22-0.18-0.4-0.41-0.4
			s-0.41,0.18-0.41,0.4v34.63c0,1.67-1.37,3.02-3.05,3.02s-3.05-1.35-3.05-3.02v-18.5c0-0.3-0.25-0.55-0.56-0.55
			s-0.56,0.25-0.56,0.55v18.5c0,1.67-1.37,3.02-3.05,3.02c-1.68,0-3.05-1.35-3.05-3.02v-34.78c0-0.22-0.18-0.4-0.41-0.4
			s-0.41,0.18-0.41,0.4v12.1c0,1.23-1.01,2.23-2.25,2.23c-1.24,0-2.25-1-2.25-2.23v-12.96c0-4.58,3.75-8.29,8.37-8.29h7.2
			C276.251,102.297,280.001,106.007,280.001,110.587"/>
		<path fill="#F8ABA1" d="M274.431,95.027c0,3.51-2.87,6.35-6.41,6.35c-3.54,0-6.41-2.84-6.41-6.35s2.87-6.35,6.41-6.35
			C271.561,88.677,274.431,91.517,274.431,95.027"/>
		<path fill="#F8ABA1" d="M660.361,110.587v12.96c0,1.23-1.01,2.23-2.25,2.23s-2.25-1-2.25-2.23v-11.95c0-0.22-0.18-0.4-0.41-0.4
			s-0.41,0.18-0.41,0.4v34.63c0,1.67-1.36,3.02-3.05,3.02c-1.68,0-3.05-1.35-3.05-3.02v-18.5c0-0.3-0.25-0.55-0.56-0.55
			s-0.56,0.25-0.56,0.55v18.5c0,1.67-1.36,3.02-3.05,3.02s-3.05-1.35-3.05-3.02v-34.78c0-0.22-0.18-0.4-0.41-0.4
			s-0.41,0.18-0.41,0.4v12.1c0,1.23-1.01,2.23-2.25,2.23s-2.25-1-2.25-2.23v-12.96c0-4.58,3.75-8.29,8.37-8.29h7.2
			C656.611,102.297,660.361,106.007,660.361,110.587"/>
		<path fill="#F8ABA1" d="M654.801,95.027c0,3.51-2.87,6.35-6.41,6.35s-6.41-2.84-6.41-6.35s2.87-6.35,6.41-6.35
			S654.801,91.517,654.801,95.027"/>
		<path fill="#F8ABA1" d="M309.251,110.587v12.96c0,1.23-1.01,2.23-2.25,2.23s-2.25-1-2.25-2.23v-11.95c0-0.22-0.18-0.4-0.41-0.4
			s-0.41,0.18-0.41,0.4v34.63c0,1.67-1.36,3.02-3.05,3.02c-1.68,0-3.05-1.35-3.05-3.02v-18.5c0-0.3-0.25-0.55-0.56-0.55
			s-0.56,0.25-0.56,0.55v18.5c0,1.67-1.36,3.02-3.05,3.02c-1.68,0-3.05-1.35-3.05-3.02v-34.78c0-0.22-0.18-0.4-0.41-0.4
			s-0.41,0.18-0.41,0.4v12.1c0,1.23-1.01,2.23-2.25,2.23s-2.25-1-2.25-2.23v-12.96c0-4.58,3.75-8.29,8.37-8.29h7.2
			C305.511,102.297,309.251,106.007,309.251,110.587"/>
		<path fill="#F8ABA1" d="M303.691,95.027c0,3.51-2.87,6.35-6.41,6.35s-6.41-2.84-6.41-6.35s2.87-6.35,6.41-6.35
			S303.691,91.517,303.691,95.027"/>
		<path fill="#F8ABA1" d="M689.621,110.587v12.96c0,1.23-1.01,2.23-2.25,2.23s-2.25-1-2.25-2.23v-11.95c0-0.22-0.18-0.4-0.41-0.4
			s-0.41,0.18-0.41,0.4v34.63c0,1.67-1.36,3.02-3.05,3.02c-1.68,0-3.05-1.35-3.05-3.02v-18.5c0-0.3-0.25-0.55-0.56-0.55
			s-0.56,0.25-0.56,0.55v18.5c0,1.67-1.36,3.02-3.05,3.02s-3.05-1.35-3.05-3.02v-34.78c0-0.22-0.18-0.4-0.41-0.4
			s-0.41,0.18-0.41,0.4v12.1c0,1.23-1.01,2.23-2.25,2.23s-2.25-1-2.25-2.23v-12.96c0-4.58,3.75-8.29,8.37-8.29h7.2
			C685.871,102.297,689.621,106.007,689.621,110.587"/>
		<path fill="#F8ABA1" d="M684.061,95.027c0,3.51-2.87,6.35-6.41,6.35s-6.41-2.84-6.41-6.35s2.87-6.35,6.41-6.35
			S684.061,91.517,684.061,95.027"/>
		<path fill="#F8ABA1" d="M338.511,110.587v12.96c0,1.23-1.01,2.23-2.25,2.23s-2.25-1-2.25-2.23v-11.95c0-0.22-0.18-0.4-0.41-0.4
			s-0.41,0.18-0.41,0.4v34.63c0,1.67-1.36,3.02-3.05,3.02c-1.68,0-3.05-1.35-3.05-3.02v-18.5c0-0.3-0.25-0.55-0.56-0.55
			s-0.56,0.25-0.56,0.55v18.5c0,1.67-1.36,3.02-3.05,3.02c-1.68,0-3.05-1.35-3.05-3.02v-34.78c0-0.22-0.18-0.4-0.41-0.4
			s-0.41,0.18-0.41,0.4v12.1c0,1.23-1.01,2.23-2.25,2.23s-2.25-1-2.25-2.23v-12.96c0-4.58,3.75-8.29,8.37-8.29h7.2
			C334.761,102.297,338.511,106.007,338.511,110.587"/>
		<path fill="#F8ABA1" d="M332.951,95.027c0,3.51-2.87,6.35-6.41,6.35s-6.41-2.84-6.41-6.35s2.87-6.35,6.41-6.35
			S332.951,91.517,332.951,95.027"/>
		<path fill="#F8ABA1" d="M718.881,110.587v12.96c0,1.23-1.01,2.23-2.25,2.23s-2.25-1-2.25-2.23v-11.95c0-0.22-0.18-0.4-0.41-0.4
			s-0.41,0.18-0.41,0.4v34.63c0,1.67-1.36,3.02-3.05,3.02c-1.68,0-3.05-1.35-3.05-3.02v-18.5c0-0.3-0.25-0.55-0.56-0.55
			s-0.56,0.25-0.56,0.55v18.5c0,1.67-1.36,3.02-3.05,3.02s-3.05-1.35-3.05-3.02v-34.78c0-0.22-0.18-0.4-0.41-0.4
			s-0.41,0.18-0.41,0.4v12.1c0,1.23-1.01,2.23-2.25,2.23s-2.25-1-2.25-2.23v-12.96c0-4.58,3.75-8.29,8.37-8.29h7.2
			C715.131,102.297,718.881,106.007,718.881,110.587"/>
		<path fill="#F8ABA1" d="M713.321,95.027c0,3.51-2.87,6.35-6.41,6.35s-6.41-2.84-6.41-6.35s2.87-6.35,6.41-6.35
			C710.441,88.677,713.321,91.517,713.321,95.027"/>
		<path fill="#F8ABA1" d="M806.651,110.587v12.96c0,1.23-1.01,2.23-2.25,2.23s-2.25-1-2.25-2.23v-11.95c0-0.22-0.18-0.4-0.41-0.4
			s-0.41,0.18-0.41,0.4v34.63c0,1.67-1.36,3.02-3.05,3.02c-1.68,0-3.05-1.35-3.05-3.02v-18.5c0-0.3-0.25-0.55-0.56-0.55
			s-0.56,0.25-0.56,0.55v18.5c0,1.67-1.36,3.02-3.05,3.02s-3.05-1.35-3.05-3.02v-34.78c0-0.22-0.18-0.4-0.41-0.4
			s-0.41,0.18-0.41,0.4v12.1c0,1.23-1.01,2.23-2.25,2.23s-2.25-1-2.25-2.23v-12.96c0-4.58,3.75-8.29,8.37-8.29h7.2
			C802.911,102.297,806.651,106.007,806.651,110.587"/>
		<path fill="#F8ABA1" d="M801.091,95.027c0,3.51-2.87,6.35-6.41,6.35s-6.41-2.84-6.41-6.35s2.87-6.35,6.41-6.35
			S801.091,91.517,801.091,95.027"/>
		<path fill="#F8ABA1" d="M367.771,110.587v12.96c0,1.23-1.01,2.23-2.25,2.23s-2.25-1-2.25-2.23v-11.95c0-0.22-0.18-0.4-0.41-0.4
			s-0.41,0.18-0.41,0.4v34.63c0,1.67-1.36,3.02-3.05,3.02c-1.68,0-3.05-1.35-3.05-3.02v-18.5c0-0.3-0.25-0.55-0.56-0.55
			s-0.56,0.25-0.56,0.55v18.5c0,1.67-1.36,3.02-3.05,3.02c-1.68,0-3.05-1.35-3.05-3.02v-34.78c0-0.22-0.18-0.4-0.41-0.4
			s-0.41,0.18-0.41,0.4v12.1c0,1.23-1.01,2.23-2.25,2.23s-2.25-1-2.25-2.23v-12.96c0-4.58,3.75-8.29,8.37-8.29h7.2
			C364.021,102.297,367.771,106.007,367.771,110.587"/>
		<path fill="#F8ABA1" d="M362.211,95.027c0,3.51-2.87,6.35-6.41,6.35s-6.41-2.84-6.41-6.35s2.87-6.35,6.41-6.35
			C359.341,88.677,362.211,91.517,362.211,95.027"/>
		<path fill="#F8ABA1" d="M748.141,110.587v12.96c0,1.23-1.01,2.23-2.25,2.23s-2.25-1-2.25-2.23v-11.95c0-0.22-0.18-0.4-0.41-0.4
			s-0.41,0.18-0.41,0.4v34.63c0,1.67-1.36,3.02-3.05,3.02c-1.68,0-3.05-1.35-3.05-3.02v-18.5c0-0.3-0.25-0.55-0.56-0.55
			s-0.56,0.25-0.56,0.55v18.5c0,1.67-1.36,3.02-3.05,3.02s-3.05-1.35-3.05-3.02v-34.78c0-0.22-0.18-0.4-0.41-0.4
			s-0.41,0.18-0.41,0.4v12.1c0,1.23-1.01,2.23-2.25,2.23s-2.25-1-2.25-2.23v-12.96c0-4.58,3.75-8.29,8.37-8.29h7.2
			C744.391,102.297,748.141,106.007,748.141,110.587"/>
		<path fill="#F8ABA1" d="M742.581,95.027c0,3.51-2.87,6.35-6.41,6.35s-6.41-2.84-6.41-6.35s2.87-6.35,6.41-6.35
			C739.701,88.677,742.581,91.517,742.581,95.027"/>
		<path fill="#F8ABA1" d="M835.911,110.587v12.96c0,1.23-1.01,2.23-2.25,2.23s-2.25-1-2.25-2.23v-11.95c0-0.22-0.18-0.4-0.41-0.4
			s-0.41,0.18-0.41,0.4v34.63c0,1.67-1.36,3.02-3.05,3.02c-1.68,0-3.05-1.35-3.05-3.02v-18.5c0-0.3-0.25-0.55-0.56-0.55
			s-0.56,0.25-0.56,0.55v18.5c0,1.67-1.36,3.02-3.05,3.02s-3.05-1.35-3.05-3.02v-34.78c0-0.22-0.18-0.4-0.41-0.4
			s-0.41,0.18-0.41,0.4v12.1c0,1.23-1.01,2.23-2.25,2.23s-2.25-1-2.25-2.23v-12.96c0-4.58,3.75-8.29,8.37-8.29h7.2
			C832.161,102.297,835.911,106.007,835.911,110.587"/>
		<path fill="#F8ABA1" d="M830.351,95.027c0,3.51-2.87,6.35-6.41,6.35s-6.41-2.84-6.41-6.35s2.87-6.35,6.41-6.35
			C827.481,88.677,830.351,91.517,830.351,95.027"/>
		<path fill="#F8ABA1" d="M397.031,110.587v12.96c0,1.23-1.01,2.23-2.25,2.23s-2.25-1-2.25-2.23v-11.95c0-0.22-0.18-0.4-0.41-0.4
			s-0.41,0.18-0.41,0.4v34.63c0,1.67-1.36,3.02-3.05,3.02c-1.68,0-3.05-1.35-3.05-3.02v-18.5c0-0.3-0.25-0.55-0.56-0.55
			s-0.56,0.25-0.56,0.55v18.5c0,1.67-1.36,3.02-3.05,3.02c-1.68,0-3.05-1.35-3.05-3.02v-34.78c0-0.22-0.18-0.4-0.41-0.4
			s-0.41,0.18-0.41,0.4v12.1c0,1.23-1.01,2.23-2.25,2.23s-2.25-1-2.25-2.23v-12.96c0-4.58,3.75-8.29,8.37-8.29h7.2
			C393.281,102.297,397.031,106.007,397.031,110.587"/>
		<path fill="#F8ABA1" d="M391.471,95.027c0,3.51-2.87,6.35-6.41,6.35s-6.41-2.84-6.41-6.35s2.87-6.35,6.41-6.35
			S391.471,91.517,391.471,95.027"/>
		<path fill="#F8ABA1" d="M777.401,110.587v12.96c0,1.23-1.01,2.23-2.25,2.23s-2.25-1-2.25-2.23v-11.95c0-0.22-0.18-0.4-0.41-0.4
			s-0.41,0.18-0.41,0.4v34.63c0,1.67-1.36,3.02-3.05,3.02c-1.68,0-3.05-1.35-3.05-3.02v-18.5c0-0.3-0.25-0.55-0.56-0.55
			s-0.56,0.25-0.56,0.55v18.5c0,1.67-1.36,3.02-3.05,3.02s-3.05-1.35-3.05-3.02v-34.78c0-0.22-0.18-0.4-0.41-0.4
			s-0.41,0.18-0.41,0.4v12.1c0,1.23-1.01,2.23-2.25,2.23s-2.25-1-2.25-2.23v-12.96c0-4.58,3.75-8.29,8.37-8.29h7.2
			C773.651,102.297,777.401,106.007,777.401,110.587"/>
		<path fill="#F8ABA1" d="M771.831,95.027c0,3.51-2.87,6.35-6.41,6.35s-6.41-2.84-6.41-6.35s2.87-6.35,6.41-6.35
			S771.831,91.517,771.831,95.027"/>
		<path fill="#F8ABA1" d="M865.171,110.587v12.96c0,1.23-1.01,2.23-2.25,2.23s-2.25-1-2.25-2.23v-11.95c0-0.22-0.18-0.4-0.41-0.4
			s-0.41,0.18-0.41,0.4v34.63c0,1.67-1.36,3.02-3.05,3.02c-1.68,0-3.05-1.35-3.05-3.02v-18.5c0-0.3-0.25-0.55-0.56-0.55
			s-0.56,0.25-0.56,0.55v18.5c0,1.67-1.36,3.02-3.05,3.02s-3.05-1.35-3.05-3.02v-34.78c0-0.22-0.18-0.4-0.41-0.4
			s-0.41,0.18-0.41,0.4v12.1c0,1.23-1.01,2.23-2.25,2.23s-2.25-1-2.25-2.23v-12.96c0-4.58,3.75-8.29,8.37-8.29h7.2
			C861.421,102.297,865.171,106.007,865.171,110.587"/>
		<path fill="#F8ABA1" d="M859.611,95.027c0,3.51-2.87,6.35-6.41,6.35s-6.41-2.84-6.41-6.35s2.87-6.35,6.41-6.35
			S859.611,91.517,859.611,95.027"/>
		<path fill="#F8ABA1" d="M894.431,110.587v12.96c0,1.23-1.01,2.23-2.25,2.23s-2.25-1-2.25-2.23v-11.95c0-0.22-0.18-0.4-0.41-0.4
			s-0.41,0.18-0.41,0.4v34.63c0,1.67-1.36,3.02-3.05,3.02c-1.68,0-3.05-1.35-3.05-3.02v-18.5c0-0.3-0.25-0.55-0.56-0.55
			s-0.56,0.25-0.56,0.55v18.5c0,1.67-1.36,3.02-3.05,3.02s-3.05-1.35-3.05-3.02v-34.78c0-0.22-0.18-0.4-0.41-0.4
			s-0.41,0.18-0.41,0.4v12.1c0,1.23-1.01,2.23-2.25,2.23s-2.25-1-2.25-2.23v-12.96c0-4.58,3.75-8.29,8.37-8.29h7.2
			C890.681,102.297,894.431,106.007,894.431,110.587"/>
		<path fill="#F8ABA1" d="M888.871,95.027c0,3.51-2.87,6.35-6.41,6.35s-6.41-2.84-6.41-6.35s2.87-6.35,6.41-6.35
			S888.871,91.517,888.871,95.027"/>
		<path fill="#F8ABA1" d="M44.901,782.609v12.41c0,1.18-0.96,2.13-2.15,2.13c-1.19,0-2.15-0.95-2.15-2.13v-11.44
			c0-0.21-0.18-0.39-0.39-0.39c-0.22,0-0.39,0.17-0.39,0.39v33.15c0,1.6-1.31,2.89-2.92,2.89s-2.92-1.29-2.92-2.89v-17.71
			c0-0.29-0.24-0.53-0.53-0.53s-0.53,0.24-0.53,0.53v17.71c0,1.6-1.31,2.89-2.92,2.89s-2.92-1.29-2.92-2.89v-33.29
			c0-0.21-0.18-0.39-0.39-0.39c-0.21,0-0.39,0.17-0.39,0.39v11.58c0,1.18-0.97,2.13-2.15,2.13c-1.18,0-2.15-0.95-2.15-2.13v-12.41
			c0-4.38,3.59-7.93,8.01-7.93h6.9C41.321,774.679,44.901,778.229,44.901,782.609"/>
		<path fill="#F8ABA1" d="M39.581,767.719c0,3.36-2.75,6.08-6.14,6.08s-6.14-2.72-6.14-6.08s2.75-6.08,6.14-6.08
			S39.581,764.359,39.581,767.719"/>
		<path fill="#F8ABA1" d="M72.911,782.609v12.41c0,1.18-0.96,2.13-2.15,2.13s-2.15-0.95-2.15-2.13v-11.44
			c0-0.21-0.18-0.39-0.39-0.39s-0.39,0.17-0.39,0.39v33.15c0,1.6-1.31,2.89-2.92,2.89c-1.61,0-2.92-1.29-2.92-2.89v-17.71
			c0-0.29-0.24-0.53-0.53-0.53c-0.29,0-0.53,0.24-0.53,0.53v17.71c0,1.6-1.31,2.89-2.92,2.89s-2.93-1.3-2.93-2.89v-33.29
			c0-0.21-0.18-0.39-0.39-0.39s-0.39,0.17-0.39,0.39v11.58c0,1.18-0.97,2.13-2.15,2.13s-2.15-0.95-2.15-2.13v-12.41
			c0-4.38,3.59-7.93,8.01-7.93h6.9C69.321,774.679,72.911,778.229,72.911,782.609"/>
		<path fill="#F8ABA1" d="M67.591,767.719c0,3.36-2.75,6.08-6.14,6.08c-3.39,0-6.14-2.72-6.14-6.08s2.75-6.08,6.14-6.08
			C64.841,761.639,67.591,764.359,67.591,767.719"/>
		<path fill="#F8ABA1" d="M100.921,782.609v12.41c0,1.18-0.96,2.13-2.15,2.13s-2.15-0.95-2.15-2.13v-11.44
			c0-0.21-0.18-0.39-0.39-0.39c-0.22,0-0.39,0.17-0.39,0.39v33.15c0,1.6-1.31,2.89-2.92,2.89s-2.92-1.29-2.92-2.89v-17.71
			c0-0.29-0.24-0.53-0.53-0.53s-0.53,0.24-0.53,0.53v17.71c0,1.6-1.31,2.89-2.92,2.89s-2.94-1.3-2.94-2.89v-33.29
			c0-0.21-0.18-0.39-0.39-0.39c-0.22,0-0.39,0.17-0.39,0.39v11.58c0,1.18-0.96,2.13-2.15,2.13s-2.15-0.95-2.15-2.13v-12.41
			c0-4.38,3.59-7.93,8.01-7.93h6.9C97.331,774.679,100.921,778.229,100.921,782.609"/>
		<path fill="#F8ABA1" d="M95.591,767.719c0,3.36-2.75,6.08-6.14,6.08s-6.14-2.72-6.14-6.08s2.75-6.08,6.14-6.08
			C92.851,761.639,95.591,764.359,95.591,767.719"/>
		<path fill="#F8ABA1" d="M128.921,782.609v12.41c0,1.18-0.96,2.13-2.15,2.13s-2.15-0.95-2.15-2.13v-11.44
			c0-0.21-0.18-0.39-0.39-0.39c-0.22,0-0.39,0.17-0.39,0.39v33.15c0,1.6-1.31,2.89-2.92,2.89s-2.92-1.29-2.92-2.89v-17.71
			c0-0.29-0.24-0.53-0.53-0.53s-0.53,0.24-0.53,0.53v17.71c0,1.6-1.31,2.89-2.92,2.89s-2.92-1.29-2.92-2.89v-33.29
			c0-0.21-0.18-0.39-0.39-0.39c-0.22,0-0.39,0.17-0.39,0.39v11.58c0,1.18-0.96,2.13-2.15,2.13s-2.15-0.95-2.15-2.13v-12.41
			c0-4.38,3.59-7.93,8.01-7.93h6.9C125.341,774.679,128.921,778.229,128.921,782.609"/>
		<path fill="#F8ABA1" d="M123.601,767.719c0,3.36-2.75,6.08-6.14,6.08s-6.14-2.72-6.14-6.08s2.75-6.08,6.14-6.08
			S123.601,764.359,123.601,767.719"/>
		<path fill="#F8ABA1" d="M156.931,782.609v12.41c0,1.18-0.96,2.13-2.15,2.13c-1.19,0-2.15-0.95-2.15-2.13v-11.44
			c0-0.21-0.18-0.39-0.39-0.39s-0.39,0.17-0.39,0.39v33.15c0,1.6-1.31,2.89-2.92,2.89s-2.92-1.29-2.92-2.89v-17.71
			c0-0.29-0.24-0.53-0.53-0.53s-0.53,0.24-0.53,0.53v17.71c0,1.6-1.31,2.89-2.92,2.89s-2.92-1.29-2.92-2.89v-33.29
			c0-0.21-0.18-0.39-0.39-0.39c-0.22,0-0.39,0.17-0.39,0.39v11.58c0,1.18-0.96,2.13-2.15,2.13s-2.15-0.95-2.15-2.13v-12.41
			c0-4.38,3.59-7.93,8.01-7.93h6.9C153.341,774.679,156.931,778.229,156.931,782.609"/>
		<path fill="#F8ABA1" d="M151.611,767.719c0,3.36-2.75,6.08-6.14,6.08s-6.14-2.72-6.14-6.08s2.75-6.08,6.14-6.08
			S151.611,764.359,151.611,767.719"/>
		<path fill="#F8ABA1" d="M184.941,782.609v12.41c0,1.18-0.96,2.13-2.15,2.13c-1.19,0-2.15-0.95-2.15-2.13v-11.44
			c0-0.21-0.18-0.39-0.39-0.39s-0.39,0.17-0.39,0.39v33.15c0,1.6-1.31,2.89-2.92,2.89s-2.92-1.29-2.92-2.89v-17.71
			c0-0.29-0.24-0.53-0.53-0.53s-0.53,0.24-0.53,0.53v17.71c0,1.6-1.31,2.89-2.92,2.89s-2.92-1.29-2.92-2.89v-33.29
			c0-0.21-0.18-0.39-0.39-0.39c-0.22,0-0.39,0.17-0.39,0.39v11.58c0,1.18-0.96,2.13-2.15,2.13c-1.19,0-2.15-0.95-2.15-2.13v-12.41
			c0-4.38,3.59-7.93,8.01-7.93h6.9C181.351,774.679,184.941,778.229,184.941,782.609"/>
		<path fill="#F8ABA1" d="M179.611,767.719c0,3.36-2.75,6.08-6.14,6.08s-6.14-2.72-6.14-6.08s2.75-6.08,6.14-6.08
			S179.611,764.359,179.611,767.719"/>
		<path fill="#F8ABA1" d="M212.941,782.609v12.41c0,1.18-0.96,2.13-2.15,2.13c-1.19,0-2.15-0.95-2.15-2.13v-11.44
			c0-0.21-0.18-0.39-0.39-0.39s-0.39,0.17-0.39,0.39v33.15c0,1.6-1.31,2.89-2.92,2.89s-2.92-1.29-2.92-2.89v-17.71
			c0-0.29-0.24-0.53-0.53-0.53s-0.53,0.24-0.53,0.53v17.71c0,1.6-1.31,2.89-2.92,2.89s-2.92-1.29-2.92-2.89v-33.29
			c0-0.21-0.18-0.39-0.39-0.39c-0.22,0-0.39,0.17-0.39,0.39v11.58c0,1.18-0.96,2.13-2.15,2.13c-1.19,0-2.15-0.95-2.15-2.13v-12.41
			c0-4.38,3.59-7.93,8.01-7.93h6.9C209.351,774.679,212.941,778.229,212.941,782.609"/>
		<path fill="#F8ABA1" d="M207.621,767.719c0,3.36-2.75,6.08-6.14,6.08s-6.14-2.72-6.14-6.08s2.75-6.08,6.14-6.08
			S207.621,764.359,207.621,767.719"/>
		<path fill="#F8ABA1" d="M240.951,782.609v12.41c0,1.18-0.96,2.13-2.15,2.13c-1.19,0-2.15-0.95-2.15-2.13v-11.44
			c0-0.21-0.18-0.39-0.39-0.39s-0.39,0.17-0.39,0.39v33.15c0,1.6-1.31,2.89-2.92,2.89s-2.92-1.29-2.92-2.89v-17.71
			c0-0.29-0.24-0.53-0.53-0.53s-0.53,0.24-0.53,0.53v17.71c0,1.6-1.31,2.89-2.92,2.89s-2.92-1.29-2.92-2.89v-33.29
			c0-0.21-0.18-0.39-0.39-0.39c-0.22,0-0.39,0.17-0.39,0.39v11.58c0,1.18-0.96,2.13-2.15,2.13c-1.19,0-2.15-0.95-2.15-2.13v-12.41
			c0-4.38,3.59-7.93,8.01-7.93h6.9C237.361,774.679,240.951,778.229,240.951,782.609"/>
		<path fill="#F8ABA1" d="M235.631,767.719c0,3.36-2.75,6.08-6.14,6.08s-6.14-2.72-6.14-6.08s2.75-6.08,6.14-6.08
			S235.631,764.359,235.631,767.719"/>
		<path fill="#F8ABA1" d="M268.961,782.609v12.41c0,1.18-0.96,2.13-2.15,2.13s-2.15-0.95-2.15-2.13v-11.44
			c0-0.21-0.18-0.39-0.39-0.39c-0.21,0-0.39,0.17-0.39,0.39v33.15c0,1.6-1.31,2.89-2.92,2.89c-1.61,0-2.92-1.29-2.92-2.89v-17.71
			c0-0.29-0.24-0.53-0.53-0.53c-0.29,0-0.53,0.24-0.53,0.53v17.71c0,1.6-1.31,2.89-2.92,2.89s-2.92-1.29-2.92-2.89v-33.29
			c0-0.21-0.18-0.39-0.39-0.39c-0.22,0-0.39,0.17-0.39,0.39v11.58c0,1.18-0.96,2.13-2.15,2.13c-1.19,0-2.15-0.95-2.15-2.13v-12.41
			c0-4.38,3.59-7.93,8.01-7.93h6.9C265.371,774.679,268.961,778.229,268.961,782.609"/>
		<path fill="#F8ABA1" d="M263.631,767.719c0,3.36-2.75,6.08-6.14,6.08c-3.39,0-6.14-2.72-6.14-6.08s2.75-6.08,6.14-6.08
			C260.881,761.639,263.631,764.359,263.631,767.719"/>
		<path fill="#F8ABA1" d="M296.961,782.609v12.41c0,1.18-0.96,2.13-2.15,2.13s-2.15-0.95-2.15-2.13v-11.44
			c0-0.21-0.18-0.39-0.39-0.39s-0.39,0.17-0.39,0.39v33.15c0,1.6-1.31,2.89-2.92,2.89s-2.92-1.29-2.92-2.89v-17.71
			c0-0.29-0.24-0.53-0.53-0.53c-0.3,0-0.53,0.24-0.53,0.53v17.71c0,1.6-1.31,2.89-2.92,2.89s-2.92-1.29-2.92-2.89v-33.29
			c0-0.21-0.17-0.39-0.39-0.39s-0.39,0.17-0.39,0.39v11.58c0,1.18-0.96,2.13-2.15,2.13s-2.15-0.95-2.15-2.13v-12.41
			c0-4.38,3.59-7.93,8.02-7.93h6.9C293.371,774.679,296.961,778.229,296.961,782.609"/>
		<path fill="#F8ABA1" d="M291.641,767.719c0,3.36-2.75,6.08-6.14,6.08s-6.14-2.72-6.14-6.08s2.75-6.08,6.14-6.08
			S291.641,764.359,291.641,767.719"/>
		<path fill="#F8ABA1" d="M324.971,782.609v12.41c0,1.18-0.96,2.13-2.15,2.13s-2.15-0.95-2.15-2.13v-11.44
			c0-0.21-0.18-0.39-0.39-0.39s-0.39,0.17-0.39,0.39v33.15c0,1.6-1.31,2.89-2.92,2.89s-2.92-1.29-2.92-2.89v-17.71
			c0-0.29-0.24-0.53-0.53-0.53c-0.3,0-0.53,0.24-0.53,0.53v17.71c0,1.6-1.31,2.89-2.92,2.89s-2.92-1.29-2.92-2.89v-33.29
			c0-0.21-0.17-0.39-0.39-0.39s-0.39,0.17-0.39,0.39v11.58c0,1.18-0.96,2.13-2.15,2.13s-2.15-0.95-2.15-2.13v-12.41
			c0-4.38,3.59-7.93,8.02-7.93h6.9C321.381,774.679,324.971,778.229,324.971,782.609"/>
		<path fill="#F8ABA1" d="M319.641,767.719c0,3.36-2.75,6.08-6.14,6.08s-6.14-2.72-6.14-6.08s2.75-6.08,6.14-6.08
			C316.901,761.639,319.641,764.359,319.641,767.719"/>
		<path fill="#F8ABA1" d="M352.971,782.609v12.41c0,1.18-0.96,2.13-2.15,2.13s-2.15-0.95-2.15-2.13v-11.44
			c0-0.21-0.18-0.39-0.39-0.39s-0.39,0.17-0.39,0.39v33.15c0,1.6-1.31,2.89-2.92,2.89s-2.92-1.29-2.92-2.89v-17.71
			c0-0.29-0.24-0.53-0.53-0.53c-0.3,0-0.53,0.24-0.53,0.53v17.71c0,1.6-1.31,2.89-2.92,2.89s-2.92-1.29-2.92-2.89v-33.29
			c0-0.21-0.18-0.39-0.39-0.39s-0.39,0.17-0.39,0.39v11.58c0,1.18-0.96,2.13-2.15,2.13s-2.15-0.95-2.15-2.13v-12.41
			c0-4.38,3.59-7.93,8.02-7.93h6.9C349.391,774.679,352.971,778.229,352.971,782.609"/>
		<path fill="#F8ABA1" d="M347.651,767.719c0,3.36-2.75,6.08-6.14,6.08s-6.14-2.72-6.14-6.08s2.75-6.08,6.14-6.08
			S347.651,764.359,347.651,767.719"/>
		<path fill="#F8ABA1" d="M380.981,782.609v12.41c0,1.18-0.96,2.13-2.15,2.13s-2.15-0.95-2.15-2.13v-11.44
			c0-0.21-0.18-0.39-0.39-0.39s-0.39,0.17-0.39,0.39v33.15c0,1.6-1.31,2.89-2.92,2.89s-2.92-1.29-2.92-2.89v-17.71
			c0-0.29-0.24-0.53-0.53-0.53c-0.3,0-0.53,0.24-0.53,0.53v17.71c0,1.6-1.31,2.89-2.92,2.89s-2.92-1.29-2.92-2.89v-33.29
			c0-0.21-0.18-0.39-0.39-0.39s-0.39,0.17-0.39,0.39v11.58c0,1.18-0.96,2.13-2.15,2.13s-2.15-0.95-2.15-2.13v-12.41
			c0-4.38,3.59-7.93,8.02-7.93h6.9C377.391,774.679,380.981,778.229,380.981,782.609"/>
		<path fill="#F8ABA1" d="M375.661,767.719c0,3.36-2.75,6.08-6.14,6.08s-6.14-2.72-6.14-6.08s2.75-6.08,6.14-6.08
			S375.661,764.359,375.661,767.719"/>
		<path fill="#F8ABA1" d="M45.931,110.587v12.96c0,1.23-1.01,2.23-2.25,2.23c-1.24,0-2.25-1-2.25-2.23v-11.95
			c0-0.22-0.18-0.4-0.41-0.4s-0.41,0.18-0.41,0.4v34.63c0,1.67-1.36,3.02-3.05,3.02c-1.68,0-3.05-1.35-3.05-3.02v-18.5
			c0-0.3-0.25-0.55-0.56-0.55c-0.31,0-0.56,0.25-0.56,0.55v18.5c0,1.67-1.36,3.02-3.05,3.02c-1.69,0-3.05-1.35-3.05-3.02v-34.78
			c0-0.22-0.18-0.4-0.41-0.4s-0.41,0.18-0.41,0.4v12.1c0,1.23-1.01,2.23-2.25,2.23s-2.25-1-2.25-2.23v-12.96
			c0-4.58,3.75-8.29,8.37-8.29h7.2C42.181,102.297,45.931,106.007,45.931,110.587"/>
	</g>
	<g id="armed_00000183244201078571285070000015172639229087333814_">
		<path id="desk_00000110465266113261618490000012534664820919976625_" fill="#B1B3B6" d="M45.931,45.157v12.96
			c0,1.23-1.01,2.23-2.25,2.23c-1.24,0-2.25-1-2.25-2.23v-11.95c0-0.22-0.18-0.4-0.41-0.4s-0.41,0.18-0.41,0.4v34.63
			c0,1.67-1.36,3.02-3.05,3.02c-1.68,0-3.05-1.35-3.05-3.02v-18.5c0-0.3-0.25-0.55-0.56-0.55c-0.31,0-0.56,0.25-0.56,0.55v18.5
			c0,1.67-1.36,3.02-3.05,3.02c-1.69,0-3.05-1.35-3.05-3.02v-34.78c0-0.22-0.18-0.41-0.41-0.41s-0.41,0.18-0.41,0.41v12.09
			c0,1.23-1.01,2.23-2.25,2.23s-2.25-1-2.25-2.23v-12.95c0-4.58,3.75-8.29,8.37-8.29h7.2C42.181,36.867,45.931,40.577,45.931,45.157
			"/>
		<path id="desk_00000060725160335069431240000014291431663617750959_" fill="#B1B3B6" d="M40.361,29.597
			c0,3.51-2.87,6.35-6.41,6.35c-3.54,0-6.41-2.84-6.41-6.35s2.87-6.35,6.41-6.35C37.491,23.247,40.361,26.087,40.361,29.597"/>
		<path id="desk_00000043432445475469624970000018268322817692471435_" fill="#B1B3B6" d="M426.291,45.157v12.96
			c0,1.23-1.01,2.23-2.25,2.23s-2.25-1-2.25-2.23v-11.95c0-0.22-0.18-0.4-0.41-0.4s-0.41,0.18-0.41,0.4v34.63
			c0,1.67-1.36,3.02-3.05,3.02c-1.68,0-3.05-1.35-3.05-3.02v-18.5c0-0.3-0.25-0.55-0.56-0.55s-0.56,0.25-0.56,0.55v18.5
			c0,1.67-1.36,3.02-3.05,3.02c-1.68,0-3.05-1.35-3.05-3.02v-34.78c0-0.22-0.18-0.41-0.41-0.41s-0.41,0.18-0.41,0.41v12.09
			c0,1.23-1.01,2.23-2.25,2.23s-2.25-1-2.25-2.23v-12.95c0-4.58,3.75-8.29,8.37-8.29h7.2
			C422.541,36.867,426.291,40.577,426.291,45.157"/>
		<path id="desk_00000167360927475520300420000017287730499730718892_" fill="#B1B3B6" d="M420.731,29.597
			c0,3.51-2.87,6.35-6.41,6.35s-6.41-2.84-6.41-6.35s2.87-6.35,6.41-6.35S420.731,26.087,420.731,29.597"/>
		<path id="desk_00000083062299130494999390000011895006391298867125_" fill="#B1B3B6" d="M75.181,45.157v12.96
			c0,1.23-1.01,2.23-2.25,2.23c-1.24,0-2.25-1-2.25-2.23v-11.95c0-0.22-0.18-0.4-0.41-0.4c-0.23,0-0.41,0.18-0.41,0.4v34.63
			c0,1.67-1.37,3.02-3.05,3.02s-3.05-1.35-3.05-3.02v-18.5c0-0.3-0.25-0.55-0.56-0.55s-0.56,0.25-0.56,0.55v18.5
			c0,1.67-1.37,3.02-3.05,3.02s-3.05-1.35-3.05-3.02v-34.78c0-0.22-0.18-0.41-0.41-0.41s-0.41,0.18-0.41,0.41v12.09
			c0,1.23-1.01,2.23-2.25,2.23s-2.25-1-2.25-2.23v-12.95c0-4.58,3.75-8.29,8.37-8.29h7.2C71.441,36.867,75.181,40.577,75.181,45.157
			"/>
		<path id="desk_00000083089106585172287200000016202128979101563542_" fill="#B1B3B6" d="M69.621,29.597
			c0,3.51-2.87,6.35-6.41,6.35c-3.54,0-6.41-2.84-6.41-6.35s2.87-6.35,6.41-6.35C66.751,23.247,69.621,26.087,69.621,29.597"/>
		<path id="desk_00000003086401355798285660000016488647644922299299_" fill="#B1B3B6" d="M455.551,45.157v12.96
			c0,1.23-1.01,2.23-2.25,2.23s-2.25-1-2.25-2.23v-11.95c0-0.22-0.18-0.4-0.41-0.4s-0.41,0.18-0.41,0.4v34.63
			c0,1.67-1.36,3.02-3.05,3.02c-1.68,0-3.05-1.35-3.05-3.02v-18.5c0-0.3-0.25-0.55-0.56-0.55s-0.56,0.25-0.56,0.55v18.5
			c0,1.67-1.36,3.02-3.05,3.02c-1.68,0-3.05-1.35-3.05-3.02v-34.78c0-0.22-0.18-0.41-0.41-0.41s-0.41,0.18-0.41,0.41v12.09
			c0,1.23-1.01,2.23-2.25,2.23s-2.25-1-2.25-2.23v-12.95c0-4.58,3.75-8.29,8.37-8.29h7.2
			C451.801,36.867,455.551,40.577,455.551,45.157"/>
		<path id="desk_00000054224566704493061550000008273181784764903584_" fill="#B1B3B6" d="M449.991,29.597
			c0,3.51-2.87,6.35-6.41,6.35s-6.41-2.84-6.41-6.35s2.87-6.35,6.41-6.35C447.121,23.247,449.991,26.087,449.991,29.597"/>
		<path id="desk_00000142135694740930830070000006346591706153985193_" fill="#B1B3B6" d="M104.441,45.157v12.96
			c0,1.23-1.01,2.23-2.25,2.23s-2.25-1-2.25-2.23v-11.95c0-0.22-0.18-0.4-0.41-0.4s-0.41,0.18-0.41,0.4v34.63
			c0,1.67-1.37,3.02-3.05,3.02s-3.05-1.35-3.05-3.02v-18.5c0-0.3-0.25-0.55-0.56-0.55s-0.56,0.25-0.56,0.55v18.5
			c0,1.67-1.36,3.02-3.05,3.02c-1.68,0-3.05-1.35-3.05-3.02v-34.78c0-0.22-0.18-0.41-0.41-0.41s-0.41,0.18-0.41,0.41v12.09
			c0,1.23-1.01,2.23-2.25,2.23s-2.25-1-2.25-2.23v-12.95c0-4.58,3.75-8.29,8.37-8.29h7.2
			C100.691,36.867,104.441,40.577,104.441,45.157"/>
		<path id="desk_00000160149320074957946410000007801625435017900690_" fill="#B1B3B6" d="M98.881,29.597
			c0,3.51-2.87,6.35-6.41,6.35s-6.41-2.84-6.41-6.35s2.87-6.35,6.41-6.35S98.881,26.087,98.881,29.597"/>
		<path id="desk_00000033360726094358501820000009937191049557751978_" fill="#B1B3B6" d="M484.811,45.157v12.96
			c0,1.23-1.01,2.23-2.25,2.23s-2.25-1-2.25-2.23v-11.95c0-0.22-0.18-0.4-0.41-0.4s-0.41,0.18-0.41,0.4v34.63
			c0,1.67-1.36,3.02-3.05,3.02c-1.68,0-3.05-1.35-3.05-3.02v-18.5c0-0.3-0.25-0.55-0.56-0.55s-0.56,0.25-0.56,0.55v18.5
			c0,1.67-1.36,3.02-3.05,3.02c-1.68,0-3.05-1.35-3.05-3.02v-34.78c0-0.22-0.18-0.41-0.41-0.41s-0.41,0.18-0.41,0.41v12.09
			c0,1.23-1.01,2.23-2.25,2.23s-2.25-1-2.25-2.23v-12.95c0-4.58,3.75-8.29,8.37-8.29h7.2
			C481.061,36.867,484.811,40.577,484.811,45.157"/>
		<path id="desk_00000122695999333783147150000016087092502390674347_" fill="#B1B3B6" d="M479.251,29.597
			c0,3.51-2.87,6.35-6.41,6.35s-6.41-2.84-6.41-6.35s2.87-6.35,6.41-6.35C476.371,23.247,479.251,26.087,479.251,29.597"/>
		<path id="desk_00000175298179281538304480000002786014919323112379_" fill="#B1B3B6" d="M133.701,45.157v12.96
			c0,1.23-1.01,2.23-2.25,2.23c-1.24,0-2.25-1-2.25-2.23v-11.95c0-0.22-0.18-0.4-0.41-0.4c-0.23,0-0.41,0.18-0.41,0.4v34.63
			c0,1.67-1.37,3.02-3.05,3.02s-3.05-1.35-3.05-3.02v-18.5c0-0.3-0.25-0.55-0.56-0.55s-0.56,0.25-0.56,0.55v18.5
			c0,1.67-1.36,3.02-3.05,3.02c-1.68,0-3.05-1.35-3.05-3.02v-34.78c0-0.22-0.18-0.41-0.41-0.41s-0.41,0.18-0.41,0.41v12.09
			c0,1.23-1.01,2.23-2.25,2.23s-2.25-1-2.25-2.23v-12.95c0-4.58,3.75-8.29,8.37-8.29h7.2
			C129.951,36.867,133.701,40.577,133.701,45.157"/>
		<path id="desk_00000135665412149532623970000008518152590630809739_" fill="#B1B3B6" d="M128.141,29.597
			c0,3.51-2.87,6.35-6.41,6.35s-6.41-2.84-6.41-6.35s2.87-6.35,6.41-6.35S128.141,26.087,128.141,29.597"/>
		<path id="desk_00000010993618711252240170000000018202554266163386_" fill="#B1B3B6" d="M514.071,45.157v12.96
			c0,1.23-1.01,2.23-2.25,2.23s-2.25-1-2.25-2.23v-11.95c0-0.22-0.18-0.4-0.41-0.4s-0.41,0.18-0.41,0.4v34.63
			c0,1.67-1.36,3.02-3.05,3.02c-1.68,0-3.05-1.35-3.05-3.02v-18.5c0-0.3-0.25-0.55-0.56-0.55s-0.56,0.25-0.56,0.55v18.5
			c0,1.67-1.36,3.02-3.05,3.02c-1.68,0-3.05-1.35-3.05-3.02v-34.78c0-0.22-0.18-0.41-0.41-0.41s-0.41,0.18-0.41,0.41v12.09
			c0,1.23-1.01,2.23-2.25,2.23s-2.25-1-2.25-2.23v-12.95c0-4.58,3.75-8.29,8.37-8.29h7.2
			C510.321,36.867,514.071,40.577,514.071,45.157"/>
		<path id="desk_00000107556452289783266380000009411986140793553040_" fill="#B1B3B6" d="M508.511,29.597
			c0,3.51-2.87,6.35-6.41,6.35s-6.41-2.84-6.41-6.35s2.87-6.35,6.41-6.35C505.631,23.247,508.511,26.087,508.511,29.597"/>
		<path id="desk_00000141430287990756279280000006676707899687467907_" fill="#B1B3B6" d="M162.961,45.157v12.96
			c0,1.23-1.01,2.23-2.25,2.23s-2.25-1-2.25-2.23v-11.95c0-0.22-0.18-0.4-0.41-0.4s-0.41,0.18-0.41,0.4v34.63
			c0,1.67-1.37,3.02-3.05,3.02c-1.68,0-3.05-1.35-3.05-3.02v-18.5c0-0.3-0.25-0.55-0.56-0.55s-0.56,0.25-0.56,0.55v18.5
			c0,1.67-1.36,3.02-3.05,3.02s-3.05-1.35-3.05-3.02v-34.78c0-0.22-0.18-0.41-0.41-0.41s-0.41,0.18-0.41,0.41v12.09
			c0,1.23-1.01,2.23-2.25,2.23s-2.25-1-2.25-2.23v-12.95c0-4.58,3.75-8.29,8.37-8.29h7.2
			C159.211,36.867,162.961,40.577,162.961,45.157"/>
		<path id="desk_00000130645118823337065050000000242767666332194179_" fill="#B1B3B6" d="M157.401,29.597
			c0,3.51-2.87,6.35-6.41,6.35s-6.41-2.84-6.41-6.35s2.87-6.35,6.41-6.35S157.401,26.087,157.401,29.597"/>
		<path id="desk_00000101078323473471013530000004406946961583059328_" fill="#B1B3B6" d="M543.331,45.157v12.96
			c0,1.23-1.01,2.23-2.25,2.23s-2.25-1-2.25-2.23v-11.95c0-0.22-0.18-0.4-0.41-0.4s-0.41,0.18-0.41,0.4v34.63
			c0,1.67-1.36,3.02-3.05,3.02c-1.68,0-3.05-1.35-3.05-3.02v-18.5c0-0.3-0.25-0.55-0.56-0.55s-0.56,0.25-0.56,0.55v18.5
			c0,1.67-1.36,3.02-3.05,3.02s-3.05-1.35-3.05-3.02v-34.78c0-0.22-0.18-0.41-0.41-0.41c-0.23,0-0.41,0.18-0.41,0.41v12.09
			c0,1.23-1.01,2.23-2.25,2.23s-2.25-1-2.25-2.23v-12.95c0-4.58,3.75-8.29,8.37-8.29h7.2
			C539.581,36.867,543.331,40.577,543.331,45.157"/>
		<path id="desk_00000150790930979325702830000018432618971366404742_" fill="#B1B3B6" d="M537.761,29.597
			c0,3.51-2.87,6.35-6.41,6.35s-6.41-2.84-6.41-6.35s2.87-6.35,6.41-6.35S537.761,26.087,537.761,29.597"/>
		<path id="desk_00000063597816416126869070000007682378162084940187_" fill="#B1B3B6" d="M192.221,45.157v12.96
			c0,1.23-1.01,2.23-2.25,2.23s-2.25-1-2.25-2.23v-11.95c0-0.22-0.18-0.4-0.41-0.4s-0.41,0.18-0.41,0.4v34.63
			c0,1.67-1.37,3.02-3.05,3.02c-1.68,0-3.05-1.35-3.05-3.02v-18.5c0-0.3-0.25-0.55-0.56-0.55s-0.56,0.25-0.56,0.55v18.5
			c0,1.67-1.37,3.02-3.05,3.02c-1.68,0-3.05-1.35-3.05-3.02v-34.78c0-0.22-0.18-0.41-0.41-0.41c-0.23,0-0.41,0.18-0.41,0.41v12.09
			c0,1.23-1.01,2.23-2.25,2.23s-2.25-1-2.25-2.23v-12.95c0-4.58,3.75-8.29,8.37-8.29h7.2
			C188.471,36.867,192.221,40.577,192.221,45.157"/>
		<path id="desk_00000106832544575823194160000002068440802462643378_" fill="#B1B3B6" d="M186.661,29.597
			c0,3.51-2.87,6.35-6.41,6.35c-3.54,0-6.41-2.84-6.41-6.35s2.87-6.35,6.41-6.35S186.661,26.087,186.661,29.597"/>
		<path id="desk_00000173873010293895111180000007519342645367064194_" fill="#B1B3B6" d="M572.581,45.157v12.96
			c0,1.23-1.01,2.23-2.25,2.23s-2.25-1-2.25-2.23v-11.95c0-0.22-0.18-0.4-0.41-0.4s-0.41,0.18-0.41,0.4v34.63
			c0,1.67-1.36,3.02-3.05,3.02c-1.68,0-3.05-1.35-3.05-3.02v-18.5c0-0.3-0.25-0.55-0.56-0.55s-0.56,0.25-0.56,0.55v18.5
			c0,1.67-1.36,3.02-3.05,3.02s-3.05-1.35-3.05-3.02v-34.78c0-0.22-0.18-0.41-0.41-0.41s-0.41,0.18-0.41,0.41v12.09
			c0,1.23-1.01,2.23-2.25,2.23s-2.25-1-2.25-2.23v-12.95c0-4.58,3.75-8.29,8.37-8.29h7.2
			C568.831,36.867,572.581,40.577,572.581,45.157"/>
		<path id="desk_00000150815668870602519310000018177151252573813900_" fill="#B1B3B6" d="M567.021,29.597
			c0,3.51-2.87,6.35-6.41,6.35s-6.41-2.84-6.41-6.35s2.87-6.35,6.41-6.35S567.021,26.087,567.021,29.597"/>
		<path id="desk_00000146499564224552033560000007386361160884925838_" fill="#B1B3B6" d="M221.481,45.157v12.96
			c0,1.23-1.01,2.23-2.25,2.23s-2.25-1-2.25-2.23v-11.95c0-0.22-0.18-0.4-0.41-0.4s-0.41,0.18-0.41,0.4v34.63
			c0,1.67-1.37,3.02-3.05,3.02c-1.68,0-3.05-1.35-3.05-3.02v-18.5c0-0.3-0.25-0.55-0.56-0.55s-0.56,0.25-0.56,0.55v18.5
			c0,1.67-1.37,3.02-3.05,3.02c-1.68,0-3.05-1.35-3.05-3.02v-34.78c0-0.22-0.18-0.41-0.41-0.41c-0.23,0-0.41,0.18-0.41,0.41v12.09
			c0,1.23-1.01,2.23-2.25,2.23s-2.25-1-2.25-2.23v-12.95c0-4.58,3.75-8.29,8.37-8.29h7.2
			C217.731,36.867,221.481,40.577,221.481,45.157"/>
		<path id="desk_00000068657965651504329650000016642769944292566668_" fill="#B1B3B6" d="M215.921,29.597
			c0,3.51-2.87,6.35-6.41,6.35c-3.54,0-6.41-2.84-6.41-6.35s2.87-6.35,6.41-6.35C213.051,23.247,215.921,26.087,215.921,29.597"/>
		<path id="desk_00000012450741647390041480000007299299832923897773_" fill="#B1B3B6" d="M601.841,45.157v12.96
			c0,1.23-1.01,2.23-2.25,2.23s-2.25-1-2.25-2.23v-11.95c0-0.22-0.18-0.4-0.41-0.4s-0.41,0.18-0.41,0.4v34.63
			c0,1.67-1.36,3.02-3.05,3.02c-1.68,0-3.05-1.35-3.05-3.02v-18.5c0-0.3-0.25-0.55-0.56-0.55s-0.56,0.25-0.56,0.55v18.5
			c0,1.67-1.36,3.02-3.05,3.02s-3.05-1.35-3.05-3.02v-34.78c0-0.22-0.18-0.41-0.41-0.41s-0.41,0.18-0.41,0.41v12.09
			c0,1.23-1.01,2.23-2.25,2.23s-2.25-1-2.25-2.23v-12.95c0-4.58,3.75-8.29,8.37-8.29h7.2
			C598.091,36.867,601.841,40.577,601.841,45.157"/>
		<path id="desk_00000016037781088663860060000008589479701697606540_" fill="#B1B3B6" d="M596.281,29.597
			c0,3.51-2.87,6.35-6.41,6.35s-6.41-2.84-6.41-6.35s2.87-6.35,6.41-6.35S596.281,26.087,596.281,29.597"/>
		<path id="desk_00000021837656702247254440000010195082574999478660_" fill="#B1B3B6" d="M250.741,45.157v12.96
			c0,1.23-1.01,2.23-2.25,2.23s-2.25-1-2.25-2.23v-11.95c0-0.22-0.18-0.4-0.41-0.4s-0.41,0.18-0.41,0.4v34.63
			c0,1.67-1.37,3.02-3.05,3.02c-1.68,0-3.05-1.35-3.05-3.02v-18.5c0-0.3-0.25-0.55-0.56-0.55s-0.56,0.25-0.56,0.55v18.5
			c0,1.67-1.37,3.02-3.05,3.02c-1.68,0-3.05-1.35-3.05-3.02v-34.78c0-0.22-0.18-0.41-0.41-0.41c-0.23,0-0.41,0.18-0.41,0.41v12.09
			c0,1.23-1.01,2.23-2.25,2.23s-2.25-1-2.25-2.23v-12.95c0-4.58,3.75-8.29,8.37-8.29h7.2
			C246.991,36.867,250.741,40.577,250.741,45.157"/>
		<path id="desk_00000176016640762866894050000000940467767883378868_" fill="#B1B3B6" d="M245.181,29.597
			c0,3.51-2.87,6.35-6.41,6.35c-3.54,0-6.41-2.84-6.41-6.35s2.87-6.35,6.41-6.35C242.301,23.247,245.181,26.087,245.181,29.597"/>
		<path id="desk_00000035508548643682016020000017391283474406275721_" fill="#B1B3B6" d="M631.101,45.157v12.96
			c0,1.23-1.01,2.23-2.25,2.23s-2.25-1-2.25-2.23v-11.95c0-0.22-0.18-0.4-0.41-0.4s-0.41,0.18-0.41,0.4v34.63
			c0,1.67-1.36,3.02-3.05,3.02c-1.68,0-3.05-1.35-3.05-3.02v-18.5c0-0.3-0.25-0.55-0.56-0.55s-0.56,0.25-0.56,0.55v18.5
			c0,1.67-1.36,3.02-3.05,3.02s-3.05-1.35-3.05-3.02v-34.78c0-0.22-0.18-0.41-0.41-0.41s-0.41,0.18-0.41,0.41v12.09
			c0,1.23-1.01,2.23-2.25,2.23s-2.25-1-2.25-2.23v-12.95c0-4.58,3.75-8.29,8.37-8.29h7.2
			C627.351,36.867,631.101,40.577,631.101,45.157"/>
		<path id="desk_00000002349464650299086220000005000920747606394029_" fill="#B1B3B6" d="M625.541,29.597
			c0,3.51-2.87,6.35-6.41,6.35s-6.41-2.84-6.41-6.35s2.87-6.35,6.41-6.35C622.671,23.247,625.541,26.087,625.541,29.597"/>
		<path id="desk_00000011730554105150962130000006924444313843782834_" fill="#B1B3B6" d="M280.001,45.157v12.96
			c0,1.23-1.01,2.23-2.25,2.23s-2.25-1-2.25-2.23v-11.95c0-0.22-0.18-0.4-0.41-0.4s-0.41,0.18-0.41,0.4v34.63
			c0,1.67-1.37,3.02-3.05,3.02s-3.05-1.35-3.05-3.02v-18.5c0-0.3-0.25-0.55-0.56-0.55s-0.56,0.25-0.56,0.55v18.5
			c0,1.67-1.37,3.02-3.05,3.02c-1.68,0-3.05-1.35-3.05-3.02v-34.78c0-0.22-0.18-0.41-0.41-0.41s-0.41,0.18-0.41,0.41v12.09
			c0,1.23-1.01,2.23-2.25,2.23c-1.24,0-2.25-1-2.25-2.23v-12.95c0-4.58,3.75-8.29,8.37-8.29h7.2
			C276.251,36.867,280.001,40.577,280.001,45.157"/>
		<path id="desk_00000168114094629487092570000007727620034647449478_" fill="#B1B3B6" d="M274.431,29.597
			c0,3.51-2.87,6.35-6.41,6.35c-3.54,0-6.41-2.84-6.41-6.35s2.87-6.35,6.41-6.35C271.561,23.247,274.431,26.087,274.431,29.597"/>
		<path id="desk_00000068648080997680039300000000357666654936895903_" fill="#B1B3B6" d="M660.361,45.157v12.96
			c0,1.23-1.01,2.23-2.25,2.23s-2.25-1-2.25-2.23v-11.95c0-0.22-0.18-0.4-0.41-0.4s-0.41,0.18-0.41,0.4v34.63
			c0,1.67-1.36,3.02-3.05,3.02c-1.68,0-3.05-1.35-3.05-3.02v-18.5c0-0.3-0.25-0.55-0.56-0.55s-0.56,0.25-0.56,0.55v18.5
			c0,1.67-1.36,3.02-3.05,3.02s-3.05-1.35-3.05-3.02v-34.78c0-0.22-0.18-0.41-0.41-0.41s-0.41,0.18-0.41,0.41v12.09
			c0,1.23-1.01,2.23-2.25,2.23s-2.25-1-2.25-2.23v-12.95c0-4.58,3.75-8.29,8.37-8.29h7.2
			C656.611,36.867,660.361,40.577,660.361,45.157"/>
		<path id="desk_00000143583317132611640910000009151398354120837030_" fill="#B1B3B6" d="M654.801,29.597
			c0,3.51-2.87,6.35-6.41,6.35s-6.41-2.84-6.41-6.35s2.87-6.35,6.41-6.35S654.801,26.087,654.801,29.597"/>
		<path id="desk_00000026845207248177058150000010437904077871731626_" fill="#B1B3B6" d="M309.251,45.157v12.96
			c0,1.23-1.01,2.23-2.25,2.23s-2.25-1-2.25-2.23v-11.95c0-0.22-0.18-0.4-0.41-0.4s-0.41,0.18-0.41,0.4v34.63
			c0,1.67-1.36,3.02-3.05,3.02c-1.68,0-3.05-1.35-3.05-3.02v-18.5c0-0.3-0.25-0.55-0.56-0.55s-0.56,0.25-0.56,0.55v18.5
			c0,1.67-1.36,3.02-3.05,3.02c-1.68,0-3.05-1.35-3.05-3.02v-34.78c0-0.22-0.18-0.41-0.41-0.41s-0.41,0.18-0.41,0.41v12.09
			c0,1.23-1.01,2.23-2.25,2.23s-2.25-1-2.25-2.23v-12.95c0-4.58,3.75-8.29,8.37-8.29h7.2
			C305.511,36.867,309.251,40.577,309.251,45.157"/>
		<path id="desk_00000121280668791820816430000013424082857295145877_" fill="#B1B3B6" d="M303.691,29.597
			c0,3.51-2.87,6.35-6.41,6.35s-6.41-2.84-6.41-6.35s2.87-6.35,6.41-6.35S303.691,26.087,303.691,29.597"/>
		<path id="desk_00000120533309668806507880000001493263582725063065_" fill="#B1B3B6" d="M689.621,45.157v12.96
			c0,1.23-1.01,2.23-2.25,2.23s-2.25-1-2.25-2.23v-11.95c0-0.22-0.18-0.4-0.41-0.4s-0.41,0.18-0.41,0.4v34.63
			c0,1.67-1.36,3.02-3.05,3.02c-1.68,0-3.05-1.35-3.05-3.02v-18.5c0-0.3-0.25-0.55-0.56-0.55s-0.56,0.25-0.56,0.55v18.5
			c0,1.67-1.36,3.02-3.05,3.02s-3.05-1.35-3.05-3.02v-34.78c0-0.22-0.18-0.41-0.41-0.41s-0.41,0.18-0.41,0.41v12.09
			c0,1.23-1.01,2.23-2.25,2.23s-2.25-1-2.25-2.23v-12.95c0-4.58,3.75-8.29,8.37-8.29h7.2
			C685.871,36.867,689.621,40.577,689.621,45.157"/>
		<path id="desk_00000121991610898218468650000013631201120349962126_" fill="#B1B3B6" d="M684.061,29.597
			c0,3.51-2.87,6.35-6.41,6.35s-6.41-2.84-6.41-6.35s2.87-6.35,6.41-6.35S684.061,26.087,684.061,29.597"/>
		<path id="desk_00000151509277208255335950000008352807545563983245_" fill="#B1B3B6" d="M338.511,45.157v12.96
			c0,1.23-1.01,2.23-2.25,2.23s-2.25-1-2.25-2.23v-11.95c0-0.22-0.18-0.4-0.41-0.4s-0.41,0.18-0.41,0.4v34.63
			c0,1.67-1.36,3.02-3.05,3.02c-1.68,0-3.05-1.35-3.05-3.02v-18.5c0-0.3-0.25-0.55-0.56-0.55s-0.56,0.25-0.56,0.55v18.5
			c0,1.67-1.36,3.02-3.05,3.02c-1.68,0-3.05-1.35-3.05-3.02v-34.78c0-0.22-0.18-0.41-0.41-0.41s-0.41,0.18-0.41,0.41v12.09
			c0,1.23-1.01,2.23-2.25,2.23s-2.25-1-2.25-2.23v-12.95c0-4.58,3.75-8.29,8.37-8.29h7.2
			C334.761,36.867,338.511,40.577,338.511,45.157"/>
		<path id="desk_00000094610352264284391690000013367316410805516451_" fill="#B1B3B6" d="M332.951,29.597
			c0,3.51-2.87,6.35-6.41,6.35s-6.41-2.84-6.41-6.35s2.87-6.35,6.41-6.35S332.951,26.087,332.951,29.597"/>
		<path id="desk_00000062153532794524379460000016407908716292812451_" fill="#B1B3B6" d="M718.881,45.157v12.96
			c0,1.23-1.01,2.23-2.25,2.23s-2.25-1-2.25-2.23v-11.95c0-0.22-0.18-0.4-0.41-0.4s-0.41,0.18-0.41,0.4v34.63
			c0,1.67-1.36,3.02-3.05,3.02c-1.68,0-3.05-1.35-3.05-3.02v-18.5c0-0.3-0.25-0.55-0.56-0.55s-0.56,0.25-0.56,0.55v18.5
			c0,1.67-1.36,3.02-3.05,3.02s-3.05-1.35-3.05-3.02v-34.78c0-0.22-0.18-0.41-0.41-0.41s-0.41,0.18-0.41,0.41v12.09
			c0,1.23-1.01,2.23-2.25,2.23s-2.25-1-2.25-2.23v-12.95c0-4.58,3.75-8.29,8.37-8.29h7.2
			C715.131,36.867,718.881,40.577,718.881,45.157"/>
		<path id="desk_00000163041837693583851700000006160269243560622737_" fill="#B1B3B6" d="M713.321,29.597
			c0,3.51-2.87,6.35-6.41,6.35s-6.41-2.84-6.41-6.35s2.87-6.35,6.41-6.35C710.441,23.247,713.321,26.087,713.321,29.597"/>
		<path id="desk_00000050624529604188450050000017765069813509950107_" fill="#B1B3B6" d="M806.651,45.157v12.96
			c0,1.23-1.01,2.23-2.25,2.23s-2.25-1-2.25-2.23v-11.95c0-0.22-0.18-0.4-0.41-0.4s-0.41,0.18-0.41,0.4v34.63
			c0,1.67-1.36,3.02-3.05,3.02c-1.68,0-3.05-1.35-3.05-3.02v-18.5c0-0.3-0.25-0.55-0.56-0.55s-0.56,0.25-0.56,0.55v18.5
			c0,1.67-1.36,3.02-3.05,3.02s-3.05-1.35-3.05-3.02v-34.78c0-0.22-0.18-0.41-0.41-0.41s-0.41,0.18-0.41,0.41v12.09
			c0,1.23-1.01,2.23-2.25,2.23s-2.25-1-2.25-2.23v-12.95c0-4.58,3.75-8.29,8.37-8.29h7.2
			C802.911,36.867,806.651,40.577,806.651,45.157"/>
		<path id="desk_00000129171453580330358080000004318502121572501166_" fill="#B1B3B6" d="M801.091,29.597
			c0,3.51-2.87,6.35-6.41,6.35s-6.41-2.84-6.41-6.35s2.87-6.35,6.41-6.35S801.091,26.087,801.091,29.597"/>
		<path id="desk_00000077307443326894917290000014246513849676738997_" fill="#B1B3B6" d="M367.771,45.157v12.96
			c0,1.23-1.01,2.23-2.25,2.23s-2.25-1-2.25-2.23v-11.95c0-0.22-0.18-0.4-0.41-0.4s-0.41,0.18-0.41,0.4v34.63
			c0,1.67-1.36,3.02-3.05,3.02c-1.68,0-3.05-1.35-3.05-3.02v-18.5c0-0.3-0.25-0.55-0.56-0.55s-0.56,0.25-0.56,0.55v18.5
			c0,1.67-1.36,3.02-3.05,3.02c-1.68,0-3.05-1.35-3.05-3.02v-34.78c0-0.22-0.18-0.41-0.41-0.41s-0.41,0.18-0.41,0.41v12.09
			c0,1.23-1.01,2.23-2.25,2.23s-2.25-1-2.25-2.23v-12.95c0-4.58,3.75-8.29,8.37-8.29h7.2
			C364.021,36.867,367.771,40.577,367.771,45.157"/>
		<path id="desk_00000080926425506491222320000015720130744569296782_" fill="#B1B3B6" d="M362.211,29.597
			c0,3.51-2.87,6.35-6.41,6.35s-6.41-2.84-6.41-6.35s2.87-6.35,6.41-6.35C359.341,23.247,362.211,26.087,362.211,29.597"/>
		<path id="desk_00000012455104976438341840000017168860205235334326_" fill="#B1B3B6" d="M748.141,45.157v12.96
			c0,1.23-1.01,2.23-2.25,2.23s-2.25-1-2.25-2.23v-11.95c0-0.22-0.18-0.4-0.41-0.4s-0.41,0.18-0.41,0.4v34.63
			c0,1.67-1.36,3.02-3.05,3.02c-1.68,0-3.05-1.35-3.05-3.02v-18.5c0-0.3-0.25-0.55-0.56-0.55s-0.56,0.25-0.56,0.55v18.5
			c0,1.67-1.36,3.02-3.05,3.02s-3.05-1.35-3.05-3.02v-34.78c0-0.22-0.18-0.41-0.41-0.41s-0.41,0.18-0.41,0.41v12.09
			c0,1.23-1.01,2.23-2.25,2.23s-2.25-1-2.25-2.23v-12.95c0-4.58,3.75-8.29,8.37-8.29h7.2
			C744.391,36.867,748.141,40.577,748.141,45.157"/>
		<path id="desk_00000007406441732602899710000017888546770379053498_" fill="#B1B3B6" d="M742.581,29.597
			c0,3.51-2.87,6.35-6.41,6.35s-6.41-2.84-6.41-6.35s2.87-6.35,6.41-6.35C739.701,23.247,742.581,26.087,742.581,29.597"/>
		<path id="desk_00000049921823691653879790000017455608385685294779_" fill="#B1B3B6" d="M835.911,45.157v12.96
			c0,1.23-1.01,2.23-2.25,2.23s-2.25-1-2.25-2.23v-11.95c0-0.22-0.18-0.4-0.41-0.4s-0.41,0.18-0.41,0.4v34.63
			c0,1.67-1.36,3.02-3.05,3.02c-1.68,0-3.05-1.35-3.05-3.02v-18.5c0-0.3-0.25-0.55-0.56-0.55s-0.56,0.25-0.56,0.55v18.5
			c0,1.67-1.36,3.02-3.05,3.02s-3.05-1.35-3.05-3.02v-34.78c0-0.22-0.18-0.41-0.41-0.41s-0.41,0.18-0.41,0.41v12.09
			c0,1.23-1.01,2.23-2.25,2.23s-2.25-1-2.25-2.23v-12.95c0-4.58,3.75-8.29,8.37-8.29h7.2
			C832.161,36.867,835.911,40.577,835.911,45.157"/>
		<path id="desk_00000078748323599870161340000017931753147810909882_" fill="#B1B3B6" d="M830.351,29.597
			c0,3.51-2.87,6.35-6.41,6.35s-6.41-2.84-6.41-6.35s2.87-6.35,6.41-6.35C827.481,23.247,830.351,26.087,830.351,29.597"/>
		<path id="desk_00000054268027667369966340000015168934585228904076_" fill="#B1B3B6" d="M397.031,45.157v12.96
			c0,1.23-1.01,2.23-2.25,2.23s-2.25-1-2.25-2.23v-11.95c0-0.22-0.18-0.4-0.41-0.4s-0.41,0.18-0.41,0.4v34.63
			c0,1.67-1.36,3.02-3.05,3.02c-1.68,0-3.05-1.35-3.05-3.02v-18.5c0-0.3-0.25-0.55-0.56-0.55s-0.56,0.25-0.56,0.55v18.5
			c0,1.67-1.36,3.02-3.05,3.02c-1.68,0-3.05-1.35-3.05-3.02v-34.78c0-0.22-0.18-0.41-0.41-0.41s-0.41,0.18-0.41,0.41v12.09
			c0,1.23-1.01,2.23-2.25,2.23s-2.25-1-2.25-2.23v-12.95c0-4.58,3.75-8.29,8.37-8.29h7.2
			C393.281,36.867,397.031,40.577,397.031,45.157"/>
		<path id="desk_00000109734364856139563050000009661553339828516488_" fill="#B1B3B6" d="M391.471,29.597
			c0,3.51-2.87,6.35-6.41,6.35s-6.41-2.84-6.41-6.35s2.87-6.35,6.41-6.35S391.471,26.087,391.471,29.597"/>
		<path id="desk_00000140735071296112071730000010230390621463743643_" fill="#B1B3B6" d="M777.401,45.157v12.96
			c0,1.23-1.01,2.23-2.25,2.23s-2.25-1-2.25-2.23v-11.95c0-0.22-0.18-0.4-0.41-0.4s-0.41,0.18-0.41,0.4v34.63
			c0,1.67-1.36,3.02-3.05,3.02c-1.68,0-3.05-1.35-3.05-3.02v-18.5c0-0.3-0.25-0.55-0.56-0.55s-0.56,0.25-0.56,0.55v18.5
			c0,1.67-1.36,3.02-3.05,3.02s-3.05-1.35-3.05-3.02v-34.78c0-0.22-0.18-0.41-0.41-0.41s-0.41,0.18-0.41,0.41v12.09
			c0,1.23-1.01,2.23-2.25,2.23s-2.25-1-2.25-2.23v-12.95c0-4.58,3.75-8.29,8.37-8.29h7.2
			C773.651,36.867,777.401,40.577,777.401,45.157"/>
		<path id="desk_00000139253801881582750510000000413216426014828428_" fill="#B1B3B6" d="M771.831,29.597
			c0,3.51-2.87,6.35-6.41,6.35s-6.41-2.84-6.41-6.35s2.87-6.35,6.41-6.35S771.831,26.087,771.831,29.597"/>
		<path id="desk_00000055666807052097056150000008515812591230005397_" fill="#B1B3B6" d="M865.171,45.157v12.96
			c0,1.23-1.01,2.23-2.25,2.23s-2.25-1-2.25-2.23v-11.95c0-0.22-0.18-0.4-0.41-0.4s-0.41,0.18-0.41,0.4v34.63
			c0,1.67-1.36,3.02-3.05,3.02c-1.68,0-3.05-1.35-3.05-3.02v-18.5c0-0.3-0.25-0.55-0.56-0.55s-0.56,0.25-0.56,0.55v18.5
			c0,1.67-1.36,3.02-3.05,3.02s-3.05-1.35-3.05-3.02v-34.78c0-0.22-0.18-0.41-0.41-0.41s-0.41,0.18-0.41,0.41v12.09
			c0,1.23-1.01,2.23-2.25,2.23s-2.25-1-2.25-2.23v-12.95c0-4.58,3.75-8.29,8.37-8.29h7.2
			C861.421,36.867,865.171,40.577,865.171,45.157"/>
		<path id="desk_00000047752546648676615510000017679910083471284384_" fill="#B1B3B6" d="M859.611,29.597
			c0,3.51-2.87,6.35-6.41,6.35s-6.41-2.84-6.41-6.35s2.87-6.35,6.41-6.35S859.611,26.087,859.611,29.597"/>
		<path id="desk_00000042707800491507927540000012625695776956513957_" fill="#B1B3B6" d="M895.501,45.157v12.96
			c0,1.23-1.01,2.23-2.25,2.23s-2.25-1-2.25-2.23v-11.95c0-0.22-0.18-0.4-0.41-0.4s-0.41,0.18-0.41,0.4v34.63
			c0,1.67-1.36,3.02-3.05,3.02c-1.68,0-3.05-1.35-3.05-3.02v-18.5c0-0.3-0.25-0.55-0.56-0.55s-0.56,0.25-0.56,0.55v18.5
			c0,1.67-1.36,3.02-3.05,3.02s-3.05-1.35-3.05-3.02v-34.78c0-0.22-0.18-0.41-0.41-0.41s-0.41,0.18-0.41,0.41v12.09
			c0,1.23-1.01,2.23-2.25,2.23s-2.25-1-2.25-2.23v-12.95c0-4.58,3.75-8.29,8.37-8.29h7.2
			C891.751,36.867,895.501,40.577,895.501,45.157"/>
		<path id="desk_00000109707800049190830270000016927067909164025241_" fill="#B1B3B6" d="M889.941,29.597
			c0,3.51-2.87,6.35-6.41,6.35s-6.41-2.84-6.41-6.35s2.87-6.35,6.41-6.35S889.941,26.087,889.941,29.597"/>
	</g>
</g>
<style>
#g-joel_illustration2-laptop-interactive-img rect, #g-joel_illustration2-laptop-interactive-img circle, #g-joel_illustration2-laptop-interactive-img path, #g-joel_illustration2-laptop-interactive-img line, #g-joel_illustration2-laptop-interactive-img polyline, #g-joel_illustration2-laptop-interactive-img polygon { vector-effect: non-scaling-stroke; }
</style>
</svg>

