<?xml version="1.0" encoding="utf-8"?>
<!-- Generator: Adobe Illustrator 26.4.1, SVG Export Plug-In . SVG Version: 6.00 Build 0)  -->
<svg version="1.2" baseProfile="tiny" id="g-joel_illustration2-mobile-interactive-img" xmlns="http://www.w3.org/2000/svg" xmlns:xlink="http://www.w3.org/1999/xlink"
	 x="0px" y="0px" viewBox="0 0 410.561 623.492" overflow="visible" xml:space="preserve">
<g>
	<g id="toy-gun_00000078752017189476448540000004424104652099560111_">
		<path fill="#F8ABA1" d="M39.207-578.442c0,3.51-2.87,6.35-6.41,6.35s-6.41-2.84-6.41-6.35s2.87-6.35,6.41-6.35
			S39.207-581.952,39.207-578.442"/>
		<path fill="#F8ABA1" d="M425.137-562.882v12.96c0,1.23-1.01,2.23-2.25,2.23s-2.25-1-2.25-2.23v-11.95c0-0.22-0.18-0.4-0.41-0.4
			s-0.41,0.18-0.41,0.4v34.63c0,1.67-1.36,3.02-3.05,3.02c-1.68,0-3.05-1.35-3.05-3.02v-18.5c0-0.3-0.25-0.55-0.56-0.55
			s-0.56,0.25-0.56,0.55v18.5c0,1.67-1.36,3.02-3.05,3.02c-1.68,0-3.05-1.35-3.05-3.02v-34.78c0-0.22-0.18-0.4-0.41-0.4
			s-0.41,0.18-0.41,0.4v12.1c0,1.23-1.01,2.23-2.25,2.23s-2.25-1-2.25-2.23v-12.96c0-4.58,3.75-8.29,8.37-8.29h7.2
			C421.387-571.172,425.137-567.462,425.137-562.882"/>
		<path fill="#F8ABA1" d="M419.577-578.442c0,3.51-2.87,6.35-6.41,6.35s-6.41-2.84-6.41-6.35s2.87-6.35,6.41-6.35
			S419.577-581.952,419.577-578.442"/>
		<path fill="#F8ABA1" d="M74.027-562.882v12.96c0,1.23-1.01,2.23-2.25,2.23c-1.24,0-2.25-1-2.25-2.23v-11.95
			c0-0.22-0.18-0.4-0.41-0.4c-0.23,0-0.41,0.18-0.41,0.4v34.63c0,1.67-1.37,3.02-3.05,3.02c-1.68,0-3.05-1.35-3.05-3.02v-18.5
			c0-0.3-0.25-0.55-0.56-0.55s-0.56,0.25-0.56,0.55v18.5c0,1.67-1.37,3.02-3.05,3.02s-3.05-1.35-3.05-3.02v-34.78
			c0-0.22-0.18-0.4-0.41-0.4s-0.41,0.18-0.41,0.4v12.1c0,1.23-1.01,2.23-2.25,2.23s-2.25-1-2.25-2.23v-12.96
			c0-4.58,3.75-8.29,8.37-8.29h7.2C70.287-571.172,74.027-567.462,74.027-562.882"/>
		<path fill="#F8ABA1" d="M68.467-578.442c0,3.51-2.87,6.35-6.41,6.35c-3.54,0-6.41-2.84-6.41-6.35s2.87-6.35,6.41-6.35
			C65.597-584.792,68.467-581.952,68.467-578.442"/>
		<path fill="#F8ABA1" d="M454.397-562.882v12.96c0,1.23-1.01,2.23-2.25,2.23s-2.25-1-2.25-2.23v-11.95c0-0.22-0.18-0.4-0.41-0.4
			s-0.41,0.18-0.41,0.4v34.63c0,1.67-1.36,3.02-3.05,3.02c-1.68,0-3.05-1.35-3.05-3.02v-18.5c0-0.3-0.25-0.55-0.56-0.55
			s-0.56,0.25-0.56,0.55v18.5c0,1.67-1.36,3.02-3.05,3.02c-1.68,0-3.05-1.35-3.05-3.02v-34.78c0-0.22-0.18-0.4-0.41-0.4
			s-0.41,0.18-0.41,0.4v12.1c0,1.23-1.01,2.23-2.25,2.23s-2.25-1-2.25-2.23v-12.96c0-4.58,3.75-8.29,8.37-8.29h7.2
			C450.647-571.172,454.397-567.462,454.397-562.882"/>
		<path fill="#F8ABA1" d="M448.837-578.442c0,3.51-2.87,6.35-6.41,6.35s-6.41-2.84-6.41-6.35s2.87-6.35,6.41-6.35
			C445.967-584.792,448.837-581.952,448.837-578.442"/>
		<path fill="#F8ABA1" d="M103.287-562.882v12.96c0,1.23-1.01,2.23-2.25,2.23s-2.25-1-2.25-2.23v-11.95c0-0.22-0.18-0.4-0.41-0.4
			s-0.41,0.18-0.41,0.4v34.63c0,1.67-1.37,3.02-3.05,3.02s-3.05-1.35-3.05-3.02v-18.5c0-0.3-0.25-0.55-0.56-0.55
			s-0.56,0.25-0.56,0.55v18.5c0,1.67-1.36,3.02-3.05,3.02c-1.68,0-3.05-1.35-3.05-3.02v-34.78c0-0.22-0.18-0.4-0.41-0.4
			s-0.41,0.18-0.41,0.4v12.1c0,1.23-1.01,2.23-2.25,2.23s-2.25-1-2.25-2.23v-12.96c0-4.58,3.75-8.29,8.37-8.29h7.2
			C99.537-571.172,103.287-567.462,103.287-562.882"/>
		<path fill="#F8ABA1" d="M97.727-578.442c0,3.51-2.87,6.35-6.41,6.35s-6.41-2.84-6.41-6.35s2.87-6.35,6.41-6.35
			S97.727-581.952,97.727-578.442"/>
		<path fill="#F8ABA1" d="M483.657-562.882v12.96c0,1.23-1.01,2.23-2.25,2.23s-2.25-1-2.25-2.23v-11.95c0-0.22-0.18-0.4-0.41-0.4
			s-0.41,0.18-0.41,0.4v34.63c0,1.67-1.36,3.02-3.05,3.02c-1.68,0-3.05-1.35-3.05-3.02v-18.5c0-0.3-0.25-0.55-0.56-0.55
			s-0.56,0.25-0.56,0.55v18.5c0,1.67-1.36,3.02-3.05,3.02c-1.68,0-3.05-1.35-3.05-3.02v-34.78c0-0.22-0.18-0.4-0.41-0.4
			s-0.41,0.18-0.41,0.4v12.1c0,1.23-1.01,2.23-2.25,2.23s-2.25-1-2.25-2.23v-12.96c0-4.58,3.75-8.29,8.37-8.29h7.2
			C479.907-571.172,483.657-567.462,483.657-562.882"/>
		<path fill="#F8ABA1" d="M478.097-578.442c0,3.51-2.87,6.35-6.41,6.35s-6.41-2.84-6.41-6.35s2.87-6.35,6.41-6.35
			C475.217-584.792,478.097-581.952,478.097-578.442"/>
		<path fill="#F8ABA1" d="M132.547-562.882v12.96c0,1.23-1.01,2.23-2.25,2.23c-1.24,0-2.25-1-2.25-2.23v-11.95
			c0-0.22-0.18-0.4-0.41-0.4s-0.41,0.18-0.41,0.4v34.63c0,1.67-1.37,3.02-3.05,3.02s-3.05-1.35-3.05-3.02v-18.5
			c0-0.3-0.25-0.55-0.56-0.55s-0.56,0.25-0.56,0.55v18.5c0,1.67-1.36,3.02-3.05,3.02c-1.68,0-3.05-1.35-3.05-3.02v-34.78
			c0-0.22-0.18-0.4-0.41-0.4s-0.41,0.18-0.41,0.4v12.1c0,1.23-1.01,2.23-2.25,2.23s-2.25-1-2.25-2.23v-12.96
			c0-4.58,3.75-8.29,8.37-8.29h7.2C128.797-571.172,132.547-567.462,132.547-562.882"/>
		<path fill="#F8ABA1" d="M126.987-578.442c0,3.51-2.87,6.35-6.41,6.35s-6.41-2.84-6.41-6.35s2.87-6.35,6.41-6.35
			S126.987-581.952,126.987-578.442"/>
		<path fill="#F8ABA1" d="M512.917-562.882v12.96c0,1.23-1.01,2.23-2.25,2.23s-2.25-1-2.25-2.23v-11.95c0-0.22-0.18-0.4-0.41-0.4
			s-0.41,0.18-0.41,0.4v34.63c0,1.67-1.36,3.02-3.05,3.02c-1.68,0-3.05-1.35-3.05-3.02v-18.5c0-0.3-0.25-0.55-0.56-0.55
			s-0.56,0.25-0.56,0.55v18.5c0,1.67-1.36,3.02-3.05,3.02c-1.68,0-3.05-1.35-3.05-3.02v-34.78c0-0.22-0.18-0.4-0.41-0.4
			s-0.41,0.18-0.41,0.4v12.1c0,1.23-1.01,2.23-2.25,2.23s-2.25-1-2.25-2.23v-12.96c0-4.58,3.75-8.29,8.37-8.29h7.2
			C509.167-571.172,512.917-567.462,512.917-562.882"/>
		<path fill="#F8ABA1" d="M507.357-578.442c0,3.51-2.87,6.35-6.41,6.35s-6.41-2.84-6.41-6.35s2.87-6.35,6.41-6.35
			C504.477-584.792,507.357-581.952,507.357-578.442"/>
		<path fill="#F8ABA1" d="M161.807-562.882v12.96c0,1.23-1.01,2.23-2.25,2.23s-2.25-1-2.25-2.23v-11.95c0-0.22-0.18-0.4-0.41-0.4
			s-0.41,0.18-0.41,0.4v34.63c0,1.67-1.37,3.02-3.05,3.02c-1.68,0-3.05-1.35-3.05-3.02v-18.5c0-0.3-0.25-0.55-0.56-0.55
			s-0.56,0.25-0.56,0.55v18.5c0,1.67-1.36,3.02-3.05,3.02s-3.05-1.35-3.05-3.02v-34.78c0-0.22-0.18-0.4-0.41-0.4
			s-0.41,0.18-0.41,0.4v12.1c0,1.23-1.01,2.23-2.25,2.23c-1.24,0-2.25-1-2.25-2.23v-12.96c0-4.58,3.75-8.29,8.37-8.29h7.2
			C158.057-571.172,161.807-567.462,161.807-562.882"/>
		<path fill="#F8ABA1" d="M156.247-578.442c0,3.51-2.87,6.35-6.41,6.35s-6.41-2.84-6.41-6.35s2.87-6.35,6.41-6.35
			S156.247-581.952,156.247-578.442"/>
		<path fill="#F8ABA1" d="M542.177-562.882v12.96c0,1.23-1.01,2.23-2.25,2.23s-2.25-1-2.25-2.23v-11.95c0-0.22-0.18-0.4-0.41-0.4
			s-0.41,0.18-0.41,0.4v34.63c0,1.67-1.36,3.02-3.05,3.02c-1.68,0-3.05-1.35-3.05-3.02v-18.5c0-0.3-0.25-0.55-0.56-0.55
			s-0.56,0.25-0.56,0.55v18.5c0,1.67-1.36,3.02-3.05,3.02s-3.05-1.35-3.05-3.02v-34.78c0-0.22-0.18-0.4-0.41-0.4
			c-0.23,0-0.41,0.18-0.41,0.4v12.1c0,1.23-1.01,2.23-2.25,2.23s-2.25-1-2.25-2.23v-12.96c0-4.58,3.75-8.29,8.37-8.29h7.2
			C538.427-571.172,542.177-567.462,542.177-562.882"/>
		<path fill="#F8ABA1" d="M536.607-578.442c0,3.51-2.87,6.35-6.41,6.35s-6.41-2.84-6.41-6.35s2.87-6.35,6.41-6.35
			S536.607-581.952,536.607-578.442"/>
		<path fill="#F8ABA1" d="M191.067-562.882v12.96c0,1.23-1.01,2.23-2.25,2.23s-2.25-1-2.25-2.23v-11.95c0-0.22-0.18-0.4-0.41-0.4
			s-0.41,0.18-0.41,0.4v34.63c0,1.67-1.37,3.02-3.05,3.02c-1.68,0-3.05-1.35-3.05-3.02v-18.5c0-0.3-0.25-0.55-0.56-0.55
			s-0.56,0.25-0.56,0.55v18.5c0,1.67-1.37,3.02-3.05,3.02c-1.68,0-3.05-1.35-3.05-3.02v-34.78c0-0.22-0.18-0.4-0.41-0.4
			c-0.23,0-0.41,0.18-0.41,0.4v12.1c0,1.23-1.01,2.23-2.25,2.23s-2.25-1-2.25-2.23v-12.96c0-4.58,3.75-8.29,8.37-8.29h7.2
			C187.317-571.172,191.067-567.462,191.067-562.882"/>
		<path fill="#F8ABA1" d="M185.507-578.442c0,3.51-2.87,6.35-6.41,6.35c-3.54,0-6.41-2.84-6.41-6.35s2.87-6.35,6.41-6.35
			S185.507-581.952,185.507-578.442"/>
		<path fill="#F8ABA1" d="M571.427-562.882v12.96c0,1.23-1.01,2.23-2.25,2.23s-2.25-1-2.25-2.23v-11.95c0-0.22-0.18-0.4-0.41-0.4
			s-0.41,0.18-0.41,0.4v34.63c0,1.67-1.36,3.02-3.05,3.02c-1.68,0-3.05-1.35-3.05-3.02v-18.5c0-0.3-0.25-0.55-0.56-0.55
			s-0.56,0.25-0.56,0.55v18.5c0,1.67-1.36,3.02-3.05,3.02s-3.05-1.35-3.05-3.02v-34.78c0-0.22-0.18-0.4-0.41-0.4
			s-0.41,0.18-0.41,0.4v12.1c0,1.23-1.01,2.23-2.25,2.23s-2.25-1-2.25-2.23v-12.96c0-4.58,3.75-8.29,8.37-8.29h7.2
			C567.677-571.172,571.427-567.462,571.427-562.882"/>
		<path fill="#F8ABA1" d="M565.867-578.442c0,3.51-2.87,6.35-6.41,6.35s-6.41-2.84-6.41-6.35s2.87-6.35,6.41-6.35
			S565.867-581.952,565.867-578.442"/>
		<path fill="#F8ABA1" d="M220.327-562.882v12.96c0,1.23-1.01,2.23-2.25,2.23s-2.25-1-2.25-2.23v-11.95c0-0.22-0.18-0.4-0.41-0.4
			s-0.41,0.18-0.41,0.4v34.63c0,1.67-1.37,3.02-3.05,3.02c-1.68,0-3.05-1.35-3.05-3.02v-18.5c0-0.3-0.25-0.55-0.56-0.55
			s-0.56,0.25-0.56,0.55v18.5c0,1.67-1.37,3.02-3.05,3.02c-1.68,0-3.05-1.35-3.05-3.02v-34.78c0-0.22-0.18-0.4-0.41-0.4
			c-0.23,0-0.41,0.18-0.41,0.4v12.1c0,1.23-1.01,2.23-2.25,2.23s-2.25-1-2.25-2.23v-12.96c0-4.58,3.75-8.29,8.37-8.29h7.2
			C216.577-571.172,220.327-567.462,220.327-562.882"/>
		<path fill="#F8ABA1" d="M214.767-578.442c0,3.51-2.87,6.35-6.41,6.35c-3.54,0-6.41-2.84-6.41-6.35s2.87-6.35,6.41-6.35
			C211.897-584.792,214.767-581.952,214.767-578.442"/>
		<path fill="#F8ABA1" d="M600.687-562.882v12.96c0,1.23-1.01,2.23-2.25,2.23s-2.25-1-2.25-2.23v-11.95c0-0.22-0.18-0.4-0.41-0.4
			s-0.41,0.18-0.41,0.4v34.63c0,1.67-1.36,3.02-3.05,3.02c-1.68,0-3.05-1.35-3.05-3.02v-18.5c0-0.3-0.25-0.55-0.56-0.55
			s-0.56,0.25-0.56,0.55v18.5c0,1.67-1.36,3.02-3.05,3.02s-3.05-1.35-3.05-3.02v-34.78c0-0.22-0.18-0.4-0.41-0.4
			s-0.41,0.18-0.41,0.4v12.1c0,1.23-1.01,2.23-2.25,2.23s-2.25-1-2.25-2.23v-12.96c0-4.58,3.75-8.29,8.37-8.29h7.2
			C596.937-571.172,600.687-567.462,600.687-562.882"/>
		<path fill="#F8ABA1" d="M595.127-578.442c0,3.51-2.87,6.35-6.41,6.35s-6.41-2.84-6.41-6.35s2.87-6.35,6.41-6.35
			S595.127-581.952,595.127-578.442"/>
		<path fill="#F8ABA1" d="M249.587-562.882v12.96c0,1.23-1.01,2.23-2.25,2.23s-2.25-1-2.25-2.23v-11.95c0-0.22-0.18-0.4-0.41-0.4
			s-0.41,0.18-0.41,0.4v34.63c0,1.67-1.37,3.02-3.05,3.02c-1.68,0-3.05-1.35-3.05-3.02v-18.5c0-0.3-0.25-0.55-0.56-0.55
			s-0.56,0.25-0.56,0.55v18.5c0,1.67-1.37,3.02-3.05,3.02c-1.68,0-3.05-1.35-3.05-3.02v-34.78c0-0.22-0.18-0.4-0.41-0.4
			c-0.23,0-0.41,0.18-0.41,0.4v12.1c0,1.23-1.01,2.23-2.25,2.23s-2.25-1-2.25-2.23v-12.96c0-4.58,3.75-8.29,8.37-8.29h7.2
			C245.837-571.172,249.587-567.462,249.587-562.882"/>
		<path fill="#F8ABA1" d="M244.027-578.442c0,3.51-2.87,6.35-6.41,6.35c-3.54,0-6.41-2.84-6.41-6.35s2.87-6.35,6.41-6.35
			C241.147-584.792,244.027-581.952,244.027-578.442"/>
		<path fill="#F8ABA1" d="M629.947-562.882v12.96c0,1.23-1.01,2.23-2.25,2.23s-2.25-1-2.25-2.23v-11.95c0-0.22-0.18-0.4-0.41-0.4
			s-0.41,0.18-0.41,0.4v34.63c0,1.67-1.36,3.02-3.05,3.02c-1.68,0-3.05-1.35-3.05-3.02v-18.5c0-0.3-0.25-0.55-0.56-0.55
			s-0.56,0.25-0.56,0.55v18.5c0,1.67-1.36,3.02-3.05,3.02s-3.05-1.35-3.05-3.02v-34.78c0-0.22-0.18-0.4-0.41-0.4
			s-0.41,0.18-0.41,0.4v12.1c0,1.23-1.01,2.23-2.25,2.23s-2.25-1-2.25-2.23v-12.96c0-4.58,3.75-8.29,8.37-8.29h7.2
			C626.197-571.172,629.947-567.462,629.947-562.882"/>
		<path fill="#F8ABA1" d="M624.387-578.442c0,3.51-2.87,6.35-6.41,6.35s-6.41-2.84-6.41-6.35s2.87-6.35,6.41-6.35
			C621.517-584.792,624.387-581.952,624.387-578.442"/>
		<path fill="#F8ABA1" d="M278.847-562.882v12.96c0,1.23-1.01,2.23-2.25,2.23s-2.25-1-2.25-2.23v-11.95c0-0.22-0.18-0.4-0.41-0.4
			s-0.41,0.18-0.41,0.4v34.63c0,1.67-1.37,3.02-3.05,3.02s-3.05-1.35-3.05-3.02v-18.5c0-0.3-0.25-0.55-0.56-0.55
			s-0.56,0.25-0.56,0.55v18.5c0,1.67-1.37,3.02-3.05,3.02s-3.05-1.35-3.05-3.02v-34.78c0-0.22-0.18-0.4-0.41-0.4
			c-0.23,0-0.41,0.18-0.41,0.4v12.1c0,1.23-1.01,2.23-2.25,2.23c-1.24,0-2.25-1-2.25-2.23v-12.96c0-4.58,3.75-8.29,8.37-8.29h7.2
			C275.097-571.172,278.847-567.462,278.847-562.882"/>
		<path fill="#F8ABA1" d="M273.277-578.442c0,3.51-2.87,6.35-6.41,6.35s-6.41-2.84-6.41-6.35s2.87-6.35,6.41-6.35
			C270.407-584.792,273.277-581.952,273.277-578.442"/>
		<path fill="#F8ABA1" d="M659.207-562.882v12.96c0,1.23-1.01,2.23-2.25,2.23s-2.25-1-2.25-2.23v-11.95c0-0.22-0.18-0.4-0.41-0.4
			s-0.41,0.18-0.41,0.4v34.63c0,1.67-1.36,3.02-3.05,3.02c-1.68,0-3.05-1.35-3.05-3.02v-18.5c0-0.3-0.25-0.55-0.56-0.55
			s-0.56,0.25-0.56,0.55v18.5c0,1.67-1.36,3.02-3.05,3.02s-3.05-1.35-3.05-3.02v-34.78c0-0.22-0.18-0.4-0.41-0.4
			s-0.41,0.18-0.41,0.4v12.1c0,1.23-1.01,2.23-2.25,2.23s-2.25-1-2.25-2.23v-12.96c0-4.58,3.75-8.29,8.37-8.29h7.2
			C655.457-571.172,659.207-567.462,659.207-562.882"/>
		<path fill="#F8ABA1" d="M653.647-578.442c0,3.51-2.87,6.35-6.41,6.35s-6.41-2.84-6.41-6.35s2.87-6.35,6.41-6.35
			S653.647-581.952,653.647-578.442"/>
		<path fill="#F8ABA1" d="M308.097-562.882v12.96c0,1.23-1.01,2.23-2.25,2.23s-2.25-1-2.25-2.23v-11.95c0-0.22-0.18-0.4-0.41-0.4
			s-0.41,0.18-0.41,0.4v34.63c0,1.67-1.36,3.02-3.05,3.02c-1.68,0-3.05-1.35-3.05-3.02v-18.5c0-0.3-0.25-0.55-0.56-0.55
			s-0.56,0.25-0.56,0.55v18.5c0,1.67-1.36,3.02-3.05,3.02c-1.68,0-3.05-1.35-3.05-3.02v-34.78c0-0.22-0.18-0.4-0.41-0.4
			s-0.41,0.18-0.41,0.4v12.1c0,1.23-1.01,2.23-2.25,2.23s-2.25-1-2.25-2.23v-12.96c0-4.58,3.75-8.29,8.37-8.29h7.2
			C304.357-571.172,308.097-567.462,308.097-562.882"/>
		<path fill="#F8ABA1" d="M302.537-578.442c0,3.51-2.87,6.35-6.41,6.35s-6.41-2.84-6.41-6.35s2.87-6.35,6.41-6.35
			S302.537-581.952,302.537-578.442"/>
		<path fill="#F8ABA1" d="M688.467-562.882v12.96c0,1.23-1.01,2.23-2.25,2.23s-2.25-1-2.25-2.23v-11.95c0-0.22-0.18-0.4-0.41-0.4
			s-0.41,0.18-0.41,0.4v34.63c0,1.67-1.36,3.02-3.05,3.02c-1.68,0-3.05-1.35-3.05-3.02v-18.5c0-0.3-0.25-0.55-0.56-0.55
			s-0.56,0.25-0.56,0.55v18.5c0,1.67-1.36,3.02-3.05,3.02s-3.05-1.35-3.05-3.02v-34.78c0-0.22-0.18-0.4-0.41-0.4
			s-0.41,0.18-0.41,0.4v12.1c0,1.23-1.01,2.23-2.25,2.23s-2.25-1-2.25-2.23v-12.96c0-4.58,3.75-8.29,8.37-8.29h7.2
			C684.717-571.172,688.467-567.462,688.467-562.882"/>
		<path fill="#F8ABA1" d="M682.907-578.442c0,3.51-2.87,6.35-6.41,6.35s-6.41-2.84-6.41-6.35s2.87-6.35,6.41-6.35
			S682.907-581.952,682.907-578.442"/>
		<path fill="#F8ABA1" d="M337.357-562.882v12.96c0,1.23-1.01,2.23-2.25,2.23s-2.25-1-2.25-2.23v-11.95c0-0.22-0.18-0.4-0.41-0.4
			s-0.41,0.18-0.41,0.4v34.63c0,1.67-1.36,3.02-3.05,3.02c-1.68,0-3.05-1.35-3.05-3.02v-18.5c0-0.3-0.25-0.55-0.56-0.55
			s-0.56,0.25-0.56,0.55v18.5c0,1.67-1.36,3.02-3.05,3.02c-1.68,0-3.05-1.35-3.05-3.02v-34.78c0-0.22-0.18-0.4-0.41-0.4
			s-0.41,0.18-0.41,0.4v12.1c0,1.23-1.01,2.23-2.25,2.23s-2.25-1-2.25-2.23v-12.96c0-4.58,3.75-8.29,8.37-8.29h7.2
			C333.607-571.172,337.357-567.462,337.357-562.882"/>
		<path fill="#F8ABA1" d="M331.797-578.442c0,3.51-2.87,6.35-6.41,6.35s-6.41-2.84-6.41-6.35s2.87-6.35,6.41-6.35
			S331.797-581.952,331.797-578.442"/>
		<path fill="#F8ABA1" d="M717.727-562.882v12.96c0,1.23-1.01,2.23-2.25,2.23s-2.25-1-2.25-2.23v-11.95c0-0.22-0.18-0.4-0.41-0.4
			s-0.41,0.18-0.41,0.4v34.63c0,1.67-1.36,3.02-3.05,3.02c-1.68,0-3.05-1.35-3.05-3.02v-18.5c0-0.3-0.25-0.55-0.56-0.55
			s-0.56,0.25-0.56,0.55v18.5c0,1.67-1.36,3.02-3.05,3.02s-3.05-1.35-3.05-3.02v-34.78c0-0.22-0.18-0.4-0.41-0.4
			s-0.41,0.18-0.41,0.4v12.1c0,1.23-1.01,2.23-2.25,2.23s-2.25-1-2.25-2.23v-12.96c0-4.58,3.75-8.29,8.37-8.29h7.2
			C713.977-571.172,717.727-567.462,717.727-562.882"/>
		<path fill="#F8ABA1" d="M712.167-578.442c0,3.51-2.87,6.35-6.41,6.35s-6.41-2.84-6.41-6.35s2.87-6.35,6.41-6.35
			C709.287-584.792,712.167-581.952,712.167-578.442"/>
		<path fill="#F8ABA1" d="M805.497-562.882v12.96c0,1.23-1.01,2.23-2.25,2.23s-2.25-1-2.25-2.23v-11.95c0-0.22-0.18-0.4-0.41-0.4
			s-0.41,0.18-0.41,0.4v34.63c0,1.67-1.36,3.02-3.05,3.02c-1.68,0-3.05-1.35-3.05-3.02v-18.5c0-0.3-0.25-0.55-0.56-0.55
			s-0.56,0.25-0.56,0.55v18.5c0,1.67-1.36,3.02-3.05,3.02s-3.05-1.35-3.05-3.02v-34.78c0-0.22-0.18-0.4-0.41-0.4
			s-0.41,0.18-0.41,0.4v12.1c0,1.23-1.01,2.23-2.25,2.23s-2.25-1-2.25-2.23v-12.96c0-4.58,3.75-8.29,8.37-8.29h7.2
			C801.757-571.172,805.497-567.462,805.497-562.882"/>
		<path fill="#F8ABA1" d="M799.937-578.442c0,3.51-2.87,6.35-6.41,6.35s-6.41-2.84-6.41-6.35s2.87-6.35,6.41-6.35
			S799.937-581.952,799.937-578.442"/>
		<path fill="#F8ABA1" d="M366.617-562.882v12.96c0,1.23-1.01,2.23-2.25,2.23s-2.25-1-2.25-2.23v-11.95c0-0.22-0.18-0.4-0.41-0.4
			s-0.41,0.18-0.41,0.4v34.63c0,1.67-1.36,3.02-3.05,3.02c-1.68,0-3.05-1.35-3.05-3.02v-18.5c0-0.3-0.25-0.55-0.56-0.55
			s-0.56,0.25-0.56,0.55v18.5c0,1.67-1.36,3.02-3.05,3.02c-1.68,0-3.05-1.35-3.05-3.02v-34.78c0-0.22-0.18-0.4-0.41-0.4
			s-0.41,0.18-0.41,0.4v12.1c0,1.23-1.01,2.23-2.25,2.23s-2.25-1-2.25-2.23v-12.96c0-4.58,3.75-8.29,8.37-8.29h7.2
			C362.867-571.172,366.617-567.462,366.617-562.882"/>
		<path fill="#F8ABA1" d="M361.057-578.442c0,3.51-2.87,6.35-6.41,6.35s-6.41-2.84-6.41-6.35s2.87-6.35,6.41-6.35
			C358.187-584.792,361.057-581.952,361.057-578.442"/>
		<path fill="#F8ABA1" d="M746.987-562.882v12.96c0,1.23-1.01,2.23-2.25,2.23s-2.25-1-2.25-2.23v-11.95c0-0.22-0.18-0.4-0.41-0.4
			s-0.41,0.18-0.41,0.4v34.63c0,1.67-1.36,3.02-3.05,3.02c-1.68,0-3.05-1.35-3.05-3.02v-18.5c0-0.3-0.25-0.55-0.56-0.55
			s-0.56,0.25-0.56,0.55v18.5c0,1.67-1.36,3.02-3.05,3.02s-3.05-1.35-3.05-3.02v-34.78c0-0.22-0.18-0.4-0.41-0.4
			s-0.41,0.18-0.41,0.4v12.1c0,1.23-1.01,2.23-2.25,2.23s-2.25-1-2.25-2.23v-12.96c0-4.58,3.75-8.29,8.37-8.29h7.2
			C743.237-571.172,746.987-567.462,746.987-562.882"/>
		<path fill="#F8ABA1" d="M741.427-578.442c0,3.51-2.87,6.35-6.41,6.35s-6.41-2.84-6.41-6.35s2.87-6.35,6.41-6.35
			C738.547-584.792,741.427-581.952,741.427-578.442"/>
		<path fill="#F8ABA1" d="M834.757-562.882v12.96c0,1.23-1.01,2.23-2.25,2.23s-2.25-1-2.25-2.23v-11.95c0-0.22-0.18-0.4-0.41-0.4
			s-0.41,0.18-0.41,0.4v34.63c0,1.67-1.36,3.02-3.05,3.02c-1.68,0-3.05-1.35-3.05-3.02v-18.5c0-0.3-0.25-0.55-0.56-0.55
			s-0.56,0.25-0.56,0.55v18.5c0,1.67-1.36,3.02-3.05,3.02s-3.05-1.35-3.05-3.02v-34.78c0-0.22-0.18-0.4-0.41-0.4
			s-0.41,0.18-0.41,0.4v12.1c0,1.23-1.01,2.23-2.25,2.23s-2.25-1-2.25-2.23v-12.96c0-4.58,3.75-8.29,8.37-8.29h7.2
			C831.007-571.172,834.757-567.462,834.757-562.882"/>
		<path fill="#F8ABA1" d="M829.197-578.442c0,3.51-2.87,6.35-6.41,6.35s-6.41-2.84-6.41-6.35s2.87-6.35,6.41-6.35
			C826.327-584.792,829.197-581.952,829.197-578.442"/>
		<path fill="#F8ABA1" d="M395.877-562.882v12.96c0,1.23-1.01,2.23-2.25,2.23s-2.25-1-2.25-2.23v-11.95c0-0.22-0.18-0.4-0.41-0.4
			s-0.41,0.18-0.41,0.4v34.63c0,1.67-1.36,3.02-3.05,3.02c-1.68,0-3.05-1.35-3.05-3.02v-18.5c0-0.3-0.25-0.55-0.56-0.55
			s-0.56,0.25-0.56,0.55v18.5c0,1.67-1.36,3.02-3.05,3.02c-1.68,0-3.05-1.35-3.05-3.02v-34.78c0-0.22-0.18-0.4-0.41-0.4
			s-0.41,0.18-0.41,0.4v12.1c0,1.23-1.01,2.23-2.25,2.23s-2.25-1-2.25-2.23v-12.96c0-4.58,3.75-8.29,8.37-8.29h7.2
			C392.127-571.172,395.877-567.462,395.877-562.882"/>
		<path fill="#F8ABA1" d="M390.317-578.442c0,3.51-2.87,6.35-6.41,6.35s-6.41-2.84-6.41-6.35s2.87-6.35,6.41-6.35
			S390.317-581.952,390.317-578.442"/>
		<path fill="#F8ABA1" d="M776.247-562.882v12.96c0,1.23-1.01,2.23-2.25,2.23s-2.25-1-2.25-2.23v-11.95c0-0.22-0.18-0.4-0.41-0.4
			s-0.41,0.18-0.41,0.4v34.63c0,1.67-1.36,3.02-3.05,3.02c-1.68,0-3.05-1.35-3.05-3.02v-18.5c0-0.3-0.25-0.55-0.56-0.55
			s-0.56,0.25-0.56,0.55v18.5c0,1.67-1.36,3.02-3.05,3.02s-3.05-1.35-3.05-3.02v-34.78c0-0.22-0.18-0.4-0.41-0.4
			s-0.41,0.18-0.41,0.4v12.1c0,1.23-1.01,2.23-2.25,2.23s-2.25-1-2.25-2.23v-12.96c0-4.58,3.75-8.29,8.37-8.29h7.2
			C772.497-571.172,776.247-567.462,776.247-562.882"/>
		<path fill="#F8ABA1" d="M770.677-578.442c0,3.51-2.87,6.35-6.41,6.35s-6.41-2.84-6.41-6.35s2.87-6.35,6.41-6.35
			S770.677-581.952,770.677-578.442"/>
		<path fill="#F8ABA1" d="M864.017-562.882v12.96c0,1.23-1.01,2.23-2.25,2.23s-2.25-1-2.25-2.23v-11.95c0-0.22-0.18-0.4-0.41-0.4
			s-0.41,0.18-0.41,0.4v34.63c0,1.67-1.36,3.02-3.05,3.02c-1.68,0-3.05-1.35-3.05-3.02v-18.5c0-0.3-0.25-0.55-0.56-0.55
			s-0.56,0.25-0.56,0.55v18.5c0,1.67-1.36,3.02-3.05,3.02s-3.05-1.35-3.05-3.02v-34.78c0-0.22-0.18-0.4-0.41-0.4
			s-0.41,0.18-0.41,0.4v12.1c0,1.23-1.01,2.23-2.25,2.23s-2.25-1-2.25-2.23v-12.96c0-4.58,3.75-8.29,8.37-8.29h7.2
			C860.267-571.172,864.017-567.462,864.017-562.882"/>
		<path fill="#F8ABA1" d="M858.457-578.442c0,3.51-2.87,6.35-6.41,6.35s-6.41-2.84-6.41-6.35s2.87-6.35,6.41-6.35
			S858.457-581.952,858.457-578.442"/>
		<path fill="#F8ABA1" d="M893.277-562.882v12.96c0,1.23-1.01,2.23-2.25,2.23s-2.25-1-2.25-2.23v-11.95c0-0.22-0.18-0.4-0.41-0.4
			s-0.41,0.18-0.41,0.4v34.63c0,1.67-1.36,3.02-3.05,3.02c-1.68,0-3.05-1.35-3.05-3.02v-18.5c0-0.3-0.25-0.55-0.56-0.55
			s-0.56,0.25-0.56,0.55v18.5c0,1.67-1.36,3.02-3.05,3.02s-3.05-1.35-3.05-3.02v-34.78c0-0.22-0.18-0.4-0.41-0.4
			s-0.41,0.18-0.41,0.4v12.1c0,1.23-1.01,2.23-2.25,2.23s-2.25-1-2.25-2.23v-12.96c0-4.58,3.75-8.29,8.37-8.29h7.2
			C889.527-571.172,893.277-567.462,893.277-562.882"/>
		<path fill="#F8ABA1" d="M887.717-578.442c0,3.51-2.87,6.35-6.41,6.35s-6.41-2.84-6.41-6.35s2.87-6.35,6.41-6.35
			S887.717-581.952,887.717-578.442"/>
		<path fill="#F8ABA1" d="M43.747,109.14v12.41c0,1.18-0.96,2.13-2.15,2.13c-1.19,0-2.15-0.95-2.15-2.13v-11.44
			c0-0.21-0.18-0.39-0.39-0.39c-0.22,0-0.39,0.17-0.39,0.39v33.15c0,1.6-1.31,2.89-2.92,2.89s-2.92-1.29-2.92-2.89v-17.71
			c0-0.29-0.24-0.53-0.53-0.53s-0.53,0.24-0.53,0.53v17.71c0,1.6-1.31,2.89-2.92,2.89s-2.92-1.29-2.92-2.89v-33.29
			c0-0.21-0.18-0.39-0.39-0.39c-0.21,0-0.39,0.17-0.39,0.39v11.58c0,1.18-0.97,2.13-2.15,2.13c-1.18,0-2.15-0.95-2.15-2.13v-12.41
			c0-4.38,3.59-7.93,8.01-7.93h6.9C40.167,101.21,43.747,104.76,43.747,109.14"/>
		<path fill="#F8ABA1" d="M38.427,94.25c0,3.36-2.75,6.08-6.14,6.08s-6.14-2.72-6.14-6.08s2.75-6.08,6.14-6.08
			S38.427,90.89,38.427,94.25"/>
		<path fill="#F8ABA1" d="M71.757,109.14v12.41c0,1.18-0.96,2.13-2.15,2.13c-1.19,0-2.15-0.95-2.15-2.13v-11.44
			c0-0.21-0.18-0.39-0.39-0.39s-0.39,0.17-0.39,0.39v33.15c0,1.6-1.31,2.89-2.92,2.89c-1.61,0-2.92-1.29-2.92-2.89v-17.71
			c0-0.29-0.24-0.53-0.53-0.53c-0.29,0-0.53,0.24-0.53,0.53v17.71c0,1.6-1.31,2.89-2.92,2.89s-2.93-1.3-2.93-2.89v-33.29
			c0-0.21-0.18-0.39-0.39-0.39s-0.39,0.17-0.39,0.39v11.58c0,1.18-0.97,2.13-2.15,2.13s-2.15-0.95-2.15-2.13v-12.41
			c0-4.38,3.59-7.93,8.01-7.93h6.9C68.167,101.21,71.757,104.76,71.757,109.14"/>
		<path fill="#F8ABA1" d="M66.437,94.25c0,3.36-2.75,6.08-6.14,6.08s-6.14-2.72-6.14-6.08s2.75-6.08,6.14-6.08
			S66.437,90.89,66.437,94.25"/>
		<path fill="#F8ABA1" d="M99.767,109.14v12.41c0,1.18-0.96,2.13-2.15,2.13s-2.15-0.95-2.15-2.13v-11.44c0-0.21-0.18-0.39-0.39-0.39
			c-0.22,0-0.39,0.17-0.39,0.39v33.15c0,1.6-1.31,2.89-2.92,2.89s-2.92-1.29-2.92-2.89v-17.71c0-0.29-0.24-0.53-0.53-0.53
			s-0.53,0.24-0.53,0.53v17.71c0,1.6-1.31,2.89-2.92,2.89s-2.94-1.3-2.94-2.89v-33.29c0-0.21-0.18-0.39-0.39-0.39
			c-0.22,0-0.39,0.17-0.39,0.39v11.58c0,1.18-0.96,2.13-2.15,2.13s-2.15-0.95-2.15-2.13v-12.41c0-4.38,3.59-7.93,8.01-7.93h6.9
			C96.177,101.21,99.767,104.76,99.767,109.14"/>
		<path fill="#F8ABA1" d="M94.437,94.25c0,3.36-2.75,6.08-6.14,6.08s-6.14-2.72-6.14-6.08s2.75-6.08,6.14-6.08
			C91.697,88.17,94.437,90.89,94.437,94.25"/>
		<path fill="#F8ABA1" d="M127.767,109.14v12.41c0,1.18-0.96,2.13-2.15,2.13s-2.15-0.95-2.15-2.13v-11.44
			c0-0.21-0.18-0.39-0.39-0.39c-0.22,0-0.39,0.17-0.39,0.39v33.15c0,1.6-1.31,2.89-2.92,2.89s-2.92-1.29-2.92-2.89v-17.71
			c0-0.29-0.24-0.53-0.53-0.53s-0.53,0.24-0.53,0.53v17.71c0,1.6-1.31,2.89-2.92,2.89s-2.92-1.29-2.92-2.89v-33.29
			c0-0.21-0.18-0.39-0.39-0.39c-0.22,0-0.39,0.17-0.39,0.39v11.58c0,1.18-0.96,2.13-2.15,2.13s-2.15-0.95-2.15-2.13v-12.41
			c0-4.38,3.59-7.93,8.01-7.93h6.9C124.187,101.21,127.767,104.76,127.767,109.14"/>
		<path fill="#F8ABA1" d="M122.447,94.25c0,3.36-2.75,6.08-6.14,6.08s-6.14-2.72-6.14-6.08s2.75-6.08,6.14-6.08
			S122.447,90.89,122.447,94.25"/>
		<path fill="#F8ABA1" d="M155.777,109.14v12.41c0,1.18-0.96,2.13-2.15,2.13c-1.19,0-2.15-0.95-2.15-2.13v-11.44
			c0-0.21-0.18-0.39-0.39-0.39s-0.39,0.17-0.39,0.39v33.15c0,1.6-1.31,2.89-2.92,2.89s-2.92-1.29-2.92-2.89v-17.71
			c0-0.29-0.24-0.53-0.53-0.53s-0.53,0.24-0.53,0.53v17.71c0,1.6-1.31,2.89-2.92,2.89s-2.92-1.29-2.92-2.89v-33.29
			c0-0.21-0.18-0.39-0.39-0.39c-0.22,0-0.39,0.17-0.39,0.39v11.58c0,1.18-0.96,2.13-2.15,2.13s-2.15-0.95-2.15-2.13v-12.41
			c0-4.38,3.59-7.93,8.01-7.93h6.9C152.187,101.21,155.777,104.76,155.777,109.14"/>
		<path fill="#F8ABA1" d="M150.457,94.25c0,3.36-2.75,6.08-6.14,6.08s-6.14-2.72-6.14-6.08s2.75-6.08,6.14-6.08
			S150.457,90.89,150.457,94.25"/>
		<path fill="#F8ABA1" d="M183.787,109.14v12.41c0,1.18-0.96,2.13-2.15,2.13c-1.19,0-2.15-0.95-2.15-2.13v-11.44
			c0-0.21-0.18-0.39-0.39-0.39s-0.39,0.17-0.39,0.39v33.15c0,1.6-1.31,2.89-2.92,2.89s-2.92-1.29-2.92-2.89v-17.71
			c0-0.29-0.24-0.53-0.53-0.53s-0.53,0.24-0.53,0.53v17.71c0,1.6-1.31,2.89-2.92,2.89s-2.92-1.29-2.92-2.89v-33.29
			c0-0.21-0.18-0.39-0.39-0.39c-0.22,0-0.39,0.17-0.39,0.39v11.58c0,1.18-0.96,2.13-2.15,2.13c-1.19,0-2.15-0.95-2.15-2.13v-12.41
			c0-4.38,3.59-7.93,8.01-7.93h6.9C180.197,101.21,183.787,104.76,183.787,109.14"/>
		<path fill="#F8ABA1" d="M178.457,94.25c0,3.36-2.75,6.08-6.14,6.08s-6.14-2.72-6.14-6.08s2.75-6.08,6.14-6.08
			S178.457,90.89,178.457,94.25"/>
		<path fill="#F8ABA1" d="M211.787,109.14v12.41c0,1.18-0.96,2.13-2.15,2.13c-1.19,0-2.15-0.95-2.15-2.13v-11.44
			c0-0.21-0.18-0.39-0.39-0.39s-0.39,0.17-0.39,0.39v33.15c0,1.6-1.31,2.89-2.92,2.89s-2.92-1.29-2.92-2.89v-17.71
			c0-0.29-0.24-0.53-0.53-0.53s-0.53,0.24-0.53,0.53v17.71c0,1.6-1.31,2.89-2.92,2.89s-2.92-1.29-2.92-2.89v-33.29
			c0-0.21-0.18-0.39-0.39-0.39c-0.22,0-0.39,0.17-0.39,0.39v11.58c0,1.18-0.96,2.13-2.15,2.13c-1.19,0-2.15-0.95-2.15-2.13v-12.41
			c0-4.38,3.59-7.93,8.01-7.93h6.9C208.197,101.21,211.787,104.76,211.787,109.14"/>
		<path fill="#F8ABA1" d="M206.467,94.25c0,3.36-2.75,6.08-6.14,6.08s-6.14-2.72-6.14-6.08s2.75-6.08,6.14-6.08
			S206.467,90.89,206.467,94.25"/>
		<path fill="#F8ABA1" d="M239.797,109.14v12.41c0,1.18-0.96,2.13-2.15,2.13c-1.19,0-2.15-0.95-2.15-2.13v-11.44
			c0-0.21-0.18-0.39-0.39-0.39s-0.39,0.17-0.39,0.39v33.15c0,1.6-1.31,2.89-2.92,2.89s-2.92-1.29-2.92-2.89v-17.71
			c0-0.29-0.24-0.53-0.53-0.53s-0.53,0.24-0.53,0.53v17.71c0,1.6-1.31,2.89-2.92,2.89s-2.92-1.29-2.92-2.89v-33.29
			c0-0.21-0.18-0.39-0.39-0.39c-0.22,0-0.39,0.17-0.39,0.39v11.58c0,1.18-0.96,2.13-2.15,2.13c-1.19,0-2.15-0.95-2.15-2.13v-12.41
			c0-4.38,3.59-7.93,8.01-7.93h6.9C236.207,101.21,239.797,104.76,239.797,109.14"/>
		<path fill="#F8ABA1" d="M234.477,94.25c0,3.36-2.75,6.08-6.14,6.08s-6.14-2.72-6.14-6.08s2.75-6.08,6.14-6.08
			S234.477,90.89,234.477,94.25"/>
		<path fill="#F8ABA1" d="M267.807,109.14v12.41c0,1.18-0.96,2.13-2.15,2.13s-2.15-0.95-2.15-2.13v-11.44
			c0-0.21-0.18-0.39-0.39-0.39c-0.21,0-0.39,0.17-0.39,0.39v33.15c0,1.6-1.31,2.89-2.92,2.89c-1.61,0-2.92-1.29-2.92-2.89v-17.71
			c0-0.29-0.24-0.53-0.53-0.53c-0.29,0-0.53,0.24-0.53,0.53v17.71c0,1.6-1.31,2.89-2.92,2.89s-2.92-1.29-2.92-2.89v-33.29
			c0-0.21-0.18-0.39-0.39-0.39c-0.22,0-0.39,0.17-0.39,0.39v11.58c0,1.18-0.96,2.13-2.15,2.13c-1.19,0-2.15-0.95-2.15-2.13v-12.41
			c0-4.38,3.59-7.93,8.01-7.93h6.9C264.217,101.21,267.807,104.76,267.807,109.14"/>
		<path fill="#F8ABA1" d="M262.477,94.25c0,3.36-2.75,6.08-6.14,6.08c-3.39,0-6.14-2.72-6.14-6.08s2.75-6.08,6.14-6.08
			C259.727,88.17,262.477,90.89,262.477,94.25"/>
		<path fill="#F8ABA1" d="M295.807,109.14v12.41c0,1.18-0.96,2.13-2.15,2.13s-2.15-0.95-2.15-2.13v-11.44
			c0-0.21-0.18-0.39-0.39-0.39s-0.39,0.17-0.39,0.39v33.15c0,1.6-1.31,2.89-2.92,2.89s-2.92-1.29-2.92-2.89v-17.71
			c0-0.29-0.24-0.53-0.53-0.53c-0.3,0-0.53,0.24-0.53,0.53v17.71c0,1.6-1.31,2.89-2.92,2.89s-2.92-1.29-2.92-2.89v-33.29
			c0-0.21-0.17-0.39-0.39-0.39s-0.39,0.17-0.39,0.39v11.58c0,1.18-0.96,2.13-2.15,2.13s-2.15-0.95-2.15-2.13v-12.41
			c0-4.38,3.59-7.93,8.02-7.93h6.9C292.217,101.21,295.807,104.76,295.807,109.14"/>
		<path fill="#F8ABA1" d="M290.487,94.25c0,3.36-2.75,6.08-6.14,6.08s-6.14-2.72-6.14-6.08s2.75-6.08,6.14-6.08
			S290.487,90.89,290.487,94.25"/>
		<path fill="#F8ABA1" d="M323.817,109.14v12.41c0,1.18-0.96,2.13-2.15,2.13s-2.15-0.95-2.15-2.13v-11.44
			c0-0.21-0.18-0.39-0.39-0.39s-0.39,0.17-0.39,0.39v33.15c0,1.6-1.31,2.89-2.92,2.89s-2.92-1.29-2.92-2.89v-17.71
			c0-0.29-0.24-0.53-0.53-0.53c-0.3,0-0.53,0.24-0.53,0.53v17.71c0,1.6-1.31,2.89-2.92,2.89s-2.92-1.29-2.92-2.89v-33.29
			c0-0.21-0.17-0.39-0.39-0.39s-0.39,0.17-0.39,0.39v11.58c0,1.18-0.96,2.13-2.15,2.13s-2.15-0.95-2.15-2.13v-12.41
			c0-4.38,3.59-7.93,8.02-7.93h6.9C320.227,101.21,323.817,104.76,323.817,109.14"/>
		<path fill="#F8ABA1" d="M318.487,94.25c0,3.36-2.75,6.08-6.14,6.08s-6.14-2.72-6.14-6.08s2.75-6.08,6.14-6.08
			C315.747,88.17,318.487,90.89,318.487,94.25"/>
		<path fill="#F8ABA1" d="M351.817,109.14v12.41c0,1.18-0.96,2.13-2.15,2.13s-2.15-0.95-2.15-2.13v-11.44
			c0-0.21-0.18-0.39-0.39-0.39s-0.39,0.17-0.39,0.39v33.15c0,1.6-1.31,2.89-2.92,2.89s-2.92-1.29-2.92-2.89v-17.71
			c0-0.29-0.24-0.53-0.53-0.53c-0.3,0-0.53,0.24-0.53,0.53v17.71c0,1.6-1.31,2.89-2.92,2.89s-2.92-1.29-2.92-2.89v-33.29
			c0-0.21-0.18-0.39-0.39-0.39s-0.39,0.17-0.39,0.39v11.58c0,1.18-0.96,2.13-2.15,2.13s-2.15-0.95-2.15-2.13v-12.41
			c0-4.38,3.59-7.93,8.02-7.93h6.9C348.237,101.21,351.817,104.76,351.817,109.14"/>
		<path fill="#F8ABA1" d="M346.497,94.25c0,3.36-2.75,6.08-6.14,6.08s-6.14-2.72-6.14-6.08s2.75-6.08,6.14-6.08
			S346.497,90.89,346.497,94.25"/>
		<path fill="#F8ABA1" d="M379.827,109.14v12.41c0,1.18-0.96,2.13-2.15,2.13s-2.15-0.95-2.15-2.13v-11.44
			c0-0.21-0.18-0.39-0.39-0.39s-0.39,0.17-0.39,0.39v33.15c0,1.6-1.31,2.89-2.92,2.89s-2.92-1.29-2.92-2.89v-17.71
			c0-0.29-0.24-0.53-0.53-0.53c-0.3,0-0.53,0.24-0.53,0.53v17.71c0,1.6-1.31,2.89-2.92,2.89s-2.92-1.29-2.92-2.89v-33.29
			c0-0.21-0.18-0.39-0.39-0.39s-0.39,0.17-0.39,0.39v11.58c0,1.18-0.96,2.13-2.15,2.13s-2.15-0.95-2.15-2.13v-12.41
			c0-4.38,3.59-7.93,8.02-7.93h6.9C376.237,101.21,379.827,104.76,379.827,109.14"/>
		<path fill="#F8ABA1" d="M374.507,94.25c0,3.36-2.75,6.08-6.14,6.08s-6.14-2.72-6.14-6.08s2.75-6.08,6.14-6.08
			S374.507,90.89,374.507,94.25"/>
		<path fill="#F8ABA1" d="M44.777-562.882v12.96c0,1.23-1.01,2.23-2.25,2.23c-1.24,0-2.25-1-2.25-2.23v-11.95
			c0-0.22-0.18-0.4-0.41-0.4s-0.41,0.18-0.41,0.4v34.63c0,1.67-1.36,3.02-3.05,3.02c-1.68,0-3.05-1.35-3.05-3.02v-18.5
			c0-0.3-0.25-0.55-0.56-0.55c-0.31,0-0.56,0.25-0.56,0.55v18.5c0,1.67-1.36,3.02-3.05,3.02s-3.05-1.35-3.05-3.02v-34.78
			c0-0.22-0.18-0.4-0.41-0.4s-0.41,0.18-0.41,0.4v12.1c0,1.23-1.01,2.23-2.25,2.23s-2.25-1-2.25-2.23v-12.96
			c0-4.58,3.75-8.29,8.37-8.29h7.2C41.027-571.172,44.777-567.462,44.777-562.882"/>
	</g>
	<g id="armed_00000060013433892477232760000011201613481188997538_">
		<path id="mobile_00000085216620498901523360000001186907226091155339_" fill="#B1B3B6" d="M43.747,46.51v12.41
			c0,1.18-0.96,2.13-2.15,2.13c-1.19,0-2.15-0.95-2.15-2.13V47.48c0-0.21-0.18-0.39-0.39-0.39c-0.22,0-0.39,0.17-0.39,0.39v33.15
			c0,1.6-1.31,2.89-2.92,2.89s-2.92-1.29-2.92-2.89V62.92c0-0.29-0.24-0.53-0.53-0.53s-0.53,0.24-0.53,0.53v17.71
			c0,1.6-1.31,2.89-2.92,2.89s-2.92-1.29-2.92-2.89V47.34c0-0.21-0.18-0.39-0.39-0.39c-0.21,0-0.39,0.17-0.39,0.39v11.58
			c0,1.18-0.97,2.13-2.15,2.13c-1.18,0-2.17-0.95-2.17-2.13V46.51c0-4.38,3.59-7.93,8.01-7.93h6.9
			C40.167,38.58,43.747,42.13,43.747,46.51"/>
		<path id="mobile_00000160902854180255438750000003835657960521606531_" fill="#B1B3B6" d="M38.427,31.62
			c0,3.36-2.75,6.08-6.14,6.08s-6.14-2.72-6.14-6.08s2.75-6.08,6.14-6.08S38.427,28.26,38.427,31.62"/>
		<path id="mobile_00000130630032112459149120000006866633372912743570_" fill="#B1B3B6" d="M71.757,46.51v12.41
			c0,1.18-0.96,2.13-2.15,2.13c-1.19,0-2.15-0.95-2.15-2.13V47.48c0-0.21-0.18-0.39-0.39-0.39s-0.39,0.17-0.39,0.39v33.15
			c0,1.6-1.31,2.89-2.92,2.89c-1.61,0-2.92-1.29-2.92-2.89V62.92c0-0.29-0.24-0.53-0.53-0.53c-0.29,0-0.53,0.24-0.53,0.53v17.71
			c0,1.6-1.31,2.89-2.92,2.89s-2.93-1.29-2.93-2.89V47.34c0-0.21-0.18-0.39-0.39-0.39s-0.39,0.17-0.39,0.39v11.58
			c0,1.18-0.97,2.13-2.15,2.13s-2.15-0.95-2.15-2.13V46.51c0-4.38,3.59-7.93,8.01-7.93h6.9C68.167,38.58,71.757,42.13,71.757,46.51"
			/>
		<path id="mobile_00000039107406169651238600000006830020781402925758_" fill="#B1B3B6" d="M66.437,31.62
			c0,3.36-2.75,6.08-6.14,6.08s-6.14-2.72-6.14-6.08s2.75-6.08,6.14-6.08S66.437,28.26,66.437,31.62"/>
		<path id="mobile_00000042012911536415020060000014350106773005968513_" fill="#B1B3B6" d="M99.767,46.51v12.41
			c0,1.18-0.96,2.13-2.15,2.13s-2.15-0.95-2.15-2.13V47.48c0-0.21-0.18-0.39-0.39-0.39c-0.22,0-0.39,0.17-0.39,0.39v33.15
			c0,1.6-1.31,2.89-2.92,2.89s-2.92-1.29-2.92-2.89V62.92c0-0.29-0.24-0.53-0.53-0.53s-0.53,0.24-0.53,0.53v17.71
			c0,1.6-1.31,2.89-2.92,2.89s-2.94-1.29-2.94-2.89V47.34c0-0.21-0.18-0.39-0.39-0.39c-0.22,0-0.39,0.17-0.39,0.39v11.58
			c0,1.18-0.96,2.13-2.15,2.13s-2.15-0.95-2.15-2.13V46.51c0-4.38,3.59-7.93,8.01-7.93h6.9C96.177,38.58,99.767,42.13,99.767,46.51"
			/>
		<path id="mobile_00000136376621175447964040000001197981205903952038_" fill="#B1B3B6" d="M94.437,31.62
			c0,3.36-2.75,6.08-6.14,6.08s-6.14-2.72-6.14-6.08s2.75-6.08,6.14-6.08C91.697,25.54,94.437,28.26,94.437,31.62"/>
		<path id="mobile_00000137111256873770466670000010424149168166452913_" fill="#B1B3B6" d="M127.767,46.51v12.41
			c0,1.18-0.96,2.13-2.15,2.13s-2.15-0.95-2.15-2.13V47.48c0-0.21-0.18-0.39-0.39-0.39c-0.22,0-0.39,0.17-0.39,0.39v33.15
			c0,1.6-1.31,2.89-2.92,2.89s-2.92-1.29-2.92-2.89V62.92c0-0.29-0.24-0.53-0.53-0.53s-0.53,0.24-0.53,0.53v17.71
			c0,1.6-1.31,2.89-2.92,2.89s-2.92-1.29-2.92-2.89V47.34c0-0.21-0.18-0.39-0.39-0.39c-0.22,0-0.39,0.17-0.39,0.39v11.58
			c0,1.18-0.96,2.13-2.15,2.13s-2.15-0.95-2.15-2.13V46.51c0-4.38,3.59-7.93,8.01-7.93h6.9
			C124.187,38.58,127.767,42.13,127.767,46.51"/>
		<path id="mobile_00000051349101966311156770000005348007892207368582_" fill="#B1B3B6" d="M122.447,31.62
			c0,3.36-2.75,6.08-6.14,6.08s-6.14-2.72-6.14-6.08s2.75-6.08,6.14-6.08S122.447,28.26,122.447,31.62"/>
		<path id="mobile_00000134968571231095269380000009608382249833740211_" fill="#B1B3B6" d="M155.777,46.51v12.41
			c0,1.18-0.96,2.13-2.15,2.13c-1.19,0-2.15-0.95-2.15-2.13V47.48c0-0.21-0.18-0.39-0.39-0.39s-0.39,0.17-0.39,0.39v33.15
			c0,1.6-1.31,2.89-2.92,2.89s-2.92-1.29-2.92-2.89V62.92c0-0.29-0.24-0.53-0.53-0.53s-0.53,0.24-0.53,0.53v17.71
			c0,1.6-1.31,2.89-2.92,2.89s-2.92-1.29-2.92-2.89V47.34c0-0.21-0.18-0.39-0.39-0.39c-0.22,0-0.39,0.17-0.39,0.39v11.58
			c0,1.18-0.96,2.13-2.15,2.13s-2.15-0.95-2.15-2.13V46.51c0-4.38,3.59-7.93,8.01-7.93h6.9
			C152.187,38.58,155.777,42.13,155.777,46.51"/>
		<path id="mobile_00000168838269252181510040000008737180545467364285_" fill="#B1B3B6" d="M150.457,31.62
			c0,3.36-2.75,6.08-6.14,6.08s-6.14-2.72-6.14-6.08s2.75-6.08,6.14-6.08S150.457,28.26,150.457,31.62"/>
		<path id="mobile_00000101785062857268601380000010807253963663194796_" fill="#B1B3B6" d="M183.787,46.51v12.41
			c0,1.18-0.96,2.13-2.15,2.13c-1.19,0-2.15-0.95-2.15-2.13V47.48c0-0.21-0.18-0.39-0.39-0.39s-0.39,0.17-0.39,0.39v33.15
			c0,1.6-1.31,2.89-2.92,2.89s-2.92-1.29-2.92-2.89V62.92c0-0.29-0.24-0.53-0.53-0.53s-0.53,0.24-0.53,0.53v17.71
			c0,1.6-1.31,2.89-2.92,2.89s-2.92-1.29-2.92-2.89V47.34c0-0.21-0.18-0.39-0.39-0.39c-0.22,0-0.39,0.17-0.39,0.39v11.58
			c0,1.18-0.96,2.13-2.15,2.13c-1.19,0-2.15-0.95-2.15-2.13V46.51c0-4.38,3.59-7.93,8.01-7.93h6.9
			C180.197,38.58,183.787,42.13,183.787,46.51"/>
		<path id="mobile_00000079453775949208821020000004637134528097272764_" fill="#B1B3B6" d="M178.457,31.62
			c0,3.36-2.75,6.08-6.14,6.08s-6.14-2.72-6.14-6.08s2.75-6.08,6.14-6.08S178.457,28.26,178.457,31.62"/>
		<path id="mobile_00000178920470330112008170000003965922107461224631_" fill="#B1B3B6" d="M211.787,46.51v12.41
			c0,1.18-0.96,2.13-2.15,2.13c-1.19,0-2.15-0.95-2.15-2.13V47.48c0-0.21-0.18-0.39-0.39-0.39s-0.39,0.17-0.39,0.39v33.15
			c0,1.6-1.31,2.89-2.92,2.89s-2.92-1.29-2.92-2.89V62.92c0-0.29-0.24-0.53-0.53-0.53s-0.53,0.24-0.53,0.53v17.71
			c0,1.6-1.31,2.89-2.92,2.89s-2.92-1.29-2.92-2.89V47.34c0-0.21-0.18-0.39-0.39-0.39c-0.22,0-0.39,0.17-0.39,0.39v11.58
			c0,1.18-0.96,2.13-2.15,2.13c-1.19,0-2.15-0.95-2.15-2.13V46.51c0-4.38,3.59-7.93,8.01-7.93h6.9
			C208.197,38.58,211.787,42.13,211.787,46.51"/>
		<path id="mobile_00000100368922196622820360000001020328380004467895_" fill="#B1B3B6" d="M206.467,31.62
			c0,3.36-2.75,6.08-6.14,6.08s-6.14-2.72-6.14-6.08s2.75-6.08,6.14-6.08S206.467,28.26,206.467,31.62"/>
		<path id="mobile_00000065773420679366270890000007598082808766166948_" fill="#B1B3B6" d="M239.797,46.51v12.41
			c0,1.18-0.96,2.13-2.15,2.13c-1.19,0-2.15-0.95-2.15-2.13V47.48c0-0.21-0.18-0.39-0.39-0.39s-0.39,0.17-0.39,0.39v33.15
			c0,1.6-1.31,2.89-2.92,2.89s-2.92-1.29-2.92-2.89V62.92c0-0.29-0.24-0.53-0.53-0.53s-0.53,0.24-0.53,0.53v17.71
			c0,1.6-1.31,2.89-2.92,2.89s-2.92-1.29-2.92-2.89V47.34c0-0.21-0.18-0.39-0.39-0.39c-0.22,0-0.39,0.17-0.39,0.39v11.58
			c0,1.18-0.96,2.13-2.15,2.13c-1.19,0-2.15-0.95-2.15-2.13V46.51c0-4.38,3.59-7.93,8.01-7.93h6.9
			C236.207,38.58,239.797,42.13,239.797,46.51"/>
		<path id="mobile_00000017496877895527386810000001038522717915484859_" fill="#B1B3B6" d="M234.477,31.62
			c0,3.36-2.75,6.08-6.14,6.08s-6.14-2.72-6.14-6.08s2.75-6.08,6.14-6.08S234.477,28.26,234.477,31.62"/>
		<path id="mobile_00000162347071970824276660000001734903558494733469_" fill="#B1B3B6" d="M267.807,46.51v12.41
			c0,1.18-0.96,2.13-2.15,2.13s-2.15-0.95-2.15-2.13V47.48c0-0.21-0.18-0.39-0.39-0.39c-0.21,0-0.39,0.17-0.39,0.39v33.15
			c0,1.6-1.31,2.89-2.92,2.89c-1.61,0-2.92-1.29-2.92-2.89V62.92c0-0.29-0.24-0.53-0.53-0.53c-0.29,0-0.53,0.24-0.53,0.53v17.71
			c0,1.6-1.31,2.89-2.92,2.89s-2.92-1.29-2.92-2.89V47.34c0-0.21-0.18-0.39-0.39-0.39c-0.22,0-0.39,0.17-0.39,0.39v11.58
			c0,1.18-0.96,2.13-2.15,2.13c-1.19,0-2.15-0.95-2.15-2.13V46.51c0-4.38,3.59-7.93,8.01-7.93h6.9
			C264.217,38.58,267.807,42.13,267.807,46.51"/>
		<path id="mobile_00000018210430070391065390000003342186985894474626_" fill="#B1B3B6" d="M262.477,31.62
			c0,3.36-2.75,6.08-6.14,6.08c-3.39,0-6.14-2.72-6.14-6.08s2.75-6.08,6.14-6.08C259.727,25.54,262.477,28.26,262.477,31.62"/>
		<path id="mobile_00000138570367459331423550000017439724303522836902_" fill="#B1B3B6" d="M295.807,46.51v12.41
			c0,1.18-0.96,2.13-2.15,2.13s-2.15-0.95-2.15-2.13V47.48c0-0.21-0.18-0.39-0.39-0.39s-0.39,0.17-0.39,0.39v33.15
			c0,1.6-1.31,2.89-2.92,2.89s-2.92-1.29-2.92-2.89V62.92c0-0.29-0.24-0.53-0.53-0.53c-0.3,0-0.53,0.24-0.53,0.53v17.71
			c0,1.6-1.31,2.89-2.92,2.89s-2.92-1.29-2.92-2.89V47.34c0-0.21-0.17-0.39-0.39-0.39s-0.39,0.17-0.39,0.39v11.58
			c0,1.18-0.96,2.13-2.15,2.13s-2.15-0.95-2.15-2.13V46.51c0-4.38,3.59-7.93,8.02-7.93h6.9
			C292.217,38.58,295.807,42.13,295.807,46.51"/>
		<path id="mobile_00000005985432456209978220000011054408240044752540_" fill="#B1B3B6" d="M290.487,31.62
			c0,3.36-2.75,6.08-6.14,6.08s-6.14-2.72-6.14-6.08s2.75-6.08,6.14-6.08S290.487,28.26,290.487,31.62"/>
		<path id="mobile_00000061462369768849307680000005124171873183093418_" fill="#B1B3B6" d="M323.817,46.51v12.41
			c0,1.18-0.96,2.13-2.15,2.13s-2.15-0.95-2.15-2.13V47.48c0-0.21-0.18-0.39-0.39-0.39s-0.39,0.17-0.39,0.39v33.15
			c0,1.6-1.31,2.89-2.92,2.89s-2.92-1.29-2.92-2.89V62.92c0-0.29-0.24-0.53-0.53-0.53c-0.3,0-0.53,0.24-0.53,0.53v17.71
			c0,1.6-1.31,2.89-2.92,2.89s-2.92-1.29-2.92-2.89V47.34c0-0.21-0.17-0.39-0.39-0.39s-0.39,0.17-0.39,0.39v11.58
			c0,1.18-0.96,2.13-2.15,2.13s-2.15-0.95-2.15-2.13V46.51c0-4.38,3.59-7.93,8.02-7.93h6.9
			C320.227,38.58,323.817,42.13,323.817,46.51"/>
		<path id="mobile_00000182513720446139439920000012700998085396875444_" fill="#B1B3B6" d="M318.487,31.62
			c0,3.36-2.75,6.08-6.14,6.08s-6.14-2.72-6.14-6.08s2.75-6.08,6.14-6.08C315.747,25.54,318.487,28.26,318.487,31.62"/>
		<path id="mobile_00000145023249700953392660000012117349515858079149_" fill="#B1B3B6" d="M351.817,46.51v12.41
			c0,1.18-0.96,2.13-2.15,2.13s-2.15-0.95-2.15-2.13V47.48c0-0.21-0.18-0.39-0.39-0.39s-0.39,0.17-0.39,0.39v33.15
			c0,1.6-1.31,2.89-2.92,2.89s-2.92-1.29-2.92-2.89V62.92c0-0.29-0.24-0.53-0.53-0.53c-0.3,0-0.53,0.24-0.53,0.53v17.71
			c0,1.6-1.31,2.89-2.92,2.89s-2.92-1.29-2.92-2.89V47.34c0-0.21-0.18-0.39-0.39-0.39s-0.39,0.17-0.39,0.39v11.58
			c0,1.18-0.96,2.13-2.15,2.13s-2.15-0.95-2.15-2.13V46.51c0-4.38,3.59-7.93,8.02-7.93h6.9
			C348.237,38.58,351.817,42.13,351.817,46.51"/>
		<path id="mobile_00000065077013576426841480000017934734863811160749_" fill="#B1B3B6" d="M346.497,31.62
			c0,3.36-2.75,6.08-6.14,6.08s-6.14-2.72-6.14-6.08s2.75-6.08,6.14-6.08S346.497,28.26,346.497,31.62"/>
		<path id="mobile_00000085243575814415503960000017739233497742440621_" fill="#B1B3B6" d="M379.827,46.51v12.41
			c0,1.18-0.96,2.13-2.15,2.13s-2.15-0.95-2.15-2.13V47.48c0-0.21-0.18-0.39-0.39-0.39s-0.39,0.17-0.39,0.39v33.15
			c0,1.6-1.31,2.89-2.92,2.89s-2.92-1.29-2.92-2.89V62.92c0-0.29-0.24-0.53-0.53-0.53c-0.3,0-0.53,0.24-0.53,0.53v17.71
			c0,1.6-1.31,2.89-2.92,2.89s-2.92-1.29-2.92-2.89V47.34c0-0.21-0.18-0.39-0.39-0.39s-0.39,0.17-0.39,0.39v11.58
			c0,1.18-0.96,2.13-2.15,2.13s-2.15-0.95-2.15-2.13V46.51c0-4.38,3.59-7.93,8.02-7.93h6.9
			C376.237,38.58,379.827,42.13,379.827,46.51"/>
		<path id="mobile_00000079483067746003661420000000745315709578095015_" fill="#B1B3B6" d="M374.507,31.62
			c0,3.36-2.75,6.08-6.14,6.08s-6.14-2.72-6.14-6.08s2.75-6.08,6.14-6.08S374.507,28.26,374.507,31.62"/>
	</g>
</g>
<style>
#g-joel_illustration2-mobile-interactive-img rect, #g-joel_illustration2-mobile-interactive-img circle, #g-joel_illustration2-mobile-interactive-img path, #g-joel_illustration2-mobile-interactive-img line, #g-joel_illustration2-mobile-interactive-img polyline, #g-joel_illustration2-mobile-interactive-img polygon { vector-effect: non-scaling-stroke; }
</style>
</svg>

