<?xml version="1.0" encoding="utf-8"?>
<!-- Generator: Adobe Illustrator 26.4.1, SVG Export Plug-In . SVG Version: 6.00 Build 0)  -->
<svg version="1.2" baseProfile="tiny" id="g-newbar-mobile-barchart-img" xmlns="http://www.w3.org/2000/svg" xmlns:xlink="http://www.w3.org/1999/xlink"
	 x="0px" y="0px" viewBox="0 0 390 176.477" overflow="visible" xml:space="preserve">
<g>
	<rect x="72.907" y="16.448" fill="#181818" fill-opacity="0.05" width="304.727" height="27"/>
	<rect x="72.907" y="47.448" fill="#181818" fill-opacity="0.05" width="304.727" height="27"/>
	<rect x="72.907" y="78.448" fill="#181818" fill-opacity="0.05" width="304.727" height="27"/>
	<rect x="72.907" y="109.448" fill="#181818" fill-opacity="0.05" width="304.727" height="27"/>
	<rect x="72.907" y="109.448" fill="#EDD6A0" width="17.547" height="27"/>
	<rect x="72.907" y="140.448" fill="#181818" fill-opacity="0.05" width="304.727" height="27"/>
	<rect x="72.907" y="140.448" fill="#EDD6A0" width="6.062" height="27"/>
	<rect x="72.907" y="16.448" fill="#EDD6A0" width="27.453" height="27"/>
	<rect x="103.446" y="16.448" fill="#EDD6A0" width="27.208" height="27"/>
	<rect x="132.985" y="16.448" fill="#EDD6A0" width="26.669" height="27"/>
	<rect x="162.524" y="16.448" fill="#EDD6A0" width="27.635" height="27"/>
	<rect x="193.063" y="16.448" fill="#EDD6A0" width="27.037" height="27"/>
	<rect x="224.602" y="16.448" fill="#EDD6A0" width="27.169" height="27"/>
	<rect x="256.141" y="16.448" fill="#EDD6A0" width="27.124" height="27"/>
	<rect x="287.68" y="16.448" fill="#EDD6A0" width="27.267" height="27"/>
	<rect x="352.219" y="16.448" fill="#EDD6A0" width="25.414" height="27"/>
	<rect x="72.907" y="47.448" fill="#070006" width="26.7" height="27"/>
	<rect x="102.641" y="47.448" fill="#050003" width="28.012" height="27"/>
	<rect x="133.376" y="47.448" fill="#020002" width="27.278" height="27"/>
	<rect x="163.11" y="47.448" fill="#020002" width="28.049" height="27"/>
	<rect x="193.844" y="47.448" fill="#020002" width="13.737" height="27"/>
	<rect x="72.907" y="78.448" fill="#EDD6A0" width="26.7" height="27"/>
	<rect x="101.946" y="78.448" fill="#EDD6A0" width="27.778" height="27"/>
	<rect x="132.985" y="78.448" fill="#EDD6A0" width="27.669" height="27"/>
	<rect x="163.024" y="78.448" fill="#EDD6A0" width="6.111" height="27"/>
	<rect x="321.04" y="16.573" fill="#EDD6A0" width="25.414" height="27"/>
</g>
<style>
#g-newbar-mobile-barchart-img rect, #g-newbar-mobile-barchart-img circle, #g-newbar-mobile-barchart-img path, #g-newbar-mobile-barchart-img line, #g-newbar-mobile-barchart-img polyline, #g-newbar-mobile-barchart-img polygon { vector-effect: non-scaling-stroke; }
</style>
</svg>

