<?xml version="1.0" encoding="utf-8"?>
<!-- Generator: Adobe Illustrator 26.4.1, SVG Export Plug-In . SVG Version: 6.00 Build 0)  -->
<svg version="1.2" baseProfile="tiny" id="g-reddot-Artboard_4-interactives-img" xmlns="http://www.w3.org/2000/svg" xmlns:xlink="http://www.w3.org/1999/xlink"
	 x="0px" y="0px" viewBox="0 0 394.477 556.799" overflow="visible" xml:space="preserve">
<g>
	<g id="red-dot_00000021799977017497287770000008262472415082313372_">
		<ellipse fill="#F7081F" stroke="#000000" cx="584.951" cy="-413.804" rx="4.688" ry="4.973"/>
		<text transform="matrix(0.9428 0 0 1 513.821 -446.9987)" fill="#181818" font-family="'ArialMT'" font-size="11.9341px">California</text>
		<path fill="none" stroke="#C6C6C6" d="M566.131-450.172c0.086,0.163,0.155,0.328,0.225,0.493c3.419,0.42,7.468,2.596,9.693,4.02
			c2.817,1.802,5.234,4.093,6.793,6.874c0.393,0.323,0.761,0.715,1.081,1.203c2.152,3.281,3.589,9.182,2.85,13.297
			c0.084,0.037,0.168,0.072,0.251,0.114c0.085-0.787,0.143-1.581,0.143-2.389C587.168-438.226,578.131-447.951,566.131-450.172z"/>
		<ellipse fill="#F7081F" stroke="#000000" cx="117.812" cy="72.142" rx="3.851" ry="3.873"/>
		<path fill="none" stroke="#C6C6C6" d="M143.229,40.601c-0.102,0.141-0.183,0.283-0.265,0.426
			c-4.034,0.363-8.812,2.243-11.438,3.473c-3.324,1.557-6.177,3.537-8.017,5.94c-0.464,0.28-0.898,0.618-1.276,1.04
			c-2.539,2.835-4.235,7.934-3.363,11.489c-0.099,0.032-0.198,0.063-0.296,0.098c-0.1-0.68-0.169-1.366-0.169-2.064
			C118.405,50.923,129.069,42.519,143.229,40.601z"/>
	</g>
</g>
<style>
#g-reddot-Artboard_4-interactives-img rect, #g-reddot-Artboard_4-interactives-img circle, #g-reddot-Artboard_4-interactives-img path, #g-reddot-Artboard_4-interactives-img line, #g-reddot-Artboard_4-interactives-img polyline, #g-reddot-Artboard_4-interactives-img polygon { vector-effect: non-scaling-stroke; }
</style>
</svg>

